<svg xmlns="http://www.w3.org/2000/svg" width="180.51" height="225" viewBox="0 0 180.51 225">
  <g id="Untitled" transform="translate(-98.696 -76.393)">
    <path id="パス_71" data-name="パス 71" d="M173,111.809l-9.715-19.642c-1.413-3.2-3.022-6.187-2.047-9.821a8.07,8.07,0,0,1,12.382-4.525c2.206,1.5,3.755,4.525,5.122,6.792,2.8,4.631,6.331,9.111,7.857,14.354C177.406,103.695,177.587,107.321,173,111.809Zm20.4-11.9a26.319,26.319,0,0,1,5.288,0c24.016.808,29.191,33.935,8.31,43.228a24.143,24.143,0,0,1-10.576,1.881c-19.657-.793-28.5-24.1-15.51-38.37C184.514,102.69,188.322,101.2,193.4,99.91Zm-10.576,164.5c.5-5.5,3.218-12.548,4.616-18.131,1.662-6.678,3.611-19.65,3.694-26.441a97.354,97.354,0,0,0-2.931-22.664c-5.983-22.671-19.136-31.85-37.108-44.678L118.608,129.4,101.4,116.87c-5.968-6.21-1.405-16.575,7.388-15.464,2.78.348,7.925,3.528,10.576,5.009l20.4,11.543,49.105,27.635c12.14,6.9,24.643,13.364,32.908,25.142,5.424,7.728,7.94,16.492,9.458,25.686.551,3.324.385,12.178,1.9,14.059,1.692,2.108,7.494,4.178,10.123,5.417l21.153,10.554c7.864,3.906,15.7,6.777,14.709,17.565-.6,6.678-6.716,12.4-10.871,17.376L248.1,285.565c-2.274,2.735-8.65,10.72-10.916,12.548-7.169,5.779-18.6,1.466-19.317-8.015-.385-5.016,3.422-10.282,5.991-14.354,3.377-5.356,13.054-20.012,14.868-24.93l-13.6-4.533-12.609,29.463-9.27,19.612a14.18,14.18,0,0,1-12.873,6c-5.432-.378-12.6-5.522-17.376-8.386l-34-20.4c-5.628-3.377-11.188-6.61-10.425-14.2.725-7.215,7.237-11.536,14.2-10.327,2.863.491,9.783,3.74,12.843,5.039Z" fill="#c78ea9"/>
  </g>
</svg>
