<svg xmlns="http://www.w3.org/2000/svg" width="115.044" height="116.182" viewBox="0 0 115.044 116.182">
  <g id="新しいレイヤー_7" transform="translate(0.25 0.25)">
    <path id="STROKE_7edb26e1-1efd-48ad-9a1a-9003042787e1" d="M1586.25,145.575q.085-.854.192-1.647t.395-2.29q.282-1.5.669-2.973t1.173-3.685q.784-2.208,2.027-4.844t2.741-5.168q1.495-2.532,2.786-4.375t2.012-2.757q.716-.913,2.343-2.744t2.926-3.1q1.3-1.268,2.824-2.552t2.129-1.738q.6-.454,2.835-1.9t3.43-2.084q1.19-.636,2.88-1.385a49.4,49.4,0,0,1,5.535-1.877,47.555,47.555,0,0,1,6.182-1.466,37.235,37.235,0,0,1,4.332-.391,30.943,30.943,0,0,1,3.494.08,23.99,23.99,0,0,1,2.546.343q1.049.21,1.963.488t1.41.469c.327.127.681.278,1.053.452a23.229,23.229,0,0,1,2.3,1.418,19.761,19.761,0,0,1,2.354,1.74,15.905,15.905,0,0,1,1.234,1.324,17.24,17.24,0,0,1,1.328,1.844,16.778,16.778,0,0,1,1.181,2.162,18.5,18.5,0,0,1,.767,1.991c.2.622.35,1.16.459,1.617s.233,1.222.369,2.3.226,2.021.263,2.838.023,1.82-.034,3.01-.12,2.2-.2,3.038-.188,1.9-.335,3.189-.293,2.667-.436,4.131-.226,2.562-.256,3.3-.045,1.364-.037,1.893.037,1.134.09,1.814.139,1.393.263,2.14a20.418,20.418,0,0,0,.429,2.01,19.361,19.361,0,0,0,.831,2.315,20.73,20.73,0,0,0,1.038,2.206,25.929,25.929,0,0,0,1.628,2.344q1.179,1.562,1.978,2.42t1.309,1.374q.513.517,1.015,1.029t1.594,1.675q1.083,1.163,1.685,1.9c.4.494.714.907.944,1.24s.545.853.944,1.561.719,1.322.955,1.845.474,1.121.707,1.794.417,1.229.542,1.665.335,1.594.632,3.471a33.918,33.918,0,0,1,.448,5.283,36.231,36.231,0,0,1-.184,4.061,32.915,32.915,0,0,1-.572,3.362c-.263,1.179-.444,1.942-.553,2.291s-.229.73-.376,1.145-.3.826-.47,1.235-.444,1.021-.842,1.836-.775,1.529-1.132,2.142a38.209,38.209,0,0,1-2.253,3.164,39,39,0,0,1-2.79,3.36q-1.083,1.115-1.7,1.678c-.414.375-1.2,1.017-2.365,1.925s-2.076,1.578-2.734,2.008-1.88,1.109-3.667,2.039-2.993,1.517-3.61,1.765-1.5.558-2.644.931-2.437.724-3.877,1.052a42.528,42.528,0,0,1-4.328.754q-2.172.262-2.9.315c-.485.035-.959.065-1.414.091s-.959.046-1.508.062-1.192.015-1.922,0-2.008-.13-3.839-.337-3.069-.378-3.712-.51-1.692-.42-3.148-.864a35.588,35.588,0,0,1-3.791-1.363c-1.064-.464-2.019-.922-2.854-1.371s-1.444-.795-1.831-1.036-.745-.476-1.087-.707-.869-.626-1.594-1.187-1.373-1.1-1.948-1.615-1.5-1.477-2.79-2.884-2.245-2.518-2.869-3.335-1.283-1.745-1.974-2.786-1.282-1.97-1.756-2.787-.978-1.746-1.512-2.786-1.124-2.353-1.779-3.939-1.459-3.8-2.418-6.638c-.331-1.171-.654-2.371-.963-3.6s-.587-2.438-.835-3.626-.545-2.978-.891-5.369-.568-4.158-.654-5.3-.151-2.271-.177-3.384-.026-2.2.007-3.26S1586.028,148.021,1586.25,145.575Z" transform="translate(-1585.84 -95.513)" fill="#ce86a8" stroke="#ce86a8" stroke-linecap="round" stroke-linejoin="round" stroke-width="0.5"/>
    <path id="STROKE_d2ec75fc-90eb-48f0-b1d8-a6abd3d3c170" d="M1856.841,113.678a4.007,4.007,0,0,1,.4,0l.105,0a3.37,3.37,0,0,1,.376.051l.192.043a1.118,1.118,0,0,1,.181,0,2.383,2.383,0,0,1,.368.071l.049.012.075.018.053.011.071.015.282.056.162.03.064,0,.252.033.214.027.041,0,.271.061.105.021.105.019a2.457,2.457,0,0,1,.47.061l.086.015.011,0,.06.009.113.014a2.729,2.729,0,0,1,.342.048l.041,0h.007l.154.005h.1l.105,0a1.291,1.291,0,0,1,.222-.006,2.648,2.648,0,0,1,.466.077l.135.037a3.043,3.043,0,0,1,.368.051l.147.024.128.02.079.012.037.006.053.007.147.02.3.073h0l.075.007a3.315,3.315,0,0,1,.376.038l.052.006a3.465,3.465,0,0,1,.342.081l.03,0a3.407,3.407,0,0,1,.388-.058,3.963,3.963,0,0,0,1.027-.619,4.774,4.774,0,0,0,.752-.742,5.088,5.088,0,0,0,.575-1.1,7.918,7.918,0,0,0,.4-1.147c.056-.257.1-.508.131-.751s.06-.519.1-.825.068-.549.1-.731.049-.325.06-.43.026-.251.038-.438.019-.439.022-.754.008-.516.011-.6,0-.2,0-.343-.011-.305-.015-.488-.022-.411-.052-.682-.072-.574-.124-.908-.1-.62-.151-.858-.094-.423-.135-.555-.1-.3-.173-.514-.15-.416-.226-.615-.139-.374-.2-.521-.124-.293-.192-.435-.151-.3-.233-.479-.181-.361-.29-.553-.2-.346-.263-.464-.131-.229-.2-.335-.192-.291-.38-.555-.361-.569-.549-.87-.391-.611-.594-.931-.417-.657-.639-1.013-.444-.71-.666-1.061-.462-.705-.692-1.051-.462-.688-.692-1.026-.459-.664-.684-.978-.447-.625-.662-.933c.011.264.022.476.026.636s0,.325,0,.495-.019.37-.034.6-.038.446-.057.642-.041.376-.06.539c-.041.328-.083.627-.128.9-.022.136-.072.344-.143.625s-.173.64-.3,1.079-.26.833-.38,1.182-.263.7-.417,1.058-.278.63-.369.818-.218.429-.38.723-.361.671-.6,1.129-.429.835-.568,1.13-.252.543-.346.745c-.045.1-.117.26-.211.478s-.214.493-.35.828-.26.665-.368.993-.207.655-.293.981-.166.619-.23.879-.124.53-.173.813-.086.548-.109.8-.041.543-.049.882a6.942,6.942,0,0,0,0,.708,5.655,5.655,0,0,0,.124.726,5.012,5.012,0,0,0,.278.931,4.32,4.32,0,0,0,.44.8q.271.4.361.5c.06.069.139.155.233.259a2.63,2.63,0,0,0,.47.384Z" transform="translate(-1753.724 -90.417)" fill="#ce86a8" stroke="#ce86a8" stroke-linecap="round" stroke-linejoin="round" stroke-width="0.5"/>
    <path id="STROKE_0cccabdc-42ad-4c25-a8d9-ae1e3d33f4bf" d="M1830.27,188.592q-.023.086-.271,1.266t-.707,3.451q-.231,1.136-.455,2.256t-.44,2.225q-.22,1.105-.429,2.195t-.41,2.166q-.4,2.15-.733,3.95t-.6,3.246q-.271,1.447-.53,2.884t-.511,2.866c-.173.953-.316,1.776-.436,2.47s-.218,1.257-.293,1.689-.169.989-.29,1.67-.263,1.492-.436,2.432-.338,1.839-.5,2.7-.357,1.88-.587,3.06-.493,2.511-.79,3.994-.534,2.676-.722,3.579-.365,1.728-.519,2.476l-.508,2.465q-.276,1.344-.489,2.412c-.139.712-.286,1.461-.429,2.248s-.29,1.6-.425,2.43-.278,1.737-.417,2.711-.252,1.819-.338,2.533-.154,1.4-.207,2.061-.083,1.656-.094,2.987.023,2.431.1,3.3a18.965,18.965,0,0,0,.289,2.089,7.716,7.716,0,0,0,.38,1.3,3.692,3.692,0,0,0,.477.859,2.329,2.329,0,0,0,.82.614,1.415,1.415,0,0,0,1.053.124,2.858,2.858,0,0,0,1.113-.763,8.051,8.051,0,0,0,1.008-1.189c.26-.383.455-.687.583-.913s.425-.833.888-1.823.865-1.941,1.211-2.855.707-1.947,1.076-3.1.688-2.214.951-3.177.534-2,.8-3.126.481-2.029.635-2.723.327-1.517.515-2.471.414-2.106.684-3.457.5-2.48.688-3.386.365-1.759.523-2.562.331-1.631.508-2.483.346-1.654.508-2.4.342-1.588.545-2.513.384-1.721.534-2.388.293-1.318.432-1.951l.26-1.212c.109-.491.233-1.069.38-1.735s.271-1.247.376-1.746.218-1,.323-1.493.165-.767.177-.81.053-.253.132-.631.188-.932.335-1.66.282-1.4.4-2.007.226-1.159.32-1.649.192-1,.289-1.532.2-1.085.3-1.66.2-1.174.312-1.8.218-1.274.335-1.95.211-1.249.29-1.721.151-.906.211-1.3.162-.958.286-1.687.24-1.408.346-2.036.229-1.407.387-2.337.369-2.1.625-3.521l.037-.357c-.414-.117-.827-.226-1.237-.328s-.816-.2-1.222-.29l-1.218-.274c-.406-.091-.812-.187-1.222-.286s-.82-.2-1.23-.313-.827-.224-1.245-.343-.831-.241-1.248-.367S1830.688,188.72,1830.27,188.592Z" transform="translate(-1730.511 -151.673)" fill="#ce86a8" stroke="#ce86a8" stroke-linecap="round" stroke-linejoin="round" stroke-width="0.5"/>
    <path id="STROKE_42e1cf81-c250-40f5-b086-38cdef20fc63" d="M1852.32,169.243q.028-.206.068-.444t.124-.628c.052-.26.1-.5.15-.708s.1-.442.162-.69.105-.446.143-.593.068-.259.086-.336.068-.25.15-.522.147-.483.2-.637.1-.3.143-.452.132-.426.256-.832.241-.741.346-1,.169-.41.184-.445.045-.086.086-.155a2.228,2.228,0,0,1,.169-.238,3.06,3.06,0,0,1,.218-.237,1.727,1.727,0,0,1,.162-.137,1.86,1.86,0,0,1,.233-.125c.124-.061.275-.126.459-.2a4.292,4.292,0,0,1,.429-.144l.293-.073c.094-.023.233-.051.421-.085a5.3,5.3,0,0,1,.545-.072,5.687,5.687,0,0,1,.59-.012c.214.006.335.01.35.014s.113.014.278.032.32.036.448.057.275.045.421.074.3.066.451.11.3.1.451.154.275.108.368.149.166.076.218.106l.222.126q.141.081.3.2c.105.078.207.152.3.223a3.375,3.375,0,0,1,.293.249,2.588,2.588,0,0,1,.286.322c.086.119.188.264.3.436s.2.306.263.4a1.5,1.5,0,0,1,.109.184,4.389,4.389,0,0,1,.105.518c.019.142.034.277.041.407s0,.488-.011,1.078c0,.067-.015.257-.041.569s-.053.61-.083.895-.071.583-.116.9-.079.5-.09.574-.045.248-.09.536-.1.572-.147.855-.086.517-.117.7-.056.344-.079.472-.075.405-.154.832c-.2-.055-.406-.11-.613-.164s-.41-.107-.617-.159l-.617-.156-.62-.155-.624-.154-.621-.154-.62-.154-.621-.154-.62-.154-.62-.154-.62-.154-.621-.153-.62-.15c-.207-.05-.414-.1-.617-.145s-.41-.091-.617-.132S1852.523,169.279,1852.32,169.243Z" transform="translate(-1752.11 -134.131)" fill="#ce86a8" stroke="#ce86a8" stroke-linecap="round" stroke-linejoin="round" stroke-width="0.5"/>
    <path id="STROKE_5f07e4c4-bfc0-43dc-ba65-a469cb2d9153" d="M1698.875,125.528c0,.077.007.154.007.231s0,.154,0,.231,0,.155,0,.232,0,.154-.007.231-.007.154-.011.231-.011.154-.019.231-.015.154-.023.231-.019.153-.03.229-.019.153-.034.229-.023.152-.038.228l-.045.228c-.015.076-.03.151-.049.226s-.034.15-.053.225-.038.149-.06.224-.042.148-.064.222l-.068.221c-.027.073-.049.146-.075.219l-.079.217c-.026.072-.056.144-.087.215s-.056.143-.086.214-.064.141-.094.212-.064.14-.1.209-.068.138-.105.207-.071.137-.105.2l-.113.2c-.041.067-.079.134-.116.2l-.124.2-.124.194c-.045.064-.087.128-.132.191s-.087.126-.135.188l-.135.185c-.049.061-.1.122-.143.182s-.1.12-.151.179-.1.118-.15.176-.1.115-.154.172l-.158.168c-.053.056-.109.111-.162.165s-.113.108-.166.161-.113.106-.173.157-.113.1-.173.153-.117.1-.177.149l-.18.146-.181.141c-.064.046-.124.092-.188.137s-.124.089-.188.133l-.192.129c-.068.042-.131.083-.2.124s-.131.08-.2.12-.131.077-.2.115l-.2.111-.207.106-.207.1-.21.1-.214.092-.214.087-.214.082-.218.077c-.075.025-.147.049-.222.072s-.147.046-.222.067-.147.042-.222.062-.15.039-.225.057-.15.036-.226.052-.15.032-.225.047l-.225.042-.23.037c-.075.011-.154.022-.229.031s-.154.018-.229.026l-.229.021-.233.016-.229.011-.233.005c-.075,0-.154,0-.229,0s-.154,0-.233-.005l-.229-.01c-.079,0-.154-.009-.233-.015s-.154-.013-.229-.021-.154-.016-.229-.026-.154-.02-.229-.031l-.23-.036-.225-.041c-.075-.015-.154-.03-.23-.047s-.151-.033-.226-.052l-.222-.057q-.113-.029-.226-.062c-.071-.021-.146-.044-.218-.067s-.147-.047-.222-.072-.147-.05-.218-.077-.147-.053-.218-.082l-.214-.086c-.072-.03-.139-.06-.211-.091s-.143-.064-.211-.1-.139-.067-.207-.1-.139-.07-.207-.105l-.2-.11-.2-.115c-.068-.039-.132-.079-.2-.119s-.128-.082-.2-.124l-.192-.128c-.064-.043-.128-.088-.188-.132s-.124-.09-.188-.136-.124-.093-.184-.141l-.18-.145c-.06-.049-.117-.1-.177-.149s-.117-.1-.173-.153l-.169-.157c-.056-.053-.113-.106-.166-.161s-.109-.109-.165-.164l-.158-.168c-.053-.057-.105-.114-.154-.171s-.1-.116-.154-.175l-.147-.179c-.049-.06-.094-.12-.143-.182s-.094-.123-.139-.185l-.135-.188c-.041-.063-.087-.127-.128-.191s-.086-.129-.128-.194-.083-.13-.12-.2-.083-.133-.12-.2l-.113-.2c-.038-.068-.071-.136-.109-.2l-.1-.207c-.034-.069-.068-.139-.1-.209s-.064-.14-.1-.211-.056-.142-.086-.213-.056-.143-.087-.215l-.079-.217c-.026-.073-.049-.146-.075-.219l-.068-.221-.068-.222-.056-.224c-.023-.075-.038-.15-.057-.225s-.034-.15-.049-.226l-.045-.227c-.015-.076-.026-.152-.038-.228s-.026-.152-.034-.229-.023-.153-.03-.23l-.022-.23c-.008-.077-.015-.153-.019-.231s-.011-.154-.015-.231-.007-.154-.007-.231,0-.155,0-.232,0-.154,0-.231,0-.154.007-.231l.011-.231c.008-.077.011-.154.019-.231l.023-.231c.011-.076.019-.153.03-.229s.023-.153.034-.229.023-.152.037-.228l.045-.228c.015-.076.03-.151.049-.226s.034-.15.053-.225.037-.149.06-.224.042-.148.064-.222l.068-.221c.026-.073.049-.146.075-.219l.079-.217c.03-.072.057-.144.083-.215l.09-.214c.03-.071.064-.141.094-.211s.064-.14.1-.209.068-.138.105-.207.071-.137.105-.2l.113-.2c.042-.067.079-.133.117-.2l.124-.2.124-.194c.045-.064.087-.128.132-.191s.09-.126.135-.188.09-.124.139-.185.094-.122.139-.182.1-.12.15-.179.1-.118.15-.176.1-.115.154-.172l.158-.168c.053-.056.109-.111.162-.165s.113-.108.166-.161.117-.106.173-.157.113-.1.173-.153.117-.1.177-.149l.181-.146.18-.141c.064-.046.124-.092.188-.137s.124-.089.188-.133.128-.086.2-.129l.192-.124c.068-.041.132-.08.2-.12s.132-.077.2-.115l.2-.111.207-.106c.068-.035.139-.068.211-.1s.139-.065.207-.1l.214-.092.214-.087.214-.082.218-.077c.075-.025.147-.049.222-.072s.146-.046.222-.067.147-.042.222-.062.15-.039.225-.057.151-.036.226-.052.15-.032.226-.047l.226-.042.229-.037c.075-.011.154-.022.229-.031s.154-.018.229-.026l.229-.021.233-.016c.075,0,.154-.008.23-.011l.233-.006c.075,0,.154,0,.229,0s.154,0,.233.005l.229.01c.079,0,.154.009.233.015s.154.013.229.021.154.016.229.026.154.02.23.031l.229.036.226.041c.079.015.154.03.229.047l.226.052c.075.018.146.037.222.057s.151.04.226.062l.222.067.218.072c.072.025.147.05.218.077s.147.054.218.082l.214.086c.071.03.143.06.21.091s.143.064.211.1.139.067.21.1.135.07.2.106l.2.11.2.115c.068.039.132.079.2.119s.128.082.2.123l.192.128c.064.043.128.088.188.132s.128.09.188.137.124.093.184.141l.181.145c.06.049.117.1.177.149s.117.1.173.153l.169.157.169.161c.053.054.109.109.161.164l.158.168c.052.057.105.114.154.171s.1.116.154.175l.147.178c.049.06.094.121.143.182s.094.123.139.185l.135.188c.045.063.087.127.131.191l.124.194c.041.065.083.131.12.2s.079.132.12.2l.113.2c.037.068.071.136.109.2l.1.207c.034.07.068.139.1.209s.064.141.094.211.064.142.09.214.056.143.086.215l.079.217c.026.073.049.146.075.219l.068.22.068.222.056.223c.023.075.038.15.056.225s.034.15.049.226l.045.227c.015.076.026.152.038.228s.026.153.034.229.022.153.03.229.019.153.023.23.015.154.019.231S1698.871,125.45,1698.875,125.528Z" transform="translate(-1643.599 -106.232)" fill="#fff9fc" stroke="#fff" stroke-linecap="round" stroke-linejoin="round" stroke-width="0.5"/>
    <path id="STROKE_24b0eeb9-161d-42a4-9886-c446e267dcbc" d="M1634.916,182.664c0,.047.008.094.008.141s.008.094.008.141,0,.094,0,.141v.141c0,.047,0,.094,0,.141s0,.094-.008.141,0,.094-.008.141-.007.094-.011.14-.011.094-.015.14-.015.094-.019.14l-.023.14c-.007.046-.019.093-.026.139s-.019.092-.03.138-.019.092-.03.138l-.034.137c-.011.046-.026.091-.038.136s-.026.091-.041.135l-.045.134-.045.133c-.015.044-.034.088-.049.132s-.034.088-.053.131l-.056.129c-.019.043-.037.086-.06.129s-.038.085-.06.127-.041.084-.064.126l-.068.124-.068.123c-.026.041-.049.081-.075.121s-.049.08-.075.119l-.079.117-.079.116c-.026.038-.056.076-.083.114s-.056.075-.087.112l-.09.11c-.026.036-.06.072-.09.108s-.06.071-.094.106-.06.07-.094.1-.064.068-.1.1l-.1.1-.1.1c-.034.032-.068.064-.105.095s-.068.062-.105.092-.071.06-.109.09-.071.059-.109.088l-.113.085c-.038.028-.079.055-.117.082s-.075.054-.116.08-.079.052-.117.077-.079.05-.12.074l-.12.071-.124.069-.124.066-.128.063c-.042.021-.083.041-.128.06s-.086.039-.128.058l-.131.055c-.041.018-.087.035-.132.052s-.087.033-.131.049l-.132.046-.135.042-.135.039-.135.036-.139.033c-.045.011-.09.021-.139.03l-.135.027-.139.024-.139.021-.143.018c-.045.006-.09.011-.139.015l-.139.011-.143.008-.139,0-.143,0h-.139l-.143,0-.139-.008-.143-.011-.139-.014-.139-.017-.139-.02c-.049-.007-.094-.015-.139-.024s-.094-.017-.139-.027l-.139-.03-.135-.033-.139-.036-.135-.039c-.045-.014-.087-.028-.132-.043l-.135-.045c-.045-.015-.087-.032-.132-.048l-.132-.051-.132-.054c-.041-.018-.087-.038-.128-.057s-.086-.039-.128-.06l-.128-.063-.124-.066-.124-.068c-.037-.023-.079-.047-.12-.071s-.079-.049-.12-.074-.079-.051-.117-.077-.079-.053-.116-.079-.079-.054-.117-.082l-.113-.085-.113-.087c-.034-.03-.071-.059-.105-.09s-.075-.061-.109-.092-.072-.063-.105-.095l-.1-.1-.1-.1c-.034-.033-.064-.067-.1-.1s-.064-.068-.094-.1-.064-.07-.094-.106a1.072,1.072,0,0,1-.09-.108c-.034-.036-.06-.073-.09-.11s-.057-.074-.086-.112-.057-.076-.083-.114-.056-.077-.083-.115l-.079-.117c-.023-.039-.049-.079-.075-.119s-.049-.08-.071-.121-.049-.082-.072-.123l-.068-.124c-.023-.042-.041-.083-.064-.126s-.041-.084-.06-.127-.041-.085-.06-.128l-.057-.129c-.019-.043-.037-.087-.052-.131s-.034-.088-.049-.132-.034-.088-.049-.133l-.045-.134c-.011-.045-.026-.09-.038-.135s-.026-.09-.042-.136-.022-.091-.034-.137-.023-.091-.03-.137-.023-.092-.03-.138-.019-.093-.026-.139l-.023-.14c-.008-.046-.011-.093-.019-.14s-.011-.094-.015-.14-.011-.094-.015-.141,0-.094-.008-.141,0-.094-.007-.141,0-.094,0-.141V183.1c0-.047,0-.094,0-.141s0-.094.007-.141,0-.094.008-.141.008-.094.011-.141.011-.094.019-.14.011-.093.019-.14.011-.093.019-.139.019-.092.026-.139.019-.092.03-.138.019-.092.03-.138l.034-.137c.015-.046.026-.091.038-.136s.026-.09.041-.135l.045-.134.045-.133c.015-.044.034-.088.049-.132s.038-.088.053-.131l.057-.13c.019-.043.041-.086.06-.128s.038-.085.06-.127.041-.084.064-.126l.068-.124c.023-.041.045-.082.071-.123s.045-.08.072-.121.049-.08.075-.119l.079-.118.079-.116c.03-.038.056-.076.083-.114s.057-.075.087-.112l.09-.11.09-.108c.03-.036.06-.071.094-.106s.06-.07.094-.1.064-.068.1-.1l.1-.1.1-.1c.034-.032.068-.064.105-.095s.071-.062.105-.093.072-.06.109-.09l.113-.087c.038-.029.071-.057.113-.085l.113-.082.117-.08c.038-.026.079-.052.117-.077s.083-.05.12-.074l.124-.072c.038-.023.079-.046.12-.069l.124-.066c.045-.021.087-.043.128-.064s.086-.041.128-.06.087-.039.128-.058.086-.037.132-.054.086-.035.131-.052.087-.033.132-.049l.135-.045c.041-.015.086-.029.132-.043l.135-.039.135-.037.139-.033c.045-.011.09-.021.139-.03l.135-.027.139-.024.143-.021.139-.018.139-.015.139-.011.143-.008.139-.005.143,0h.139l.143,0,.139.008.143.011.139.014.139.017.139.021.143.023.135.027c.049.009.094.019.139.03l.135.033c.049.012.094.024.139.036l.135.039.135.042.131.045c.045.016.09.032.132.049s.09.033.132.051l.132.054c.041.018.087.038.128.057s.087.039.128.06.086.041.128.063l.124.066.124.068c.041.023.083.047.12.071s.083.049.12.074.079.051.12.077.075.053.117.079l.113.082.113.084.113.087c.034.03.072.059.109.09s.072.061.105.092.072.062.105.094l.1.1.1.1c.034.033.068.067.1.1s.064.069.1.1l.09.106c.034.035.064.071.094.108s.06.073.087.11.06.074.086.112.057.076.083.114.056.077.083.116l.079.117c.026.039.049.079.075.119s.049.08.071.121.049.081.072.122l.068.124c.023.042.045.083.064.125s.041.085.064.127l.056.128.056.129c.019.043.038.087.053.131s.034.088.049.132.034.089.049.133l.045.134c.011.045.026.089.041.135s.026.091.038.136l.034.137.034.138c.007.046.019.092.026.138s.019.092.026.139l.023.14c.008.046.011.093.019.14s.011.093.015.14S1634.912,182.617,1634.916,182.664Z" transform="translate(-1608.682 -144.392)" fill="#fff9fc" stroke="#fff" stroke-linecap="round" stroke-linejoin="round" stroke-width="0.5"/>
    <path id="STROKE_ffea1c72-edfd-4459-b526-41581123d4c9" d="M1630.865,233.966c.008.053.015.106.023.159s.011.107.015.16.011.107.015.161.008.107.011.161,0,.107,0,.161,0,.107,0,.161v.161c0,.054,0,.107-.008.161s0,.107-.007.161-.008.107-.011.161-.011.107-.015.16-.011.107-.019.16l-.023.159c-.008.053-.019.106-.026.159s-.019.106-.03.158l-.034.158c-.011.052-.026.1-.038.157s-.026.1-.041.156-.026.1-.045.155l-.045.154c-.019.051-.034.1-.053.153s-.034.1-.053.152-.038.1-.06.15-.041.1-.06.149-.041.1-.064.148l-.068.146c-.026.049-.049.1-.071.144s-.049.1-.075.143l-.079.141-.079.14c-.03.046-.057.092-.087.137s-.057.091-.086.135l-.09.133c-.03.044-.06.088-.094.132s-.06.087-.094.129l-.1.127a1.354,1.354,0,0,1-.1.124l-.1.123c-.037.04-.071.08-.109.12s-.071.079-.109.118l-.113.115c-.038.038-.075.076-.116.113s-.079.073-.117.11-.079.072-.12.107l-.124.1-.124.1c-.041.033-.083.066-.128.1s-.086.064-.128.1-.087.062-.132.093l-.135.09-.135.087-.135.084-.139.081c-.049.026-.094.052-.143.077l-.143.074-.143.071-.147.068-.147.064-.151.061c-.049.02-.1.039-.151.058l-.15.055c-.053.018-.1.035-.154.051l-.154.047c-.053.015-.1.03-.154.044l-.158.04-.154.037-.158.033-.162.03-.158.026-.158.023-.162.019-.158.015-.162.012-.162.008-.162,0h-.158l-.162,0-.161-.007-.162-.01-.162-.014-.158-.017-.162-.021-.158-.024-.158-.029-.158-.032-.158-.035c-.053-.012-.105-.025-.154-.039l-.158-.042-.154-.046c-.053-.016-.1-.032-.154-.049s-.1-.035-.151-.053-.1-.037-.15-.056-.1-.039-.151-.06l-.147-.063c-.053-.021-.1-.044-.15-.066l-.143-.07c-.049-.024-.1-.048-.143-.073s-.1-.05-.143-.076-.094-.052-.139-.079-.094-.054-.139-.082l-.139-.085c-.041-.029-.087-.059-.132-.089s-.09-.061-.132-.092-.09-.063-.132-.095-.087-.064-.128-.1-.087-.067-.128-.1l-.124-.1c-.038-.035-.079-.07-.12-.106s-.079-.072-.117-.109-.079-.074-.117-.111-.079-.076-.117-.114-.071-.077-.109-.117-.075-.079-.109-.119-.072-.08-.106-.121-.071-.082-.1-.124-.068-.083-.1-.126-.068-.085-.1-.128-.064-.086-.094-.13-.064-.088-.094-.133-.056-.09-.086-.135-.056-.091-.087-.137-.056-.092-.083-.138l-.079-.141c-.026-.047-.049-.094-.075-.142s-.049-.1-.072-.144-.049-.1-.071-.145-.045-.1-.064-.147-.045-.1-.064-.148-.041-.1-.06-.15l-.056-.151c-.019-.051-.034-.1-.053-.152s-.034-.1-.049-.153l-.045-.155c-.015-.052-.03-.1-.041-.155s-.026-.1-.038-.156-.026-.1-.037-.157-.019-.105-.03-.158-.019-.106-.03-.159-.015-.106-.022-.159l-.023-.16c0-.053-.011-.107-.015-.16s-.011-.107-.015-.161-.008-.107-.008-.161-.007-.107-.007-.161,0-.107,0-.161,0-.107,0-.161,0-.108,0-.161,0-.107.007-.161.008-.107.011-.161.011-.107.015-.16.015-.107.019-.16l.022-.159c.011-.053.019-.106.03-.159s.019-.106.03-.158.019-.105.03-.158.026-.1.038-.157.026-.1.041-.156l.045-.155c.015-.051.03-.1.049-.154s.03-.1.049-.153l.057-.152.056-.15c.019-.05.041-.1.06-.149l.068-.148a1.229,1.229,0,0,1,.068-.146c.023-.048.045-.1.071-.144s.049-.1.071-.143l.079-.141c.026-.047.053-.093.083-.139s.053-.092.083-.137.056-.091.086-.135l.09-.133c.03-.044.06-.088.094-.132s.064-.086.094-.129l.1-.127.1-.125c.034-.041.068-.082.105-.123s.071-.08.105-.12.075-.079.109-.118l.113-.115c.042-.038.079-.076.117-.112s.079-.074.117-.11.083-.072.12-.107l.124-.1.124-.1c.041-.033.087-.066.128-.1s.087-.064.128-.1.09-.062.132-.093l.135-.09.135-.087c.045-.029.09-.056.139-.084s.09-.055.139-.081.094-.052.139-.077.094-.05.143-.074l.146-.071.147-.068.147-.064.147-.061.15-.058.154-.055c.049-.018.1-.035.15-.051l.154-.047.158-.044c.049-.014.1-.027.154-.04l.158-.037.158-.033.158-.03.158-.026.158-.023.162-.019.162-.015.158-.012.162-.008.162,0h.162l.162,0,.158.007.162.01.162.014.158.017.162.021.158.025.158.028c.057.01.105.02.158.032l.158.035.158.039c.053.014.1.028.154.042s.105.03.154.046l.154.05.151.053c.053.018.1.037.15.056s.1.039.15.059.1.042.151.063l.147.066c.049.023.1.046.143.07l.147.073c.045.025.094.05.139.076s.094.052.143.079l.135.082c.049.028.094.057.139.086l.135.089.132.091c.041.031.086.063.128.095s.087.065.132.1l.124.1.124.1c.041.035.079.07.12.106s.079.072.12.109.075.074.117.111l.113.114.113.117c.034.04.071.079.105.119s.071.081.109.121l.1.124.1.126c.03.042.064.085.094.129s.064.086.1.13l.09.132c.03.045.06.09.086.135s.06.091.087.137.057.092.083.138l.079.14c.026.047.053.094.075.142s.049.1.075.144l.068.146.068.147c.019.049.041.1.06.149s.041.1.06.15l.056.151c.019.05.038.1.052.152s.034.1.049.153l.045.155c.015.052.03.1.041.156s.026.1.041.156.023.1.034.157.022.1.03.158.022.106.03.159S1630.857,233.913,1630.865,233.966Z" transform="translate(-1605.082 -176.16)" fill="#fff9fc" stroke="#fff" stroke-linecap="round" stroke-linejoin="round" stroke-width="0.5"/>
    <path id="STROKE_ec9d68d7-6b91-4c46-b503-de3d850cc74d" d="M1641.352,288.367c.034.053.064.106.094.16a1.627,1.627,0,0,1,.09.162c.03.055.06.109.087.164s.056.111.083.166l.079.168c.027.056.049.113.075.17s.049.114.071.171l.068.173c.019.058.042.116.06.174s.041.117.06.176l.056.177c.015.059.034.118.049.178s.034.12.049.179.03.12.042.18.026.121.041.182l.034.182c.011.061.022.121.03.183s.019.123.026.184l.023.184c.008.062.011.123.019.185s.008.123.015.185.008.123.008.185,0,.124.007.185v.186c0,.062,0,.124,0,.185s0,.124,0,.185-.008.124-.011.185-.011.123-.015.185-.015.123-.022.184-.015.123-.023.184-.019.122-.026.184l-.034.183-.034.182c-.015.061-.027.121-.042.181l-.045.18c-.015.06-.03.12-.049.179s-.034.119-.053.178a1.519,1.519,0,0,1-.056.177c-.019.059-.037.117-.06.175s-.042.117-.064.174l-.068.173c-.023.057-.045.114-.071.171s-.049.113-.075.169l-.079.168c-.03.055-.056.111-.083.165l-.09.164-.09.162c-.03.054-.064.107-.094.16s-.064.105-.1.158l-.1.155c-.034.052-.071.1-.105.153s-.072.1-.109.15l-.113.148-.113.146c-.041.048-.079.1-.12.143s-.079.094-.12.14-.083.092-.128.137l-.124.134c-.045.044-.09.088-.132.132l-.135.129-.135.125c-.049.041-.094.082-.139.123s-.1.08-.143.119l-.146.116-.147.112c-.049.037-.1.074-.15.109s-.1.071-.15.106-.105.069-.154.1l-.158.1c-.053.032-.105.064-.162.1l-.158.091c-.056.03-.109.059-.165.088s-.109.057-.166.084-.109.055-.165.08l-.169.077c-.056.025-.117.049-.173.073l-.169.069c-.06.022-.117.044-.177.065s-.117.041-.173.061-.117.039-.177.057l-.181.053c-.056.017-.116.033-.177.049l-.181.045-.181.041-.181.037-.184.033c-.06.01-.12.02-.184.029l-.184.024c-.06.008-.12.014-.184.02l-.184.016-.184.012-.184.007-.188,0h-.184l-.184,0-.188-.009-.184-.013-.184-.017-.184-.021-.184-.026-.184-.03-.181-.034-.184-.038c-.06-.013-.12-.027-.177-.042l-.181-.046-.18-.05c-.06-.017-.117-.035-.177-.054s-.117-.038-.177-.058-.117-.041-.173-.062-.116-.043-.173-.066-.117-.046-.173-.07l-.169-.074-.169-.078c-.056-.027-.113-.054-.166-.082s-.113-.056-.165-.085-.109-.059-.162-.089-.109-.061-.162-.093l-.162-.1c-.049-.033-.1-.066-.154-.1s-.105-.068-.154-.1-.1-.071-.151-.107-.1-.073-.15-.111l-.147-.114c-.049-.038-.1-.077-.143-.117s-.1-.08-.143-.12-.094-.082-.139-.123l-.135-.126c-.045-.042-.09-.086-.132-.129s-.09-.088-.131-.132-.087-.09-.128-.135l-.124-.138c-.041-.047-.079-.094-.12-.141s-.079-.1-.117-.143-.079-.1-.113-.146l-.113-.149c-.038-.05-.071-.1-.105-.151s-.071-.1-.105-.153l-.1-.156c-.034-.052-.064-.105-.1-.158s-.06-.106-.094-.16l-.09-.162c-.026-.055-.056-.109-.083-.164s-.056-.111-.083-.166l-.079-.168c-.026-.056-.053-.113-.075-.17s-.049-.114-.071-.171l-.068-.173c-.023-.058-.041-.116-.064-.174l-.057-.176-.056-.177c-.019-.059-.034-.118-.049-.178s-.034-.12-.049-.179l-.045-.181c-.011-.061-.026-.121-.037-.182s-.023-.121-.034-.182-.022-.122-.03-.183-.019-.122-.026-.184l-.023-.184c-.007-.061-.015-.123-.019-.185s-.011-.123-.015-.185-.008-.123-.008-.185-.008-.123-.008-.185v-.371c0-.062,0-.124.008-.185l.011-.185c0-.062.011-.123.015-.185s.015-.123.019-.185.015-.123.026-.184.015-.122.026-.183.019-.122.034-.183l.034-.182c.015-.061.026-.121.041-.181a1.49,1.49,0,0,1,.045-.18l.045-.179c.019-.059.038-.119.053-.178l.056-.177c.019-.059.041-.117.06-.175s.045-.117.064-.174.045-.115.071-.173.045-.114.071-.171.049-.113.075-.169l.079-.168c.026-.055.056-.111.083-.165l.09-.164a1.677,1.677,0,0,1,.09-.162c.03-.054.06-.107.094-.16s.064-.1.1-.157l.1-.155c.034-.052.068-.1.105-.153s.072-.1.109-.15.071-.1.109-.148.079-.1.117-.145.079-.1.12-.143.079-.094.12-.14l.124-.137c.042-.045.087-.09.128-.134s.086-.088.131-.132l.135-.129.135-.125c.045-.041.094-.082.139-.123s.094-.08.143-.119.1-.078.143-.116.1-.076.151-.112.1-.074.151-.109.1-.071.15-.106.1-.069.154-.1l.158-.1.158-.1.162-.092c.056-.03.109-.059.165-.088s.109-.057.166-.084.109-.055.165-.081l.169-.077.169-.073.173-.069c.06-.022.117-.044.177-.065s.117-.041.173-.061l.177-.057.177-.053.181-.049.18-.045c.06-.015.12-.028.181-.041l.181-.037c.06-.012.124-.023.184-.033s.12-.02.184-.029l.184-.024.184-.02.184-.016.184-.012.184-.008.188,0h.184l.184,0,.188.009.184.013.184.017.184.022.184.026.181.03.184.034.181.038.181.042.181.046.18.05.177.055c.06.018.116.038.177.058s.117.041.173.062l.173.066c.06.023.117.046.173.07l.169.074.169.078c.056.027.113.054.166.082s.113.056.165.085.109.059.162.089.109.061.162.092l.158.1.158.1c.052.034.1.068.154.1s.1.071.151.107.1.073.15.11l.147.114c.049.038.1.077.143.117s.094.08.143.12.094.082.139.123l.135.126c.045.042.09.086.132.129s.087.088.132.132.083.09.128.135l.124.138c.038.046.079.093.121.141s.079.1.117.144l.113.146.113.149c.034.05.071.1.105.152s.071.1.105.153l.1.156C1641.292,288.261,1641.322,288.314,1641.352,288.367Z" transform="translate(-1610.96 -211.435)" fill="#fff9fc" stroke="#fff" stroke-linecap="round" stroke-linejoin="round" stroke-width="0.5"/>
    <path id="STROKE_8573f6c4-3de1-42ec-818d-4b684f4baf93" d="M1706.069,322.049l.113.2c.038.068.075.136.109.2s.071.137.105.206.068.139.1.208.064.14.094.211.06.141.09.213.056.143.087.215l.079.217c.026.073.049.145.075.218l.068.22.068.221c.019.074.038.149.06.223s.038.149.053.224.034.15.053.226.03.151.041.226.03.152.041.228.022.152.034.229.023.153.03.229l.023.229c.008.077.015.153.019.23s.011.154.015.231.007.154.007.231,0,.154,0,.231v.231c0,.077,0,.154-.008.231s-.007.154-.011.231-.011.154-.019.231-.015.153-.023.23-.019.153-.03.229-.019.153-.03.229-.026.152-.041.228-.026.151-.041.227-.03.151-.049.226-.034.15-.053.224-.038.149-.06.223-.041.148-.064.222l-.068.22c-.022.073-.049.146-.075.219s-.049.145-.075.217-.056.144-.086.215-.056.142-.087.213-.06.141-.094.211-.064.14-.1.209l-.1.207c-.038.068-.071.137-.109.2s-.072.135-.109.2-.079.134-.117.2l-.124.2c-.038.065-.083.13-.124.194s-.086.128-.128.191l-.135.188c-.045.062-.09.124-.139.185s-.094.122-.143.182-.094.12-.143.179-.1.117-.151.175-.1.115-.154.172l-.158.168c-.057.055-.109.11-.162.165l-.169.161c-.052.053-.109.106-.169.157l-.169.153c-.06.05-.12.1-.177.149l-.18.146-.18.141c-.064.046-.124.092-.188.137s-.124.089-.188.133l-.192.129c-.064.042-.132.083-.2.124s-.132.081-.2.12l-.2.115c-.064.038-.132.074-.2.111s-.139.072-.207.106-.139.068-.207.1-.139.065-.21.1-.139.062-.211.092l-.214.087-.214.082-.218.077c-.075.025-.147.049-.222.073s-.147.046-.218.067l-.222.063-.225.058-.226.052-.226.047q-.113.023-.225.042l-.229.037c-.075.012-.151.022-.229.032s-.15.019-.229.027l-.229.021c-.075.006-.151.012-.229.017l-.229.011c-.079,0-.154,0-.233.006s-.154,0-.229,0-.154,0-.229,0-.154-.006-.233-.01l-.229-.015c-.079-.006-.154-.013-.229-.02s-.154-.016-.23-.025-.154-.02-.229-.03-.154-.023-.229-.036l-.226-.041c-.075-.014-.154-.03-.226-.046l-.225-.051-.226-.056c-.075-.02-.146-.04-.222-.061s-.147-.043-.222-.066-.146-.047-.218-.071-.146-.05-.218-.076-.147-.053-.218-.081l-.214-.086c-.072-.03-.143-.06-.211-.091s-.143-.063-.21-.1-.139-.066-.211-.1l-.2-.1c-.068-.036-.139-.072-.2-.109l-.2-.114-.2-.118-.192-.123c-.068-.042-.131-.084-.2-.128s-.124-.087-.188-.132-.124-.09-.188-.136-.12-.093-.184-.14l-.181-.144c-.057-.049-.117-.1-.173-.149s-.117-.1-.177-.152l-.169-.156c-.056-.053-.113-.106-.165-.16s-.109-.108-.166-.164l-.158-.167c-.053-.056-.105-.113-.154-.171s-.1-.116-.151-.175-.1-.118-.15-.178-.094-.12-.143-.181-.094-.122-.139-.184l-.135-.187c-.041-.063-.087-.126-.128-.19s-.087-.128-.128-.193l-.124-.2c-.038-.066-.079-.132-.117-.2l-.113-.2c-.038-.068-.071-.136-.109-.2l-.1-.206-.1-.209c-.03-.07-.064-.14-.094-.211l-.09-.213c-.026-.071-.056-.143-.083-.215s-.056-.144-.079-.217-.053-.146-.075-.219-.049-.147-.072-.22-.045-.147-.064-.221-.041-.149-.06-.223l-.056-.225c-.019-.075-.034-.15-.049-.225l-.045-.227c-.015-.076-.026-.152-.041-.228l-.034-.228c-.011-.076-.019-.153-.03-.229l-.023-.23c-.008-.076-.015-.153-.019-.23s-.011-.153-.015-.23,0-.154-.007-.23,0-.154,0-.231,0-.154,0-.231,0-.154.007-.231.007-.154.011-.231.011-.153.015-.23l.023-.23c.011-.076.019-.153.03-.229l.034-.228c.011-.076.022-.152.038-.228s.026-.151.041-.227.034-.151.049-.226l.056-.225.056-.223c.023-.074.041-.148.064-.222l.068-.22c.026-.073.049-.146.075-.219l.079-.217c.026-.072.053-.144.083-.215s.06-.143.087-.214.064-.141.094-.211.064-.139.1-.209.068-.138.105-.207.068-.137.105-.2l.113-.2c.038-.067.075-.134.117-.2s.079-.132.12-.2l.124-.194c.041-.064.086-.128.131-.191s.087-.126.132-.188.094-.124.139-.185.094-.122.143-.182l.147-.179c.049-.059.1-.117.151-.175s.1-.115.154-.172l.158-.168c.053-.056.105-.111.162-.165s.109-.108.166-.161l.169-.157c.056-.052.113-.1.173-.153s.117-.1.177-.149.116-.1.177-.146.12-.095.184-.141.124-.092.184-.137l.188-.133.192-.129.2-.124c.068-.041.132-.08.2-.12s.132-.077.2-.115l.2-.111.2-.106c.071-.035.139-.069.211-.1s.139-.065.207-.1l.211-.092.214-.087c.071-.028.147-.056.218-.082s.143-.053.218-.077.143-.049.218-.073.147-.046.222-.068.147-.042.222-.062.147-.039.222-.058l.226-.053q.113-.025.226-.047c.075-.015.15-.029.229-.043l.226-.037c.075-.012.154-.022.229-.032l.229-.027c.075-.008.154-.015.229-.022s.154-.012.229-.016.154-.009.233-.011l.229-.006h.229l.233,0,.229.01.233.015c.075.006.15.012.229.02l.229.025.229.03c.075.011.151.023.226.036l.229.041.226.046c.075.016.15.033.226.051s.15.036.222.056l.226.061c.072.021.147.043.218.066s.147.047.222.071.147.05.218.076l.214.081.214.086.214.091c.072.031.139.063.211.1s.139.066.207.1.139.069.207.1l.2.109c.068.037.132.075.2.114s.132.079.2.119.132.081.2.123l.192.127c.064.043.128.087.188.132s.128.09.188.136.124.093.184.14l.18.144c.06.049.117.1.177.149s.117.1.173.152l.169.156.169.16c.053.054.109.108.162.164l.158.167.158.171c.049.058.1.115.15.174l.147.178c.049.06.1.12.143.181s.094.122.139.184l.135.187c.045.063.086.126.132.19l.124.193.124.2C1705.994,321.917,1706.032,321.983,1706.069,322.049Z" transform="translate(-1648.958 -231.752)" fill="#fff9fc" stroke="#fff" stroke-linecap="round" stroke-linejoin="round" stroke-width="0.5"/>
  </g>
</svg>
