<svg xmlns="http://www.w3.org/2000/svg" width="64.059" height="116.181" viewBox="0 0 64.059 116.181">
  <g id="ペン" transform="translate(0.25 0.25)">
    <path id="STROKE_154be926-8c5c-44da-9348-d01eb829e518" d="M63.342,88.371q-4.1-.466-5.355-.673t-1.97-.364q-.717-.157-3.295-1.061a33,33,0,0,1-3.359-1.308,28.14,28.14,0,0,1-2.541-1.606,25.59,25.59,0,0,1-2.653-2.016q-.894-.813-1.367-1.32t-1.224-1.46a25.045,25.045,0,0,1-1.487-2.118q-.735-1.165-1.189-2.061t-.9-2a30.09,30.09,0,0,1-.96-2.915,33.853,33.853,0,0,1-.876-4.22q-.36-2.4-.436-3.789t-.029-3.824q.048-2.44.172-3.869t.555-4.388q.431-2.959.921-5.3t1.178-4.768a35.4,35.4,0,0,1,1.438-4.192,19.6,19.6,0,0,1,1.113-2.336,7.655,7.655,0,0,1,.764-1.022,4.67,4.67,0,0,1,.8-.725,4.376,4.376,0,0,1,.526-.334,5.358,5.358,0,0,1,.615-.183q.4.009.519.025a4.1,4.1,0,0,1,.6.2,4.6,4.6,0,0,1,.837.415,8.816,8.816,0,0,1,.994.811,16.56,16.56,0,0,1,1.384,1.441q.739.856,1.2,1.434t.891,1.125q.432.546,1.355,1.615t1.3,1.44q.377.37.843.771t.875.7q.409.295.732.489t1.219.6a13.361,13.361,0,0,0,1.912.686,15.089,15.089,0,0,0,2.034.421,17.267,17.267,0,0,0,1.89.158,20.389,20.389,0,0,0,2.6-.18q1.727-.2,2.338-.345t2-.637a18.7,18.7,0,0,0,2-.8,14.9,14.9,0,0,0,1.3-.75q.694-.445.929-.629t.906-.846a15.108,15.108,0,0,0,1.56-1.9A21.694,21.694,0,0,0,77.7,33.939q.807-1.59,1.127-2.352t.9-2.191q.583-1.428.957-2.262A15.25,15.25,0,0,1,81.48,25.6a8.382,8.382,0,0,1,.736-1.083A4.662,4.662,0,0,1,82.7,24a3.069,3.069,0,0,1,.445-.3,2.324,2.324,0,0,1,.43-.205,1.349,1.349,0,0,1,.47-.018,2.423,2.423,0,0,1,.744.214,6.459,6.459,0,0,1,1.436,1.176,11.62,11.62,0,0,1,1.427,1.6q.416.613.967,1.606t.88,1.693q.329.7,1.119,2.756T92.07,36.8q.664,2.221,1.163,4.332t.979,4.8q.479,2.685.723,4.7t.376,4.788q.132,2.77.08,4.241t-.282,3.359a31.291,31.291,0,0,1-.557,3.291q-.328,1.4-.6,2.235t-.695,1.865q-.424,1.032-.68,1.553T91.457,73.9a25.668,25.668,0,0,1-1.493,2.229q-.628.813-1.45,1.687A24.386,24.386,0,0,1,86.7,79.549a27.049,27.049,0,0,1-2.214,1.712q-1.223.854-1.829,1.216t-1.819,1q-1.214.639-2.691,1.274t-2,.831q-.526.195-2.714.847t-3.393.92q-1.2.267-1.987.417t-1.839.329q-1.056.18-1.85.3" transform="translate(-31.845 -23.464)" fill="#ce86a8" stroke="#ce86a8" stroke-linecap="round" stroke-linejoin="round" stroke-width="0.5"/>
    <path id="STROKE_f4203857-e89e-4ba4-adab-381c0737127a" d="M111.92,212.59q-.318.59-1.136,2.2t-1.3,2.613q-.485,1.006-1.161,2.508t-1.406,3.34q-.73,1.839-1.125,2.993T104.69,230q-.7,2.607-.992,4.187t-.458,2.979q-.168,1.4-.265,3.8a47.217,47.217,0,0,0,.114,5.3,43.964,43.964,0,0,0,.751,5.552,37.313,37.313,0,0,0,1.393,5.064,31.928,31.928,0,0,0,1.4,3.485,22.308,22.308,0,0,0,1.135,1.983,18.582,18.582,0,0,0,1.088,1.53q.5.628,1,1.134a15.689,15.689,0,0,0,1.319,1.18,13.231,13.231,0,0,0,1.741,1.2,11.63,11.63,0,0,0,1.663.811,10.058,10.058,0,0,0,1.352.419,8.645,8.645,0,0,0,3.177.108,10.211,10.211,0,0,0,2-.448,11.759,11.759,0,0,0,1.453-.58,13.054,13.054,0,0,0,1.477-.927,14.611,14.611,0,0,0,1.4-1.08q.462-.422.92-.919a16.546,16.546,0,0,0,1.174-1.5,17.236,17.236,0,0,0,1.228-1.969q.511-.967.778-1.619t.416-1.081q.148-.43.7-2.89a32.237,32.237,0,0,0,.716-4.827,38.77,38.77,0,0,0,.083-4.3q-.082-1.928-.267-3.358t-.316-2.124q-.13-.694-.512-2.242t-.739-2.669q-.357-1.121-1.415-3.648t-1.556-3.49q-.5-.963-.9-1.664t-1.207-1.942q-.8-1.241-1.839-2.621t-2.6-3.116q-1.561-1.735-2.251-2.4t-1.457-1.339q-.767-.677-1.126-.969t-.732-.592q-.374-.3-1.882-1.487" transform="translate(-77.964 -153.149)" fill="#ce86a8" stroke="#ce86a8" stroke-linecap="round" stroke-linejoin="round" stroke-width="0.5"/>
    <path id="STROKE_4012c3df-9946-4b8c-8a66-d5184fd76b33" d="M60.355,293.844q-4.673-.652-5.767-.837t-2.321-.44q-1.227-.255-2.539-.6t-2.185-.627q-.873-.281-1.721-.6t-1.53-.608q-.682-.29-1.448-.658t-1.591-.819q-.825-.451-1.5-.867t-1.481-.964q-.8-.548-1.575-1.136t-2.021-1.684q-1.25-1.1-1.6-1.437t-.988-1.019q-.641-.679-1.542-1.755t-1.437-1.8q-.536-.726-1.156-1.682t-1.322-2.262q-.7-1.306-1.025-2.035t-.58-1.409q-.257-.68-.5-1.468t-.449-1.653q-.205-.866-.336-1.671t-.2-1.547q-.066-.741-.078-1.559t.051-1.7q.064-.881.184-1.623t.276-1.369q.156-.627.387-1.3a13.556,13.556,0,0,1,.564-1.382,12.4,12.4,0,0,1,.615-1.167,9.334,9.334,0,0,1,.6-.868,6.11,6.11,0,0,1,.878-.879,4.342,4.342,0,0,1,.811-.586,2.045,2.045,0,0,1,.489-.155,1.518,1.518,0,0,1,.384-.028,1.222,1.222,0,0,1,.246.044,1.183,1.183,0,0,1,.222.1,1.212,1.212,0,0,1,.231.169,1.983,1.983,0,0,1,.237.273,3.246,3.246,0,0,1,.31.593,5.327,5.327,0,0,1,.285.837q.1.416.183.982t.148,1.472q.067.906.1,1.6t.09,1.676q.057.983.127,1.822t.216,1.916q.146,1.077.384,2.219t.666,2.532q.428,1.389.8,2.29t.873,1.887q.5.986.911,1.667t.9,1.4q.5.723,1.161,1.565t1.505,1.751q.839.909,1.548,1.576t1.526,1.345q.817.678,1.372,1.091t1.258.887q.7.474,1.776,1.12t1.86,1.069q.787.424,1.547.8t1.8.854q1.045.477,3.605,1.59" transform="translate(-23.462 -179.929)" fill="#ce86a8" stroke="#ce86a8" stroke-linecap="round" stroke-linejoin="round" stroke-width="0.5"/>
    <path id="STROKE_8c14bb4d-ca71-4666-8e7c-ddb37fc449f6" d="M85.51,126.476l.4,1.8q.307,1.4.817,3.186t.932,2.931q.422,1.145.723,1.836t.647,1.4q.347.707,1.066,2.161" transform="translate(-66.009 -94.1)" fill="none" stroke="#fff9fc" stroke-linecap="round" stroke-linejoin="round" stroke-width="6.6"/>
    <path id="STROKE_a246b164-d8e0-4a10-9b40-d5ee3d0e3a2f" d="M154.607,117.73q.131.567.436,1.753t.5,1.86q.193.675.469,1.515t.492,1.406q.216.566.612,1.507t.736,1.636q.34.695,1.171,2.348" transform="translate(-113.389 -88.103)" fill="none" stroke="#fff9fc" stroke-linecap="round" stroke-linejoin="round" stroke-width="6.6"/>
  </g>
</svg>
