<svg xmlns="http://www.w3.org/2000/svg" width="225" height="220.929" viewBox="0 0 225 220.929">
  <path id="パス_73" data-name="パス 73" d="M101.7,4.261c4.9-.688,9.545.432,12.9,4.306,6.709,7.74,2.768,20.336-7.5,22.27C92.646,33.57,85.257,15.368,95.854,6.988A13.988,13.988,0,0,1,101.7,4.261Zm2.7,79.889-7.5-24.3c-.715-2.164-2.057-7.848-3.488-9.225-1.2-1.157-9.013-4.086-11.061-4.905L67.518,39.312c-1.737-1.292-4.086-4.644-5.513-6.462l-8.361-10.8c-1.17-1.494-3.843-4.675-4.4-6.3A5.262,5.262,0,0,1,54.9,8.6c2.682.261,4.95,3.033,6.732,4.9L71.55,24.3c2.016,2.048,3.055,3.726,5.85,4.626l15.75,4.685c10.161,1.939,20.426.733,30.6-.311h3.6l13.95-1.733,6.3-.724,7.2-2.043,18-5.193c2.907-.522,5.6-.063,6.9,2.943,2.277,5.279-3.087,7.357-6.9,8.811l-30.15,11.29-8.1,2.849c-1.247.437-2.651.765-2.812,2.3a30.2,30.2,0,0,0,.918,4.9l2.4,10.8,3.793,16.65,7.286,14.4c1.319,2.551,4.5,9.338,6.143,11.169,1.238,1.372,5.26,3.667,7.025,4.77L171,121.95c4.765,3.11,12.7,6.367,9.464,13.5a5.887,5.887,0,0,1-1.859,2.408c-3.672,2.848-6.665,1.165-10.3-.419l-6.75-3.078-15.75-7.344c-3.1-1.5-5.913-2.282-8.55-4.662L125.1,109.8c-3.4-3.4-4.063-5.391-9-5.4H90.9c-4.779.009-5.242,1.629-8.55,4.95l-12.618,13.5c-2.543,2.66-5.346,6.169-9.432,5.76a6.96,6.96,0,0,1-6.25-7.56c.229-2.718,2.012-4.712,3.64-6.75l6.03-7.65,9.99-12.6C75.555,91.741,77.44,89,80.1,87.6c2.5-1.31,6.183-1.426,9-1.723Zm95.081,62.177c.981-.113,2.1.274,1.49,1.53C200.34,149.152,197.716,148.315,199.48,146.327Zm18.342,1.651c3.46-.23,2.961,3.168,1.264,3.766C217.21,152.4,214.533,149.841,217.822,147.978Zm-10.224,1.44c2.934-.9,2.758,1.9,1.512,2.385C208.057,152.212,205.979,151.344,207.6,149.418Zm13.392,9.414c2.992.122,2.191,2.921.8,3.285C220.315,162.495,218.119,160.4,220.99,158.832Zm-16.137,1.7c4.361-.99,4.032,3.533,1.669,4.239C204.345,165.42,202.055,162.549,204.854,160.533ZM0,176.4H40.95V225H0Zm184.05,0H225V225H184.05Z" transform="translate(0 -4.071)" fill="#c78ea9"/>
</svg>
