<svg xmlns="http://www.w3.org/2000/svg" width="126.859" height="116.181" viewBox="0 0 126.859 116.181">
  <g id="新しいレイヤー_8" transform="translate(3.149 0.25)">
    <path id="STROKE_7c307d4c-bdb9-434e-bac2-eb721e38d25e" d="M2139.824,118.412c0,.1,0,.207,0,.311s0,.207-.007.311-.007.207-.014.311-.01.207-.021.311-.018.207-.028.31-.021.206-.036.309-.024.206-.042.308-.028.2-.046.307-.039.2-.057.306-.042.2-.063.3-.046.2-.071.3-.05.2-.078.3-.053.2-.082.3-.06.2-.092.3l-.1.3c-.035.1-.071.2-.106.293s-.071.194-.11.291l-.117.289c-.042.1-.081.191-.124.286s-.089.189-.131.283-.089.187-.138.28-.092.185-.142.277l-.149.273c-.053.091-.1.181-.156.27s-.106.178-.163.267-.11.176-.166.263-.113.173-.174.259l-.181.255c-.06.084-.12.168-.184.251s-.127.165-.191.247-.131.162-.195.242l-.2.238c-.071.078-.138.156-.209.233l-.212.229c-.071.075-.145.15-.216.223l-.224.219c-.074.072-.152.143-.23.214s-.152.14-.23.208-.159.136-.237.2-.159.133-.241.2-.163.129-.248.193-.166.125-.251.187-.166.122-.251.181l-.258.175c-.089.058-.177.114-.266.17s-.177.11-.265.164-.177.106-.269.158-.181.1-.273.152-.184.1-.276.146l-.28.139-.284.133q-.143.065-.286.126c-.1.041-.195.081-.291.12s-.195.077-.29.113-.195.073-.294.107-.2.068-.3.1-.2.063-.3.093l-.3.087c-.1.028-.2.054-.3.08s-.2.05-.3.073-.2.046-.3.067-.206.041-.308.059-.205.036-.308.052-.205.031-.312.046-.205.027-.308.039-.208.022-.312.032-.209.018-.312.025-.209.013-.315.018-.209.008-.312.011-.209,0-.312,0-.213,0-.315,0-.209-.006-.312-.01-.209-.011-.315-.018-.209-.015-.312-.024l-.312-.032q-.154-.018-.308-.039c-.106-.014-.209-.029-.312-.045s-.205-.034-.308-.052-.205-.039-.308-.059-.206-.043-.3-.066-.205-.047-.3-.073-.2-.052-.3-.08-.2-.057-.3-.087-.2-.061-.3-.093-.2-.066-.3-.1-.195-.07-.294-.107-.195-.074-.29-.113-.195-.079-.29-.12-.191-.083-.287-.126l-.283-.133c-.092-.045-.187-.091-.28-.139l-.276-.145c-.092-.05-.184-.1-.272-.152s-.181-.1-.273-.157-.177-.108-.265-.164-.177-.112-.262-.169-.174-.116-.258-.176-.17-.12-.255-.181-.167-.124-.252-.187-.163-.127-.244-.192-.163-.131-.241-.2-.16-.135-.237-.2l-.234-.209c-.078-.07-.152-.142-.227-.213s-.149-.145-.223-.219-.145-.148-.22-.223l-.212-.228c-.071-.077-.138-.155-.205-.233s-.138-.158-.2-.238-.135-.161-.2-.242l-.191-.246c-.06-.083-.124-.166-.184-.251l-.18-.255c-.057-.086-.117-.172-.174-.259s-.113-.175-.166-.263-.11-.177-.163-.266-.1-.179-.156-.27l-.148-.273c-.05-.092-.1-.184-.142-.277l-.138-.28c-.046-.094-.089-.188-.131-.283s-.081-.19-.124-.285l-.117-.289c-.039-.1-.074-.193-.11-.291l-.106-.293-.1-.3c-.031-.1-.064-.2-.092-.3l-.085-.3c-.025-.1-.053-.2-.074-.3s-.05-.2-.071-.3-.046-.2-.064-.3-.039-.2-.057-.306-.035-.2-.05-.307-.028-.2-.042-.308-.025-.206-.036-.309-.021-.206-.028-.31-.014-.207-.021-.31-.011-.207-.014-.311-.007-.207-.007-.311v-.311c0-.1,0-.207.007-.311s.007-.207.014-.311.014-.207.021-.31.018-.207.028-.31.021-.206.036-.309.025-.206.042-.308.031-.2.05-.307.035-.2.057-.306.039-.2.06-.3.046-.2.071-.3.05-.2.078-.3.053-.2.085-.3.056-.2.088-.3.064-.2.1-.3.067-.2.1-.293.074-.194.11-.291l.117-.288c.042-.1.085-.191.124-.286s.088-.189.131-.283l.138-.28c.046-.093.1-.185.142-.277s.1-.183.149-.273.1-.181.156-.27.106-.178.162-.266.11-.176.167-.263.117-.173.174-.259l.181-.255c.06-.084.124-.168.184-.251l.191-.246c.063-.081.131-.162.2-.242s.131-.159.2-.238.135-.157.206-.233l.212-.228c.071-.075.145-.15.216-.224l.223-.218c.078-.072.152-.143.23-.214s.152-.14.23-.209.16-.136.238-.2.163-.133.24-.2.167-.129.248-.192.166-.126.251-.187.166-.122.255-.181.17-.118.258-.176.174-.114.262-.17.177-.11.266-.164.18-.106.269-.158.181-.1.273-.152.184-.1.28-.145.184-.094.28-.139.188-.09.283-.133.188-.085.283-.126l.291-.12c.1-.039.195-.077.29-.113l.294-.107c.1-.034.2-.068.3-.1s.2-.063.3-.093.2-.059.3-.087.2-.055.3-.08.2-.05.3-.073.2-.045.3-.066.205-.041.308-.059.205-.036.308-.052.209-.032.312-.046.206-.027.308-.039l.312-.032c.106-.009.209-.017.315-.024s.205-.013.312-.018.209-.008.312-.011.209,0,.315,0,.209,0,.312,0,.209.006.315.011.205.011.312.017.209.015.312.025.209.02.311.032.209.024.312.038.205.029.308.046.205.034.308.052.205.038.308.059.205.043.308.066l.3.073c.1.025.2.052.3.08s.2.057.3.087.2.061.3.093.2.066.3.1.195.07.294.107.195.074.294.113.191.079.287.12.191.083.287.126.188.087.283.132.188.092.28.139.184.1.276.145.184.1.276.151l.269.158q.133.08.266.164c.089.056.177.112.262.169s.173.116.258.175l.255.181c.085.061.166.123.251.187l.244.192.244.2c.078.067.156.135.237.2s.152.138.23.209.152.142.227.213.152.145.223.219.149.148.22.223l.212.228c.071.077.138.155.205.233s.138.158.2.238.135.161.2.242.128.164.191.246.124.166.184.251l.18.255c.057.086.117.172.174.259s.113.175.167.263.11.177.163.266.106.179.156.27.1.182.149.273.1.184.142.277.1.186.138.28.089.188.131.283.085.19.124.286.081.192.117.288.074.193.11.291.071.2.106.294.067.2.1.3.063.2.092.3.057.2.085.3.053.2.078.3.046.2.067.3.046.2.064.3.039.2.057.306.035.2.049.307l.042.308c.014.1.025.206.036.309s.021.206.028.31l.021.311c.007.1.01.207.014.31S2139.824,118.309,2139.824,118.412Z" transform="translate(-2064.339 -96.702)" fill="#ce86a8" stroke="#ce86a8" stroke-linecap="round" stroke-linejoin="round" stroke-width="0.5"/>
    <path id="STROKE_26c76888-32d1-4c90-85b1-9cc57a64af44" d="M2078.819,118.329q-.606-.623-1.222-1.34t-1.37-1.8a16.9,16.9,0,0,1-1.126-1.8,15.2,15.2,0,0,1-.7-1.588c-.216-.58-.389-1.108-.517-1.586a23.769,23.769,0,0,1-.435-2.381,36,36,0,0,1-.322-3.7c-.053-1.354-.074-2.387-.057-3.1s.057-1.492.124-2.335a22.161,22.161,0,0,1,.329-2.491,16.474,16.474,0,0,1,.4-1.753,10,10,0,0,1,.556-1.324,8.4,8.4,0,0,1,.758-1.288,7.255,7.255,0,0,1,.782-.886,11.048,11.048,0,0,1,1.26-.985q.85-.591,1.611-1.179a3.479,3.479,0,0,0,.97-.987,2.263,2.263,0,0,0,.248-.68,2.5,2.5,0,0,0,.039-.414,2.948,2.948,0,0,0-.092-.522,2.635,2.635,0,0,0-.357-.823,4.874,4.874,0,0,0-.821-.946,6.4,6.4,0,0,0-1.083-.827c-.354-.209-.669-.377-.942-.5s-.637-.268-1.08-.423-.811-.269-1.09-.341-.528-.13-.747-.172-.521-.09-.9-.143-.687-.084-.921-.1-.57-.016-1.016-.013a13.085,13.085,0,0,0-1.558.118c-.594.076-1.012.139-1.26.19s-.743.2-1.487.445a9.368,9.368,0,0,0-1.406.543c-.2.116-.414.241-.651.377s-.51.308-.832.519-.613.421-.875.631a6.491,6.491,0,0,0-.829.818,5.589,5.589,0,0,0-.843,1.515,9.9,9.9,0,0,0-.5,1.428,10.739,10.739,0,0,0-.148,1.107c-.042.461-.057,1.1-.046,1.914s.046,1.578.1,2.29.124,1.482.22,2.308.17,1.457.219,1.892.106.911.163,1.429.127,1.152.212,1.9.159,1.424.223,2.026.138,1.242.212,1.921.131,1.179.166,1.5.117.918.234,1.784.262,1.787.436,2.76.34,1.79.5,2.45.3,1.2.414,1.607.23.775.333,1.092.251.72.443,1.209.386.959.592,1.407.382.8.524,1.066.319.561.527.9.4.629.573.876.322.448.443.6.382.457.789.912a20.72,20.72,0,0,0,1.5,1.5q.887.815,1.452,1.248c.375.289.811.6,1.313.941s.931.625,1.3.857.867.545,1.487.937,1.122.716,1.5.972.828.586,1.352.99.931.737,1.214,1,.521.492.7.689.375.423.581.676.379.487.528.7.329.5.549.863.407.711.574,1.049.379.853.637,1.545.446,1.247.563,1.661.209.775.28,1.082.212,1.124.421,2.449.333,2.3.372,2.93.06,1.116.06,1.464-.028.9-.085,1.642a17.189,17.189,0,0,1-.262,1.991c-.114.581-.223,1.046-.326,1.394s-.191.618-.259.809-.276.629-.612,1.314a13.873,13.873,0,0,1-1.037,1.785,16.5,16.5,0,0,1-1.285,1.6q-.759.845-1.306,1.362c-.365.344-.712.654-1.03.931s-.683.569-1.073.878-.942.712-1.646,1.208-1.2.832-1.466,1.009-.733.471-1.381.881-1.214.769-1.7,1.077-1.073.71-1.767,1.206-1.2.879-1.512,1.149-.62.559-.917.868a12.474,12.474,0,0,0-.92,1.076,10.08,10.08,0,0,0-.811,1.207,9.333,9.333,0,0,0-.588,1.229,15.037,15.037,0,0,0-.492,1.536,12.51,12.51,0,0,0-.35,1.789,13.67,13.67,0,0,0-.043,2.22,13.419,13.419,0,0,0,.315,2.4,18.409,18.409,0,0,0,.842,2.572,23.843,23.843,0,0,0,1.1,2.452q.515.949.864,1.507t.913,1.369q.563.811.814,1.151t1.3,1.611q1.052,1.271,1.9,2.165t1.816,1.831a18.173,18.173,0,0,0,1.894,1.616,12.712,12.712,0,0,0,2.266,1.285,3.808,3.808,0,0,0,2.23.431,3.061,3.061,0,0,0,1.459-.679,3.767,3.767,0,0,0,.952-1.517,6.047,6.047,0,0,0,.386-2.179,11.823,11.823,0,0,0-.475-2.949c-.318-1.189-.552-1.992-.708-2.408s-.351-.921-.577-1.515-.5-1.334-.818-2.221-.57-1.673-.758-2.357a20.584,20.584,0,0,1-.471-2.14,12.624,12.624,0,0,1-.063-2.891,9.977,9.977,0,0,1,.485-2.728,7.715,7.715,0,0,1,.917-1.737,11.315,11.315,0,0,1,1.041-1.287c.326-.335.658-.65,1-.945s.747-.621,1.207-.978.956-.727,1.483-1.11,1.175-.86,1.951-1.432,1.342-1,1.714-1.287l.928-.716q.372-.287.924-.719c.372-.289.684-.53.938-.724s.552-.409.889-.646.711-.483,1.126-.74.733-.446.959-.569.56-.28,1-.469.8-.334,1.1-.432.651-.194,1.059-.286a9.391,9.391,0,0,1,1.037-.184,7.835,7.835,0,0,1,.8-.047,6.612,6.612,0,0,1,.683.029,5.579,5.579,0,0,1,.552.082,5.348,5.348,0,0,1,.563.151,4.878,4.878,0,0,1,.6.235,5.677,5.677,0,0,1,.854.569,6.834,6.834,0,0,1,.715.59,6.376,6.376,0,0,1,.435.572,7.064,7.064,0,0,1,.57.991,8.3,8.3,0,0,1,.425,1.036,9.175,9.175,0,0,1,.269,1.069q.122.606.18,1.183c.036.384.061.783.071,1.2s0,.884-.028,1.413-.071,1.044-.127,1.546-.131,1.055-.223,1.661-.184,1.162-.269,1.666-.187,1.079-.3,1.724-.205,1.269-.28,1.871-.152,1.3-.23,2.088-.127,1.458-.159,2.005-.042,1.035-.028,1.462a17.669,17.669,0,0,0,.248,2.006,11.051,11.051,0,0,0,.634,2.371,8.46,8.46,0,0,0,1.409,2.189,7.24,7.24,0,0,0,2.163,1.787,9.789,9.789,0,0,0,1.752.761,18.184,18.184,0,0,0,2.333.337,29.485,29.485,0,0,0,3.484.153c1.158-.018,2.319-.039,3.473-.063s2.071-.03,2.737-.019,1.338.033,2.018.065,1.5.087,2.44.165,1.77.157,2.481.239,1.417.169,2.1.261,1.438.191,2.245.294,1.5.177,2.089.222,1.19.075,1.813.091a12.138,12.138,0,0,0,1.572-.044q.632-.069,1.115-.169c.326-.067.673-.152,1.044-.257a8.933,8.933,0,0,0,.967-.324,4.4,4.4,0,0,0,.8-.431,4.763,4.763,0,0,0,.992-1.071,4.7,4.7,0,0,0,.8-1.619,5.165,5.165,0,0,0,.188-1.353,5.749,5.749,0,0,0-.1-.963,6.961,6.961,0,0,0-.287-.978,8.073,8.073,0,0,0-.4-.921q-.191-.364-.542-.893a9.349,9.349,0,0,0-.7-.937c-.234-.272-.481-.536-.747-.793s-.577-.549-.931-.875-.683-.6-.974-.835a6.841,6.841,0,0,0-.981-.642,7.62,7.62,0,0,0-1.14-.5,6.239,6.239,0,0,0-1.338-.29,7.106,7.106,0,0,0-1.547,0,10.282,10.282,0,0,0-1.777.369q-.977.285-1.792.589t-1.788.686q-.977.383-1.894.7c-.609.209-1.321.411-2.125.606a13.488,13.488,0,0,1-2.061.361,8.78,8.78,0,0,1-1.7-.033,6.922,6.922,0,0,1-1.416-.291,5.74,5.74,0,0,1-.882-.369,7.171,7.171,0,0,1-.91-.649,6.75,6.75,0,0,1-1.367-1.849,9.5,9.5,0,0,1-1-2.27,16.745,16.745,0,0,1-.333-1.771q-.117-.879-.149-1.7t-.021-1.664c.007-.56.028-1.215.06-1.967s.067-1.457.1-2.115.089-1.411.152-2.258.142-1.866.23-3.057.156-2.185.2-2.984.071-1.551.085-2.257.007-1.719-.025-3.04-.082-2.452-.159-3.394-.174-1.872-.294-2.79-.276-1.887-.467-2.905-.358-1.853-.5-2.505-.255-1.24-.354-1.765-.212-1.2-.329-2.039-.2-1.581-.241-2.238a17.465,17.465,0,0,1,.021-2.261,15.464,15.464,0,0,1,.2-1.863,11.022,11.022,0,0,1,.283-1.091q.165-.5.382-1.017.68-1.138.875-1.417c.131-.186.442-.582.942-1.189s1-1.2,1.5-1.766.9-1.025,1.172-1.361.556-.7.846-1.1.5-.7.63-.9.294-.478.489-.822.357-.645.481-.9.255-.573.4-.949.276-.745.382-1.106.262-1.083.46-2.164a27.022,27.022,0,0,0,.39-2.862q.1-1.24.159-2.365t.124-2.531q.058-1.407.131-2.6t.2-2.654a28.348,28.348,0,0,1,.545-3.375,17.125,17.125,0,0,1,.906-3.062,7.763,7.763,0,0,1,1.136-1.915,8.057,8.057,0,0,1,1.009-1.06,8.46,8.46,0,0,1,.981-.647,8.715,8.715,0,0,1,1.643-.694c.69-.225,1.292-.428,1.813-.61a5.609,5.609,0,0,0,1.5-.8,2.619,2.619,0,0,0,.921-1.027,3.122,3.122,0,0,0,.237-.962,3.513,3.513,0,0,0-.082-1.014,4.44,4.44,0,0,0-.357-1.015,5.816,5.816,0,0,0-.726-1.06,11.116,11.116,0,0,0-.768-.859,14.494,14.494,0,0,0-1.218-.947q-.94-.68-1.562-1.049c-.414-.245-.733-.428-.952-.547s-.45-.234-.677-.344-.5-.233-.811-.367-.609-.248-.882-.341a9.358,9.358,0,0,0-.927-.258,8.326,8.326,0,0,0-1.611-.127,6.2,6.2,0,0,0-2.128.355,6.338,6.338,0,0,0-1.76.917,7.7,7.7,0,0,0-1.222,1.139,11.844,11.844,0,0,0-1,1.4,17.646,17.646,0,0,0-.875,1.6,16.585,16.585,0,0,0-.733,1.859c-.244.719-.421,1.331-.538,1.835s-.262,1.23-.432,2.177-.375,2.076-.6,3.389q-.154,1.005-.421,2.433c-.177.952-.4,2.047-.648,3.285s-.5,2.333-.726,3.285-.5,1.925-.8,2.917a30.807,30.807,0,0,1-1.189,3.16q-.728,1.671-1.292,2.681t-1.37,2.177a20.023,20.023,0,0,1-2.093,2.5,18.133,18.133,0,0,1-2.11,1.933q-.823.6-1.243.842c-.276.161-.63.342-1.055.54s-.836.374-1.243.526-.85.3-1.345.44-1.1.277-1.806.406-1.15.2-1.331.226-.779.049-1.792.082a21.764,21.764,0,0,1-2.709-.06c-.79-.074-1.328-.134-1.607-.181s-.733-.148-1.363-.3-1-.251-1.119-.286-.361-.12-.744-.254-1.051-.394-2.007-.78l-1.2-.545Q2081.244,120.108,2078.819,118.329Z" transform="translate(-2031.105 -81.907)" fill="#ce86a8" stroke="#ce86a8" stroke-linecap="round" stroke-linejoin="round" stroke-width="0.5"/>
    <path id="STROKE_2d5f07ba-51be-4d46-8e2c-8c5439a62ed3" d="M2277.852,183.422a.657.657,0,0,1-.018.082.7.7,0,0,1-.018.082c-.007.027-.014.054-.021.081a.686.686,0,0,1-.025.081c-.007.027-.018.054-.025.081a.739.739,0,0,0-.028.08l-.032.079a.729.729,0,0,1-.035.079.8.8,0,0,1-.035.078.772.772,0,0,1-.039.078.661.661,0,0,1-.039.076l-.043.076a.779.779,0,0,1-.046.075.729.729,0,0,1-.046.074.674.674,0,0,1-.05.073.748.748,0,0,1-.049.072l-.053.072c-.018.024-.039.047-.057.07s-.039.046-.057.069-.039.045-.06.068l-.064.067a.536.536,0,0,1-.064.066l-.064.065c-.021.021-.046.042-.067.063s-.046.042-.071.062-.046.041-.071.061-.046.04-.074.059a.588.588,0,0,1-.074.058l-.074.057c-.028.019-.053.037-.078.055s-.053.036-.082.054-.053.035-.081.053l-.085.051c-.025.017-.053.033-.081.05l-.089.048-.085.047-.092.045-.088.043-.092.042-.092.04-.1.038-.1.037-.1.035c-.032.011-.063.022-.1.033l-.1.032-.1.03-.1.028-.1.026-.1.024-.1.023-.1.021-.106.019-.106.017-.1.015-.106.013-.106.011-.106.01-.11.008-.106.006-.106,0-.11,0h-.106l-.11,0-.106,0-.11-.005-.106-.007-.106-.009-.11-.011-.106-.013-.106-.015-.106-.017-.106-.018-.106-.021-.1-.022-.106-.024-.1-.026-.1-.028-.1-.029-.1-.031-.1-.033-.1-.035-.1-.036-.1-.038-.1-.04-.1-.041c-.032-.014-.064-.029-.092-.043l-.1-.045c-.028-.015-.06-.03-.092-.046l-.088-.048c-.032-.016-.06-.033-.089-.05s-.06-.034-.088-.051-.057-.035-.089-.052l-.085-.054c-.025-.018-.053-.036-.081-.055s-.056-.038-.081-.057-.053-.039-.082-.058-.053-.039-.078-.059-.053-.04-.077-.061l-.075-.062-.074-.063c-.021-.021-.046-.043-.071-.064s-.046-.044-.067-.065-.046-.045-.071-.067l-.063-.068-.064-.069-.063-.07c-.018-.023-.04-.047-.061-.071s-.039-.048-.057-.072-.039-.048-.057-.073l-.053-.074a.822.822,0,0,1-.05-.075l-.053-.076c-.014-.025-.028-.051-.046-.076l-.043-.077a.867.867,0,0,1-.046-.078.729.729,0,0,0-.039-.079c-.014-.027-.025-.053-.039-.079s-.024-.053-.035-.08-.024-.053-.035-.08l-.032-.081a.672.672,0,0,0-.028-.081c-.007-.027-.018-.054-.025-.081a.7.7,0,0,1-.024-.082l-.021-.082-.021-.083c-.007-.028-.011-.055-.018-.083s-.01-.056-.014-.083l-.01-.084-.011-.084a.688.688,0,0,1-.007-.084c0-.028,0-.056-.007-.084v-.251c0-.028,0-.056.007-.084a.689.689,0,0,1,.007-.083.677.677,0,0,1,.007-.083c0-.028.011-.055.014-.083a.683.683,0,0,1,.014-.082,41.118,41.118,0,0,0,.035-.164c.007-.027.014-.054.021-.081s.018-.054.025-.081.018-.053.025-.08l.032-.08a.663.663,0,0,1,.028-.079.684.684,0,0,1,.035-.079.751.751,0,0,1,.035-.078.771.771,0,0,1,.039-.078.813.813,0,0,1,.039-.076l.042-.076c.014-.025.028-.05.046-.075a.82.82,0,0,1,.046-.074.8.8,0,0,1,.05-.073.794.794,0,0,1,.05-.072l.053-.072c.021-.024.039-.047.056-.07s.04-.046.057-.069.042-.046.06-.068l.064-.067.063-.066.064-.065c.021-.021.046-.042.067-.063s.046-.042.071-.062.046-.041.071-.061l.074-.059.074-.058.074-.057c.028-.019.053-.037.082-.056s.053-.036.078-.054l.081-.053.085-.051c.028-.017.053-.034.085-.05l.085-.048c.028-.016.057-.031.088-.047s.057-.03.088-.045l.089-.043.092-.042.092-.04.1-.039.1-.036.1-.035.1-.033.1-.032c.032-.01.064-.02.1-.03s.063-.019.1-.028l.1-.026.1-.024.1-.023.106-.021.1-.019.106-.017.106-.015.1-.013.106-.011.106-.01.109-.007.106-.006.106,0,.11,0h.106l.11,0,.106,0,.11.005.106.007.106.009.11.011.106.013.106.015.106.017.106.018.106.021.106.022.1.024.1.026.1.028c.035.01.071.019.1.029l.1.031.1.033.1.035c.035.012.067.024.1.036l.1.038.1.04.1.041.1.043.092.045.092.046.089.048.092.05.085.051c.031.017.06.035.088.052l.085.054c.029.018.053.036.082.055s.056.038.081.057.053.039.081.058.053.039.078.059.053.04.078.061l.074.062.074.063c.025.021.046.043.071.064s.046.044.071.065.043.045.067.067l.064.068.064.069.063.07c.021.023.039.047.06.071s.039.048.057.072.039.049.057.073l.053.074.053.075c.014.025.032.05.05.076s.032.051.046.076.031.051.046.077l.042.078a.781.781,0,0,1,.039.079c.014.027.025.053.039.079a.711.711,0,0,1,.036.08c.011.027.025.053.036.08l.032.081a.673.673,0,0,0,.028.081c.007.027.018.055.025.082a.745.745,0,0,1,.025.082.7.7,0,0,1,.021.082l.021.083c.007.028.01.055.018.083s.011.056.014.084.007.055.01.083a.652.652,0,0,1,.01.084.644.644,0,0,1,.007.084c0,.028,0,.056.007.084v.084a.638.638,0,0,1,0,.084,3489.066,3489.066,0,0,1-.007.167.729.729,0,0,0-.007.083l-.011.083a.753.753,0,0,1-.014.083A.682.682,0,0,1,2277.852,183.422Z" transform="translate(-2165.262 -144.664)" fill="#ce86a8" stroke="#ce86a8" stroke-linecap="round" stroke-linejoin="round" stroke-width="0.5"/>
    <path id="STROKE_0ccca4e1-96a1-4f10-89cd-d73a692c003f" d="M2274.247,182a5.356,5.356,0,0,0-.963.538,2.674,2.674,0,0,0-.428.407l-.156.187" transform="translate(-2168.066 -146.564)" fill="#ce86a8" stroke="#ce86a8" stroke-linecap="round" stroke-linejoin="round" stroke-width="0.5"/>
    <path id="STROKE_5913f528-23df-49a8-b252-ad3deb5a2a38" d="M2285.09,191.714l.1-.136c.007-.008.05-.044.131-.107" transform="translate(-2176.069 -152.68)" fill="#ce86a8" stroke="#ce86a8" stroke-linecap="round" stroke-linejoin="round" stroke-width="0.5"/>
    <path id="STROKE_dd4f9e77-2266-4338-8c80-12aec1d367f1" d="M2292.77,164.5c.018-.075.032-.138.042-.192s.039-.144.074-.272.071-.258.106-.392.121-.442.262-.927.291-1,.457-1.551.3-1,.4-1.354.191-.636.251-.845.11-.387.152-.534.106-.377.195-.692.159-.557.208-.727.078-.279.092-.331.071-.247.166-.585.18-.627.248-.867.106-.382.12-.426.032-.128.064-.249.053-.2.06-.248.035-.134.074-.27l.085-.326c.018-.081.078-.317.177-.708s.152-.6.159-.644" transform="translate(-2181.03 -127.414)" fill="none" stroke="#ce86a8" stroke-linecap="round" stroke-linejoin="round" stroke-width="4.85"/>
    <path id="STROKE_dbe4640d-ea4d-4a8b-a68e-e823cede8f94" d="M2303.42,154.813c.068.039.191.114.372.224l.428.263c.1.065.23.147.379.246s.23.152.241.16.1.072.266.19.375.294.645.526a7.553,7.553,0,0,1,.63.6c.156.17.269.3.344.4s.127.17.156.215.088.143.177.295.156.275.2.372.085.207.127.332a3.359,3.359,0,0,1,.12.416c.036.153.06.28.074.383s.021.232.028.387,0,.279,0,.37-.014.2-.028.323a5.359,5.359,0,0,1-.117.578,6.779,6.779,0,0,1-.209.736q-.117.344-.181.5t-.191.43q-.122.276-.192.422c-.046.1-.074.159-.088.184" transform="translate(-2187.909 -129.001)" fill="none" stroke="#ce86a8" stroke-linecap="round" stroke-linejoin="round" stroke-width="8.02"/>
    <path id="STROKE_441454e1-b154-40cc-8bb7-86ee63e31195" d="M2034.483,243.966c.014.023.032.046.046.07l.043.072a.743.743,0,0,1,.039.073.622.622,0,0,1,.039.074c.014.025.025.05.039.075s.025.051.035.077l.032.078.032.079a.7.7,0,0,0,.028.08c.007.027.018.054.025.081a.709.709,0,0,1,.025.083c.007.028.018.056.025.084s.011.056.018.084a.672.672,0,0,1,.018.085c.007.029.011.057.018.086a.771.771,0,0,0,.014.087c0,.029.007.058.01.088a.746.746,0,0,1,.007.089.733.733,0,0,1,.007.089c0,.03,0,.06.007.09v.091a.753.753,0,0,1,0,.091.765.765,0,0,0,0,.092c0,.03,0,.061,0,.092s0,.062-.007.092,0,.062-.007.093-.007.062-.011.093-.01.062-.014.093-.011.062-.014.094-.01.062-.018.094l-.021.094a.467.467,0,0,1-.021.094l-.021.094c-.011.032-.018.063-.028.094a.952.952,0,0,1-.028.094.975.975,0,0,1-.028.094l-.032.094c-.011.031-.021.062-.036.093s-.025.062-.035.093-.025.062-.039.093-.025.062-.039.093l-.042.092c-.014.031-.028.061-.046.092a.969.969,0,0,1-.046.091c-.014.03-.032.061-.046.091l-.053.09c-.014.03-.032.06-.05.09s-.036.059-.057.089l-.053.088c-.021.029-.039.058-.06.087s-.039.058-.057.087l-.064.086c-.018.028-.039.057-.06.085s-.042.056-.067.084l-.064.083c-.021.027-.046.054-.067.082s-.046.054-.071.081-.046.053-.071.08-.046.053-.071.079l-.074.078-.074.076c-.028.025-.053.05-.078.075s-.053.049-.078.074-.053.049-.078.072-.057.047-.081.071-.053.046-.081.069l-.085.068c-.029.022-.053.045-.082.067s-.057.044-.089.065l-.085.064c-.029.021-.057.041-.089.062s-.057.041-.088.061-.057.039-.089.058-.06.038-.089.057l-.092.055c-.028.018-.06.036-.092.053s-.06.035-.092.052-.06.034-.092.05l-.1.048c-.028.016-.06.031-.092.046l-.1.044-.1.042-.1.041-.1.039-.1.037-.1.035-.1.033-.1.031-.1.029-.1.027-.1.025-.1.022-.1.021-.1.018-.1.016-.1.015-.1.012-.1.01-.1.008-.1.006-.1,0-.1,0h-.092l-.1,0-.092,0-.092-.007-.092-.009-.092-.011-.092-.013-.089-.015-.088-.017-.089-.02-.085-.022-.085-.023-.085-.026-.085-.028-.081-.03-.082-.032-.078-.034-.081-.036-.074-.038-.078-.04-.074-.042-.071-.043c-.025-.015-.05-.03-.071-.045s-.049-.031-.071-.047-.046-.032-.067-.049-.046-.034-.067-.051-.046-.035-.067-.052-.039-.036-.06-.055l-.064-.056c-.021-.019-.039-.038-.06-.058s-.039-.039-.057-.059a.78.78,0,0,1-.057-.061l-.053-.063a.726.726,0,0,1-.053-.064l-.053-.066c-.014-.022-.032-.045-.049-.067s-.029-.046-.046-.069-.028-.046-.046-.07l-.043-.072a.716.716,0,0,1-.039-.073.657.657,0,0,1-.039-.074c-.014-.025-.025-.05-.039-.075a.778.778,0,0,0-.035-.077l-.032-.078-.032-.079a.757.757,0,0,0-.028-.08c-.007-.027-.017-.054-.025-.081a.71.71,0,0,1-.025-.082l-.021-.084-.021-.084c-.007-.028-.01-.057-.018-.085s-.011-.057-.018-.086l-.011-.087a.781.781,0,0,1-.014-.088.745.745,0,0,1-.007-.089.732.732,0,0,1-.007-.089c0-.03,0-.06-.007-.09v-.273c0-.03,0-.061,0-.092s0-.062.007-.092,0-.062.007-.093l.011-.093c0-.031.01-.062.014-.093s.011-.062.014-.094a.8.8,0,0,0,.018-.094l.021-.094a.9.9,0,0,1,.021-.094l.021-.094c.011-.031.018-.063.028-.094a.889.889,0,0,1,.028-.094.979.979,0,0,1,.028-.094l.032-.094c.011-.031.025-.062.036-.093s.025-.062.035-.093.025-.062.039-.093.025-.062.039-.093l.042-.092c.014-.031.032-.061.046-.092s.032-.061.046-.091.032-.061.05-.091.032-.06.049-.09.032-.06.05-.09.036-.059.057-.089l.053-.088c.021-.029.039-.058.06-.087s.039-.058.057-.087l.064-.086c.018-.028.039-.057.06-.085s.042-.056.067-.084l.064-.083c.025-.027.046-.055.067-.082s.046-.054.071-.081.046-.053.071-.08.046-.053.071-.079l.074-.078.074-.076c.025-.025.053-.05.078-.075s.053-.049.078-.074.053-.048.081-.072.053-.048.078-.071.057-.046.081-.069l.085-.068c.028-.022.057-.045.081-.067s.06-.044.089-.065l.085-.063c.028-.021.057-.041.089-.062s.057-.04.088-.06.057-.039.089-.058.06-.038.088-.057.06-.037.092-.055.06-.036.092-.053l.092-.052.092-.05.1-.048.092-.046.1-.044.1-.042.1-.041.1-.039.1-.037.1-.035.1-.033.1-.031.1-.029.1-.027.1-.025.1-.023.1-.021.1-.018.1-.016.1-.015.1-.012.1-.01.1-.008.1-.006.1,0,.1,0h.092l.1,0,.092,0,.1.007.092.009.089.011.092.013.089.015.089.017.089.02.085.022.089.023.081.026.085.028c.028.01.057.019.081.03l.081.032.082.034.078.036.074.038c.028.013.053.026.078.04l.074.042c.025.014.049.029.071.043l.074.045.067.047c.025.016.046.032.067.049s.046.034.067.051.046.035.067.052l.064.055c.018.018.039.037.06.056s.039.038.06.058.039.039.057.06a.747.747,0,0,1,.057.061c.018.021.036.041.057.063l.053.064c.014.022.032.044.05.066s.032.045.05.067S2034.469,243.943,2034.483,243.966Z" transform="translate(-2008.929 -185.714)" fill="#ce86a8" stroke="#ce86a8" stroke-linecap="round" stroke-linejoin="round" stroke-width="0.5"/>
    <path id="STROKE_41ebb63e-3462-47b3-b27e-55950a40c0b0" d="M2029.324,252.33a5.331,5.331,0,0,0-.311,1.049,2.683,2.683,0,0,0-.025.589l.021.239" transform="translate(-2010.635 -191.992)" fill="#ce86a8" stroke="#ce86a8" stroke-linecap="round" stroke-linejoin="round" stroke-width="0.5"/>
    <path id="STROKE_c596b02e-5162-4f95-94ca-b7a0cd15f354" d="M2042.661,253.379l-.021-.169c0-.01.007-.066.021-.167" transform="translate(-2019.458 -192.452)" fill="#ce86a8" stroke="#ce86a8" stroke-linecap="round" stroke-linejoin="round" stroke-width="0.5"/>
    <path id="STROKE_9f12b227-a643-4f97-9ad7-9370fbad526a" d="M2033.395,224.667a1.891,1.891,0,0,1-.1-.166q-.042-.071-.138-.244c-.064-.115-.131-.233-.2-.352s-.216-.4-.453-.843-.489-.916-.754-1.42-.482-.919-.651-1.245-.3-.585-.407-.776-.191-.353-.262-.485-.188-.342-.34-.629-.273-.507-.358-.66-.138-.253-.163-.3-.12-.225-.287-.533l-.425-.788c-.12-.217-.188-.346-.213-.385s-.067-.114-.127-.222-.1-.182-.127-.22-.067-.119-.135-.241-.124-.22-.166-.292-.163-.281-.365-.627-.312-.536-.333-.57" transform="translate(-2009.607 -167.018)" fill="none" stroke="#ce86a8" stroke-linecap="round" stroke-linejoin="round" stroke-width="4.82"/>
    <path id="STROKE_5134934f-bc74-4507-aace-797a8853d801" d="M2029.84,213.8c.074-.019.216-.052.418-.1l.489-.109c.12-.027.265-.057.442-.09l.283-.053.319-.046c.2-.029.471-.053.825-.074a7.814,7.814,0,0,1,.868-.01q.34.02.521.049c.12.019.209.034.262.045s.163.04.329.087.3.089.4.127a3.468,3.468,0,0,1,.322.145c.116.059.244.13.375.214s.237.157.319.221a3.653,3.653,0,0,1,.287.257c.11.108.2.2.255.264s.127.152.205.251.181.262.319.491.259.451.361.67.174.378.216.482.092.249.163.437.12.333.152.434.06.164.068.191" transform="translate(-2011.19 -166.786)" fill="none" stroke="#ce86a8" stroke-linecap="round" stroke-linejoin="round" stroke-width="7.98"/>
    <path id="STROKE_16be7b70-4767-42d2-ae96-905337950bb1" d="M2017.829,317.457c-.088.033-.591.208-1.5.524s-1.693.609-2.344.879-1.14.484-1.473.641-.687.334-1.066.53-.885.506-1.529.928a13.831,13.831,0,0,0-1.615,1.22,10.361,10.361,0,0,0-.966.958,7.712,7.712,0,0,0-.556.746,6.4,6.4,0,0,0-.4.681,6.56,6.56,0,0,0-.294.665,5.335,5.335,0,0,0-.375,1.847,5.764,5.764,0,0,0,.06,1.319,5.041,5.041,0,0,0,.315,1.139,6.087,6.087,0,0,0,.623,1.1,6.838,6.838,0,0,0,.789.965,9.226,9.226,0,0,0,1.321.995,12.31,12.31,0,0,0,2.287,1.147,18.641,18.641,0,0,0,2.457.79q1.115.264,1.508.328t.637.1c.167.024.574.076,1.225.155s1.427.175,2.319.286" transform="translate(-1995.593 -234.061)" fill="none" stroke="#ce86a8" stroke-linecap="round" stroke-linejoin="round" stroke-width="6.3"/>
    <path id="STROKE_9f77aa03-fbee-4d9e-97c6-1be98dac346c" d="M1986.984,305.846c-.517.4-1.02.771-1.515,1.125s-.885.638-1.176.852-.864.7-1.735,1.456-1.434,1.275-1.7,1.554a16.769,16.769,0,0,0-1.126,1.378,15.162,15.162,0,0,0-1.08,1.588,12.765,12.765,0,0,0-.825,1.936,11.239,11.239,0,0,0-.609,2.442,9.727,9.727,0,0,0,.053,2.469,12.117,12.117,0,0,0,.418,2c.152.443.294.8.418,1.069s.368.688.719,1.257a13.527,13.527,0,0,0,1.25,1.69,22.807,22.807,0,0,0,1.777,1.82q1.057.983,1.675,1.49c.411.337.772.639,1.08.906" transform="translate(-1977.164 -226.561)" fill="none" stroke="#ce86a8" stroke-linecap="round" stroke-linejoin="round" stroke-width="6.3"/>
    <path id="STROKE_cbd88fe5-f39b-4d0c-ad06-61aaa0c5b66a" d="M2258.29,254.422c.163.014.634.063,1.416.146a21.111,21.111,0,0,1,2.17.338,12.889,12.889,0,0,1,1.856.537,8.325,8.325,0,0,1,1.335.614,6.187,6.187,0,0,1,.687.468,4.04,4.04,0,0,1,.382.363,4.732,4.732,0,0,1,.333.41,5.27,5.27,0,0,1,.411.745,5.736,5.736,0,0,1,.414,1.376,6.74,6.74,0,0,1,.046,1.947,9.982,9.982,0,0,1-.378,1.908,13.083,13.083,0,0,1-.8,1.9c-.361.722-.677,1.3-.953,1.741s-.627.952-1.059,1.543-.97,1.334-1.618,2.231" transform="translate(-2158.758 -193.343)" fill="none" stroke="#ce86a8" stroke-linecap="round" stroke-linejoin="round" stroke-width="6.3"/>
    <path id="STROKE_ea5fbacb-f0f3-4a58-8fa8-e5c541506baa" d="M2271.3,242.515q4.041.584,5.806,1.025a18.441,18.441,0,0,1,2.655.826,13.162,13.162,0,0,1,1.859,1.009,10.894,10.894,0,0,1,1.479,1.1,8.947,8.947,0,0,1,.772.794,7.756,7.756,0,0,1,.605.856,9.006,9.006,0,0,1,.5.884,11.4,11.4,0,0,1,.456,1.5,10.1,10.1,0,0,1,.33,1.973,11.881,11.881,0,0,1,.01,1.216c-.018.264-.05.528-.088.791a16.592,16.592,0,0,1-.521,1.848q-.461,1.454-.573,1.709c-.078.17-.312.635-.7,1.394s-.952,1.719-1.681,2.878l-.79,1.245" transform="translate(-2167.162 -185.652)" fill="none" stroke="#ce86a8" stroke-linecap="round" stroke-linejoin="round" stroke-width="6.3"/>
  </g>
</svg>
