<svg xmlns="http://www.w3.org/2000/svg" width="225" height="138.044" viewBox="0 0 225 138.044">
  <path id="パス_74" data-name="パス 74" d="M13.325,50.444c-.067-1.4-.8-4.835,0-5.834.819-1.033,4.816-1.3,6.187-1.5l16.152-2.379c2.07-.666,1.818-2.023,2.884-3.517a5.916,5.916,0,0,1,4.283-2.375c5.344-.571,5.154,4.14,9.042,3.959l15.7-1.594,16.18-1.076,20.463-.909,8.09-.476c27.839-.043,50.534,1.475,78.045,6.148A255.006,255.006,0,0,1,227,50.287l7.138,2.56c.923.347,2.751.947,3.336,1.737s.471,2.494.471,3.474v3.331L215.1,53.5c-19.982-5.839-39.327-8.752-59.962-10.75l-12.373-.871-7.614-.476h-9.518l-8.09-.471-6.662.471h-10.47l-5.711.457H87.563L93.593,59.01c1.128,3.388,2.494,5.915,2.536,9.518.071,6.42-1.2,7.909-4.135,13.325l-4.431,8.09,16.18,4.283-3.422-10.47c-1.694-5.7-3.95-12.135,0-17.608,2.789-4.05,7.357-4.8,11.988-4.14l31.409,7.3c3.369.838,10.431,1.88,12.8,4.088,4.354,4.064,2.3,13.177-6.134,12.7l-19.035-1.942-8.566-.871,7.015,14.753c.89,1.842,2.513,6.106,3.755,7.414,1.175,1.233,5.106,2.432,6.839,3.079,4.954,1.846,12.678,4.2,16.656,7.362,5.311,4.226,5.8,8.9,7.314,14.981l5.834,23.794c.918,3.674,3.241,10.293,1.746,13.8a7.458,7.458,0,0,1-13.006.942c-1.18-1.77-3.141-7.257-3.993-9.508l-5.987-15.228c-.838-2.094-2.722-7.928-4.388-9.075-1.2-.823-4.992-1.456-6.558-1.775l-11.9-2.575-42.83-9.227c-6.772-1.366-16.818-2.641-21.848-7.414-5.611-5.32-7.533-15.452-9.627-22.757L43.981,65.2l-5.435-18.56ZM69,82.328l9.042-8.566L81.21,69.48l-.842-5.711L78.1,53.3l-1.542-7.138L75.39,43.315H69.955L52.348,45.209ZM30.933,85.883c5.863-.819,11.15.052,14.976,5.011,2.341,3.036,2.67,5.844,2.632,9.518A13.311,13.311,0,0,1,37.6,113.694a13.275,13.275,0,0,1-7.614-.324C16.489,109.207,16.894,89.229,30.933,85.883Z" transform="translate(-12.954 -34.739)" fill="#c78ea9"/>
</svg>
