<svg xmlns="http://www.w3.org/2000/svg" width="223.764" height="225" viewBox="0 0 223.764 225">
  <path id="パス_72" data-name="パス 72" d="M109.432,40.637a21.149,21.149,0,0,1,11.616,1.149c18.261,8.107,11.61,36.363-8.559,35.19C91.275,75.741,88.824,45.534,109.432,40.637Zm-11,76.132c-1.045,3.656-4.157,9.231-5.961,12.838L80.546,152.838l-6.187,12.838c-.6,2.115-.287,4.53-.44,6.725l-1.724,23.231-.783,9.782v6.725l-.55,7.948-1.724,23.231-.776,13.45c-.7,5.5-4.738,8.907-10.283,8.5-6.957-.507-8.039-5.258-8.816-10.943l-1.681-18.341L45.8,217.642c-1.424-19.551-4.866-39.059-4.836-58.69.012-8.914,2.543-12.893,5.857-20.786l11.353-26.9,6.627-15.9c3.234-7.831,4.787-14.024,14.067-16.549,5.4-1.473,12.8-1.229,17.729,1.59,2.977,1.7,10.472,9.109,13.45,11.8l29.345,26.948,13.383,12.282c5.936,6.566,1.528,12.655-3.6,13.309-3.4.44-6.4-1.865-9.17-3.528l-16.507-9.9Zm145.5,18.01a18.722,18.722,0,0,1,19.319,10.112c1.492,3.1,1.5,5.832,1.467,9.17a17.17,17.17,0,0,1-14.061,16.831c-20,3.778-29.883-19.967-15.9-31.986C237.554,136.509,240.415,135.562,243.93,134.779Zm-34.236,49.85c-4.041-1.29-14.275-8.944-18.341-11.787l-16.507-11.359c-1.742-1.241-5.887-3.876-7.128-5.172-4.726-4.952-1.314-13.242,5.906-12.576,3.35.306,11.39,5.484,14.673,7.361l24.454,13.8c3.7,2.1,10.087,5.184,12.838,8.119C217.978,173.655,212.818,177.733,209.694,184.629Zm21.4,44.017c-7.556,13.285-9.47,28.868-26.288,34.217a21.007,21.007,0,0,1-7.336,1.241H92.926c-2.513-.006-4.463.153-6.67-1.314a9.629,9.629,0,0,1-.556-15.314c2.537-2,5.991-2.128,9.06-2.58l17.729-2.647,51.965-7.844,21.4-3.466c6.107-2.109,8.21-8.62,10.852-13.908l11.616-23.843c3.32-6.627,5.7-14.367,13.6-16.635a21.344,21.344,0,0,1,6.114-.483c7.471.1,13.456,5.166,15.626,12.227l2.879,17.118,3.674,25.677,3.472,27.511c-.428,7.471-9.757,9.054-13.517,3.045-1.107-1.761-2.128-6.841-2.788-9.158ZM130.83,236.594l9.751-27.511c1.437-3.864,2.812-9.348,6.169-11.83a12.742,12.742,0,0,1,13.425-.636,45.073,45.073,0,0,1,6.114,4.958l7.948,6.927,6.114,5.38c1.883,1.657,8.877,7.189,9.28,9.268.483,2.519-2.366,4.347-4.39,5.007l-15.284,2.488c-1.6.238-5.276,1.088-6.67.636-1.308-.416-4.438-3.827-6.169-5.08-.581,2.03-1.553,4.879-3.3,6.205-1.559,1.186-5.686,1.541-7.709,1.822Z" transform="translate(-40.961 -40.328)" fill="#c78ea9"/>
</svg>
