<svg xmlns="http://www.w3.org/2000/svg" width="112.85" height="112.415" viewBox="0 0 112.85 112.415">
  <g id="新しいレイヤー_3" transform="translate(0.25 0.25)">
    <path id="STROKE_f5f5c9ca-0207-49a7-9f11-902570de533e" d="M881.007,286.439q-3.538-1.559-5.468-2.32t-2.615-1.006q-.685-.245-2.621-.883t-3.324-1.043c-.92-.27-1.67-.48-2.24-.631s-1.231-.311-1.97-.481-1.22-.276-1.428-.318-.917-.159-2.117-.348-2.018-.306-2.458-.349-.862-.079-1.268-.106-.965-.048-1.677-.063-1.708.019-2.986.1-2.141.157-2.586.222-1,.164-1.67.3-1.23.256-1.689.372-1.058.285-1.8.508-1.33.41-1.77.56-1,.353-1.678.607-1.862.72-3.55,1.4-2.855,1.142-3.5,1.39-1.211.459-1.694.631-1.17.4-2.061.674-1.6.483-2.131.617-1.091.259-1.685.375-1.111.2-1.553.265-1.055.119-1.841.173-1.551.072-2.3.053-1.418-.062-2.014-.129-1.134-.143-1.614-.231-1.032-.212-1.655-.373-1.462-.435-2.518-.821-1.873-.711-2.452-.975-1.231-.582-1.955-.957-1.35-.71-1.877-1.005-1.123-.641-1.79-1.035l-2.087-1.232q-1.088-.641-2.62-1.507t-2.632-1.445q-1.1-.578-2.055-1.047t-3.552-1.551q-2.6-1.083-3.811-1.5t-3-.914q-1.782-.5-2.672-.687t-1.541-.3q-.651-.107-1.374-.183t-1.31-.1q-.586-.021-1.248.015t-1.014.089a8.52,8.52,0,0,0-1.024.247,6.59,6.59,0,0,0-1.072.395,4.834,4.834,0,0,0-.69.412,4.093,4.093,0,0,0-.561.5,3.026,3.026,0,0,0-.649.937,4.57,4.57,0,0,0-.256.752,4.727,4.727,0,0,0-.083,1.367,6.426,6.426,0,0,0,.608,2.173,9.443,9.443,0,0,0,.913,1.739q.348.453.709.847a15.954,15.954,0,0,0,1.233,1.147,26.315,26.315,0,0,0,3.017,2.083q2.144,1.331,3.163,1.859t2.472,1.195q1.453.667,3.906,2.026t3.5,2.015q1.043.657,2.174,1.44t3.215,2.5q2.084,1.716,3.182,2.751t1.719,1.64l1.566,1.528q.945.923,1.333,1.293t1.521,1.388q1.133,1.018,2.2,1.855t2.068,1.487a24.148,24.148,0,0,0,2.436,1.359q1.436.709,1.962.908t1.365.449a23.687,23.687,0,0,0,2.634.548,24.407,24.407,0,0,0,2.848.34q1.053.042,2.123-.007t2.177-.186q1.106-.138,2.108-.33t2.153-.487q1.151-.294,1.512-.4t1.621-.515q1.26-.41,2.516-.858t2.772-1q1.516-.549,2.984-1.05t2.535-.8q1.067-.3,1.8-.47t1.241-.261q.507-.094,1.786-.229t2.346-.145q1.069-.009,2.369.093t2.243.244q.941.142,1.766.34t1.96.561q1.135.364,2.246.8t3.392,1.539q2.28,1.1,4.629,2.368t4.07,2.193q1.728.924,3.232,1.663t2.523,1.171c.682.288,2.141.789,4.387,1.5.061-1.038.1-2.118.106-3.241s-.031-2.318-.113-3.584-.187-2.573-.317-3.919-.266-2.7-.4-4.063-.262-2.7-.372-4.025-.2-2.607-.259-3.857-.1-2.458-.106-3.625S880.976,287.549,881.007,286.439Z" transform="translate(-770.194 -204.255)" fill="#ce86a8" stroke="#ce86a8" stroke-linecap="round" stroke-linejoin="round" stroke-width="0.5"/>
    <path id="STROKE_76083378-2391-4627-99cc-ecb22866bc3e" d="M919.91,293.737q-.635-.141-1.777-.439t-2.14-.6q-1-.305-2.228-.724t-2.318-.816q-1.087-.4-2.036-.764t-1.945-.826q-1-.459-1.754-.829t-1.617-.783q-.86-.413-1.623-.8t-1.767-.909q-1-.525-1.955-1.122t-1.779-1.19q-.828-.594-1.531-1.191t-1.249-1.114q-.546-.516-1.129-1.172a13.852,13.852,0,0,1-1.132-1.471,10.962,10.962,0,0,1-.79-1.323,7.834,7.834,0,0,1-.367-.891,6.846,6.846,0,0,1-.228-.989,5.145,5.145,0,0,1-.061-1.2,4.467,4.467,0,0,1,.182-1.043,3.592,3.592,0,0,1,.271-.671,3.919,3.919,0,0,1,.387-.532,3.612,3.612,0,0,1,.473-.483,4.122,4.122,0,0,1,.463-.327,4.592,4.592,0,0,1,.508-.268,6.484,6.484,0,0,1,.8-.273,7.9,7.9,0,0,1,1.071-.232,11.649,11.649,0,0,1,1.676-.055,15.384,15.384,0,0,1,1.8.113,11.677,11.677,0,0,1,1.443.312q.795.219,1.952.6t2.209.767q1.052.388,2,.773t2.175.866q1.224.48,2.731,1.034,1.531.5,2.86.875t2.448.652q1.12.274,2,.484t1.839.46q.956.25,1.431.388t1.294.433q.819.3,2.121.828t2.27,1.029a16.2,16.2,0,0,1,1.926,1.165,25.7,25.7,0,0,1,2.209,1.779,19.483,19.483,0,0,1,2.171,2.232,17.6,17.6,0,0,1,1.479,2.062c.372.625.781,1.343,1.22,2.155s.982,1.815,1.626,3.01q-1.033.2-2.079.358c-.7.107-1.4.2-2.1.282s-1.418.152-2.13.212-1.435.11-2.161.151-1.463.071-2.209.091-1.5.031-2.271.032-1.54-.007-2.317-.024S920.7,293.772,919.91,293.737Z" transform="translate(-849.471 -203.958)" fill="#ce86a8" stroke="#ce86a8" stroke-linecap="round" stroke-linejoin="round" stroke-width="0.5"/>
    <path id="STROKE_81b8fbfa-8818-4895-a0cf-d5187a617171" d="M828.438,190.152,822,195.918l-.69-8.615-7.453-4.3,7.986-3.325,1.777-8.472,5.643,6.587,8.6-.89-4.533,7.349,3.506,7.9Z" transform="translate(-798.976 -138.382)" fill="#ce86a8" stroke="#ce86a8" stroke-linecap="round" stroke-linejoin="round" stroke-width="0.5"/>
    <path id="STROKE_68fb51f9-5373-4837-bfb4-f7bac25f8911" d="M992.052,222.843l-5.506,3.129.846-6.277-4.668-4.242,6.237-1.139,2.591-5.791,3.017,5.595,6.3.7-4.391,4.558,1.285,6.2Z" transform="translate(-910.277 -162.981)" fill="#ce86a8" stroke="#ce86a8" stroke-linecap="round" stroke-linejoin="round" stroke-width="0.5"/>
    <path id="STROKE_74abcb44-4172-45dd-b804-cbc558822994" d="M896.081,114.792l22.18-15.908q2.1-2.408,2.3-2.75a17.7,17.7,0,0,0,.791-1.828,16.226,16.226,0,0,0,.678-1.933,17.24,17.24,0,0,0,.123-2.26,11.587,11.587,0,0,0-1.926-6.6,11.418,11.418,0,0,0-2.292-2.54,11.259,11.259,0,0,0-3-1.762,6.862,6.862,0,0,0-4.016-.822A11.355,11.355,0,0,0,904.6,80.14a11.533,11.533,0,0,0-2.335,1.9l-.936,1.015A19.152,19.152,0,0,0,898.8,78.81a11.042,11.042,0,0,0-8.544-3.887,11.462,11.462,0,0,0-3.511.495,11.652,11.652,0,0,0-7.463,6.929,20.114,20.114,0,0,0-.727,2.021,19.6,19.6,0,0,0-.1,2.027,11.7,11.7,0,0,0,.374,3.27,12.736,12.736,0,0,0,.76,2.259l.346.69Z" transform="translate(-841.546 -74.921)" fill="#ce86a8" stroke="#ce86a8" stroke-linecap="round" stroke-linejoin="round" stroke-width="0.5"/>
  </g>
</svg>
