<svg xmlns="http://www.w3.org/2000/svg" width="449.405" height="421.488" viewBox="0 0 449.405 421.488">
  <g id="_1" data-name="1" transform="translate(-5.531 -5.514)">
    <g id="新しいレイヤー_4" transform="translate(185.86 183.792)">
      <path id="パス_2" data-name="パス 2" d="M212.52,327.436a1.221,1.221,0,0,0-.1-.229q.007.066-.094-.268l-.035.005q-.37-.666-.237-.425-.535-.787-.474-.687c.04.067.055.092.046.075l-.006-.012-.128-.259q.078.31-.172-.5t-.423-1.53q-.173-.722-.259-1.035c-.058-.209-.115-.4-.173-.584s-.074-.246-.052-.2a2.645,2.645,0,0,0-.133-.462q-.167-.537-.451-1.755t-.416-2.019q-.133-.8-.159-.984t-.089-.581c-.042-.264-.058-.355-.05-.272s0,.016-.037-.2-.054-.4-.063-.544a1.982,1.982,0,0,0-.121-.528,2.715,2.715,0,0,0-.2-.464c-.062-.1-.112-.19-.15-.259s-.044-.075-.018-.015.029.07.011.033-.13-.23-.33-.582a3.662,3.662,0,0,0-.278-.464c-.056-.146-.07-.182-.038-.107s.044.106.037.095-.064-.179-.172-.5-.18-.542-.222-.657-.041-.132,0-.053c-.058-.371-.084-.54-.079-.507q-.126-.807-.082-.526-.139-.894-.094-.6-.125-.8-.079-.507-.117-.752-.1-.671c.01.054.011.059,0,.015a.982.982,0,0,1,0-.2.494.494,0,0,1,.013-.131s0,.012-.009.028.006-.053.05-.2.086-.295.127-.431a.718.718,0,0,0,.05-.2c-.008,0-.013.039-.013.117s.005-.205.016-.85q-.488.149.683-.264a20.79,20.79,0,0,0,2.265-.947,5.643,5.643,0,0,0,1.5-.959,5.405,5.405,0,0,1,.939-.77,6.413,6.413,0,0,1,1.184-.6,13.912,13.912,0,0,0,1.309-.595q.654-.339,1.128-.627t.78-.481q.305-.193.461-.278a.528.528,0,0,0,.194-.149l-.05.088q-.087.151,1.114-.665a10.321,10.321,0,0,0,1.781-1.45,5.476,5.476,0,0,1,.794-.771l.168-.106a3.558,3.558,0,0,1,.339-.3,4.283,4.283,0,0,1,.428-.344c.028-.009,0-.007-.068.005a8.992,8.992,0,0,1,1.3-1.017q1.406-1.036,2.226-1.561a8.44,8.44,0,0,0,1.135-.821c.21-.2.293-.271.247-.22s-.054.059-.029.025.025-.031,0,.006.02-.018.132-.167l.34-.446q.172-.222.155-.2c-.012.013-.017.019-.018.016s.059-.067.18-.192a3.043,3.043,0,0,0,.413-.6q.233-.409.415-.786t.177-.36c0,.012,0,0,.021-.037a.57.57,0,0,0,.04-.12.792.792,0,0,1,.152-.24,1.948,1.948,0,0,0,.19-.878q.054-.7.089-1.139c.024-.29.036-.5.033-.622s-.008-.254-.019-.386-.018-.256-.022-.373a1.01,1.01,0,0,1,.008-.233c.01-.039,0-.038-.036.005s-.035-.094-.005-.411a2.742,2.742,0,0,1,.18-.8,2.18,2.18,0,0,0,.159-.722,3.137,3.137,0,0,1,.036-.415c.008-.011,0-.006-.028.013a2.055,2.055,0,0,1,.066-.647,8.95,8.95,0,0,1,.247-1.159,3.162,3.162,0,0,0,.124-1.017q-.019-.532-.038-.951c-.013-.28-.018-.467-.015-.563s.014-.075.033.062-.061-.4-.242-1.624-.295-2.327-.342-3.325-.093-1.726-.138-2.185-.084-.832-.118-1.117-.062-.495-.084-.63-.041-.264-.058-.389-.019-.126-.005-.007-.038-.208-.152-.981-.278-1.963-.491-3.572-.362-2.778-.448-3.506-.156-1.241-.209-1.537a4.735,4.735,0,0,0-.175-.717c-.064-.181-.1-.267-.093-.257s-.005-.021-.021-.1-.019-.068-.007.019-.029-.125-.117-.636-.15-.879-.184-1.107-.09-.548-.17-.961-.138-.75-.175-1.008-.066-.451-.087-.576-.036-.185-.046-.179.006.02.05.04.014-.172-.088-.576a3.4,3.4,0,0,0-.336-.908q-.184-.3-.317-.488l-.108-.152a.347.347,0,0,0,.026.035s-.03-.036-.092-.1a2.349,2.349,0,0,1-.222-.318c-.086-.142-.129-.21-.128-.2,0-.011-.018-.019-.047-.025,0-.013-.006-.039-.013-.078a.5.5,0,0,1-.121-.2c0-.035,0-.04.018-.016s0,.005-.055-.055a1.866,1.866,0,0,1-.163-.607,1.113,1.113,0,0,1,.07-.771,3.047,3.047,0,0,0,.21-.375.93.93,0,0,1,.117-.209,2.1,2.1,0,0,0,.124-.181,4.276,4.276,0,0,1,.4-.455q.343-.363.65-.69t.316-.346a.808.808,0,0,1,.093-.11c.054-.06.112-.127.171-.2s.084-.1.076-.089.073-.091.245-.319a5.793,5.793,0,0,0,.438-.668c.121-.217.218-.4.29-.557s.143-.313.212-.479.129-.306.178-.422.063-.151.043-.11-.016.032.013-.028.1-.193.23-.4.252-.406.378-.6.187-.292.184-.293-.007.005-.013.021.01,0,.051-.051.166-.261.378-.637.458-.774.74-1.2.518-.755.711-1,.495-.6.9-1.092.848-1,1.315-1.53.815-.93,1.043-1.186a5.451,5.451,0,0,0,.414-.5c.046-.074.1-.167.171-.278s.356-.487.866-1.13.942-1.176,1.3-1.6.635-.747.832-.972.333-.385.413-.48.105-.114.08-.061a4.1,4.1,0,0,0,.451-.574q.488-.655,1.722-2.294a39.983,39.983,0,0,1,2.567-3.083,17.676,17.676,0,0,1,2.676-2.4q1.341-.959,2.04-1.469a16.447,16.447,0,0,1,1.5-.97l1.25-.716q.445-.256.574-.343c.085-.058.11-.071.073-.042a3.877,3.877,0,0,0,.341-.232q.4-.275,1.1-.751t1.438-.878a6.233,6.233,0,0,1,.835-.422,2.7,2.7,0,0,0,.557-.306q.454-.287.622-.415t.511-.355c.23-.15.378-.251.443-.3s.2-.151.414-.3.44-.3.689-.456.464-.281.647-.377.347-.18.492-.252.22-.109.224-.11a.273.273,0,0,0,.047-.03q.04-.029.692-.35t1.472-.665q.82-.344,2.393-1.218a27.045,27.045,0,0,1,3.432-1.588q1.859-.714,3.284-1.176a20.264,20.264,0,0,1,2.5-.661q1.079-.2,1.591-.339t1.034-.3a14.32,14.32,0,0,0,1.581-.641,19.707,19.707,0,0,1,2.781-.964q1.719-.481,2.492-.639a6.413,6.413,0,0,1,1.67-.1q.9.054,1.319.04a6.343,6.343,0,0,1,1.059.074,11,11,0,0,0,1.478.089,8.233,8.233,0,0,0,1.85-.234q1.01-.234,1.382-.3a6.087,6.087,0,0,0,.9-.258q.532-.189.814-.285t.549-.177c.178-.054.31-.092.395-.114l.389-.1q.26-.07.54-.127l.473-.1q.194-.04.492-.113c.2-.049.383-.1.557-.149a1.208,1.208,0,0,1,.47-.053c.14.015.313.038.519.067s.38.059.52.088.251.048.33.056a2.1,2.1,0,0,0,.255.013c.092,0,.1.02.023.061s.117.019.581-.065,1.183-.224,2.16-.419,1.832-.363,2.567-.5,1.47-.275,2.209-.408a14.85,14.85,0,0,1,2.8-.169q1.69.029,2.551.024c.574,0,.917-.012,1.031-.025a7.183,7.183,0,0,1,.867.019q.7.039,1.2.093l.746.079c.161.016.265.028.314.034s.13.011.244.015.323.026.628.066a6.522,6.522,0,0,0,.7.063,7.275,7.275,0,0,1,.744.064q.5.062.908.138c.274.051.468.084.583.1s.172.025.171.026a.2.2,0,0,1-.039-.012q-.037-.012,1.753.249t2.817.462q1.028.2,1.515.292l.751.141c.176.034.344.073.506.119s.183.043.065-.007.036-.029.462.063a7.254,7.254,0,0,1,1.037.29,4.359,4.359,0,0,1,.7.336,2.626,2.626,0,0,0,.306.176s-.006-.013-.032-.029.008.008.1.07a6.309,6.309,0,0,0,.917.373,7.047,7.047,0,0,0,1.288.356q.508.076.782.121c.182.03.339.059.468.085s.255.049.379.068a1.479,1.479,0,0,1,.264.06c.054.021.034.012-.062-.028s.291.075,1.16.342,1.615.5,2.238.708a12.661,12.661,0,0,0,1.593.43q.658.123.951.168c.2.03.356.059.481.085s.271.055.434.086.226.046.188.041a.1.1,0,0,1-.077-.034c-.012-.019.062,0,.22.05s.374.138.647.261.4.181.386.177-.011.005.014.027.008.025-.05.012.528.262,1.759.825,2.223,1.06,2.977,1.492a8.729,8.729,0,0,1,1.633,1.13q.5.481.971,1t.575.641q.107.118.327.33t.158.139c-.04-.049.009-.005.149.131a3.075,3.075,0,0,0,.553.413,5.553,5.553,0,0,0,1.1.45q.752.241,1.234.373t.76.239q.279.109.379.161t.609.255a3.144,3.144,0,0,0,.813.231,3.3,3.3,0,0,1,.766.191,6.848,6.848,0,0,1,1.1.528l.984.565a1.976,1.976,0,0,0,.323.175q-.023-.024.77.377t1.282.632a5.556,5.556,0,0,1,.8.445,2.177,2.177,0,0,0,.3.2.045.045,0,0,0-.008-.021s.023.013.082.052l.34.227c.169.113.254.171.256.175s-.011-.007-.039-.033.009-.005.111.063.228.155.376.263l.286.207a.392.392,0,0,0,.062.043s.159.133.48.407l1.044.888.816.695c.169.144.251.214.248.211s.061.049.19.159.174.145.131.1.026.014.206.167.365.295.556.427l.506.348c.147.1.209.138.184.113l-.027-.026q.011.011.1.07c.056.039.191.13.4.271s.295.19.248.148-.049-.053-.011-.029.149.093.331.209.257.159.229.13-.032-.034-.01-.015.021.018,0-.005.045.021.2.131l.41.293c.119.085.184.13.194.135a.676.676,0,0,1,.082.071c.044.042.145.127.3.255a3.08,3.08,0,0,0,.243.192s.125.117.362.352.42.408.55.522.3.277.513.49.4.417.562.609.255.3.273.325.014.016-.01-.022.026.021.15.18.263.322.414.493.2.2.133.1.073.046.41.46l.888,1.091q.382.47.715.934t.529.736q.2.272.386.524c.127.168.178.241.154.219a1.7,1.7,0,0,0,.168.183,5.469,5.469,0,0,1,.577.829,6.344,6.344,0,0,1,.58,1.214,8.9,8.9,0,0,0,.77,1.544q.561.942.959,1.594t.563.988q.166.335.291.548c.083.142.118.19.106.143s.02,0,.1.151.247.455.513.922a12.819,12.819,0,0,0,.691,1.109q.293.409.614.8t.616.8a3.686,3.686,0,0,1,.247.361.248.248,0,0,1-.047-.161,9.1,9.1,0,0,1,1.026,1.433q1.025,1.536,1.449,2.264a12.144,12.144,0,0,1,.919,2.3,13.729,13.729,0,0,0,.964,2.421q.468.845.846,1.643a10.148,10.148,0,0,1,.5,1.189q.121.393.255.733t.212.5c.052.108.107.227.165.357s.118.272.177.423.086.224.08.217,0,0,.013.022.092.233.233.636.242.725.306.967.132.472.21.691a1.36,1.36,0,0,1,.095.306,2.1,2.1,0,0,0,.12.376,6.173,6.173,0,0,0,.242.612c.069.143.1.21.095.2s.022.051.08.179a5.531,5.531,0,0,1,.241.859q.151.667.255,1.177t.089.387c-.01-.083.011.033.062.347a8.459,8.459,0,0,0,.339,1.26,14.627,14.627,0,0,1,.411,1.449q.147.661.2.965a5.374,5.374,0,0,1,.073.573,7.516,7.516,0,0,0,.132.84q.113.572.364,2.508t.293,2.888q.043.953.182,2.2t.183,1.935a8.258,8.258,0,0,1,.031.829,4.857,4.857,0,0,0,.279,1.031q.292.886.507,1.812a9.291,9.291,0,0,1,.233,1.249,2.944,2.944,0,0,0,.089.592q.071.269.309,2.045a14.05,14.05,0,0,1,.05,3.442q-.186,1.666-.9,4.99T394.576,302q-.2,1.516-.374,2.536a7.368,7.368,0,0,1-.589,1.9,12.059,12.059,0,0,0-.556,1.324,3.451,3.451,0,0,0-.164.691c-.014.163-.025.267-.031.31s0,.033.025-.03-.047.635-.211,2.092-.286,2.694-.368,3.711-.13,1.833-.147,2.449-.027.88-.028.793a6.967,6.967,0,0,0-.227,1.094q-.225,1.225-.437,2.618a17.9,17.9,0,0,1-.588,2.609,20.458,20.458,0,0,1-.812,2.2q-.436.986-1.16,2.866t-1.168,3.331a16.552,16.552,0,0,1-1.069,2.679,21.3,21.3,0,0,1-1.368,2.324q-.744,1.095-1.314,2.021a10.157,10.157,0,0,0-.826,1.588q-.257.663-.4,1.045c-.092.255-.178.483-.255.688s-.114.3-.108.3a.241.241,0,0,0,.028-.045,3.422,3.422,0,0,1-.129.412q-.149.446-.545,1.5t-.735,2.059q-.34,1-.638,1.744a8.821,8.821,0,0,1-.471,1.036c-.115.2-.241.4-.378.615s-.249.376-.338.488-.127.157-.113.135-.132.2-.435.663a15.26,15.26,0,0,1-1.808,2.052q-1.352,1.355-2.145,2.045a9.34,9.34,0,0,1-1.629,1.151,7.227,7.227,0,0,0-1.837,1.613,20.9,20.9,0,0,1-2.249,2.216,26.423,26.423,0,0,0-2.307,2.215q-1.057,1.151-1.976,2.135t-1.293,1.34q-.374.355-.734.741t-.412.431c-.034.031-.037.033-.007.006s-.063.066-.276.281-.529.5-.946.864-1.077,1.009-1.983,1.94-1.607,1.622-2.1,2.07-.863.765-1.105.95-.439.344-.59.475-.294.252-.429.36-.4.354-.794.737a8.946,8.946,0,0,1-1.7,1.227q-1.108.65-2.9,1.784t-3.639,2.441a32.38,32.38,0,0,1-4.274,2.522q-2.428,1.213-3.844,1.847a28.079,28.079,0,0,1-3.663,1.276q-2.247.64-3.585,1.011t-2.073.61q-.736.24-1.411.445t-1.213.362q-.539.157-1.12.3t-1.4.335q-.821.194-1.224.315t-.751.2q-.35.08-.522.114l-.264.054c-.063.013-.158.036-.288.068s-.134.035-.013.011-.247.058-1.1.246-1.887.444-3.094.766-2.1.533-2.676.629-1.017.175-1.317.237-1.139.18-2.515.352-2.71.275-4,.308a14.721,14.721,0,0,1-3.028-.161q-1.089-.21-3.906-.673t-4.233-.771q-1.416-.31-1.82-.411t-1.027-.263q-.623-.162-1.481-.426T288.8,389.8a6.584,6.584,0,0,1-1.237-.588,8.687,8.687,0,0,1-1.422-.933,3.377,3.377,0,0,0-1.243-.64q-.773-.235-1.634-.533a13.341,13.341,0,0,1-1.369-.547q-.508-.245-.936-.431l-.663-.288c-.156-.069-.194-.1-.113-.089s.01-.03-.214-.119-.441-.176-.651-.264-.533-.215-.971-.384-.879-.348-1.324-.538a9.669,9.669,0,0,0-.972-.372,22.341,22.341,0,0,1-2.041-.948q-1.738-.862-3.123-1.669t-2.424-1.386a10.668,10.668,0,0,1-1.639-1.085,7.732,7.732,0,0,0-1.169-.827q-.568-.32-.91-.486t-.616-.332a2.986,2.986,0,0,0-.356-.2,2.17,2.17,0,0,1-.335-.213q-.253-.182-.607-.449t-.623-.483c-.18-.145-.268-.217-.267-.217s-.12-.1-.364-.306a4.293,4.293,0,0,0-.614-.441,4.183,4.183,0,0,1-.527-.352,2.977,2.977,0,0,1-.649-.917q-.371-.7-.595-1.045a11.585,11.585,0,0,0-.9-1.118q-.682-.773-.982-1.2t-.377-.538a1.93,1.93,0,0,0-.18-.229c-.069-.076-.172-.2-.308-.38a4.917,4.917,0,0,0-.629-.64q-.423-.374-.8-.679a4.379,4.379,0,0,0-.707-.48,13.994,13.994,0,0,1-1.253-.833q-.921-.658-1.312-.984t-.9-.744q-.508-.418-.884-.7t-.78-.561q-.4-.275-.466-.307t-.889-.538q-.827-.505-1.392-.925T245.35,361l-.549-.483q-.038-.033-.7-.53a6.49,6.49,0,0,1-.861-.73,9.755,9.755,0,0,0-1-.878,10.034,10.034,0,0,0-1.179-.855,1.529,1.529,0,0,0-.639-.222,4,4,0,0,1-1.3-.919q-1.044-.907-1.784-1.539a9.713,9.713,0,0,0-1.171-.894,7.047,7.047,0,0,1-.646-.428c-.142-.112-.228-.176-.255-.191a4.138,4.138,0,0,1-.334-.293q-.292-.269-.477-.456t-.381-.372a1.835,1.835,0,0,0-.238-.206c-.027-.013-.01,0,.052.035a4.119,4.119,0,0,0-.582-.531q-.675-.586-1.206-1.052t-.8-.751c-.183-.189-.33-.34-.438-.454s-.168-.175-.176-.185l.035.044c.031.039,0,0-.109-.127s-.246-.3-.426-.532-.264-.339-.253-.322a.426.426,0,0,0,.067.072,3.792,3.792,0,0,0-.317-.395,4.64,4.64,0,0,0-.808-.767,4.52,4.52,0,0,0-.8-.487,4.454,4.454,0,0,1-.981-.711q-.623-.549-.873-.807a3.447,3.447,0,0,1-.42-.52c-.113-.175-.228-.347-.341-.515a6.788,6.788,0,0,0-.442-.573c-.181-.213-.272-.317-.272-.314a.168.168,0,0,0,.009.039c.006.023-.028-.043-.1-.2a5.415,5.415,0,0,0-1.135-1.039q-1.025-.808-1.774-1.357a10.96,10.96,0,0,1-1.158-.95q-.409-.4-.592-.545a1.305,1.305,0,0,0-.27-.178,7.207,7.207,0,0,1-.758-.633,7.46,7.46,0,0,1-1.017-1.062c-.23-.31-.356-.48-.38-.511a.633.633,0,0,1-.053-.078l-.2-.321a3,3,0,0,1-.3-.624q-.115-.335-.213-.565t-.195-.491c-.065-.174-.122-.309-.17-.4s-.151-.306-.309-.634-.222-.462-.19-.4.045.082.037.067-.042-.069-.1-.163a4.368,4.368,0,0,0-.4-.481l-.3-.323a.1.1,0,0,0,.019.02l-.088-.093a3.755,3.755,0,0,1-.317-.44c0,.013.007.051.017.113,0-.013-.007-.051-.017-.113,0,.012.005.034.01.065s.011.071.019.12Z" transform="translate(-207.093 -204.78)" fill="#ac6556" stroke="#ac6556" stroke-linecap="round" stroke-linejoin="round" stroke-width="0.5"/>
    </g>
    <g id="新しいレイヤー_1" transform="translate(188.575 185.786)">
      <path id="パス_3" data-name="パス 3" d="M271.741,379.341q-9.408-6.654-15.832-11.261t-12.445-9.273q-6.02-4.668-6.892-5.413t-6.461-6.3q-5.592-5.559-6.636-6.851t-2.23-2.937q-1.185-1.644-2.422-3.632t-2.376-4.236q-1.14-2.25-1.906-4.115t-1.3-3.441q-.532-1.576-1.051-3.538t-.961-4.294q-.442-2.333-.729-5.018t-.351-4.954q-.063-2.267.13-5.639a65.865,65.865,0,0,1,.783-6.959q.591-3.587.975-5.212t1.083-3.851q.7-2.226,1.821-5.169t2.131-5.21q1.009-2.266,2.512-5.255t2.545-4.914q1.044-1.926,2.3-4.142t2.836-4.76q1.58-2.543,3.243-4.927t2.934-4.065q1.27-1.68,3.887-4.743t5.4-5.862q2.783-2.8,4.2-4.059t2.819-2.406q1.4-1.146,4.191-3.143t4.581-3.119q1.793-1.122,3.667-2.155t5.284-2.6q3.409-1.564,6.686-2.768t5.386-1.844q2.109-.641,5.821-1.512t5.081-1.121q1.369-.248,7.6-.9t10.233-.715q4-.06,8.262.214t6.835.62q2.574.344,4.627.733t4.222.925q2.167.537,4.484,1.251t6.062,2.164q3.745,1.45,6.971,3.032t5.23,2.741q2,1.156,3.957,2.444t3.563,2.486q1.609,1.2,2.99,2.354t3.077,2.744q1.7,1.591,3.653,3.689t3.888,4.526q1.932,2.429,3.8,5.2t3.212,5.088q1.341,2.314,2.212,4.026t1.987,4.3q1.116,2.586,2.051,5.192t1.558,4.717q.623,2.11,1.23,4.6t1.139,5.338q.532,2.849.94,6.084t.607,6.019q.2,2.783.267,5.017t.041,4.033q-.024,1.8-.115,3.755t-.379,4.658q-.288,2.7-1.106,7.195a92.343,92.343,0,0,1-2.254,9.407q-1.436,4.914-2.572,7.762t-2.232,5.163q-1.1,2.314-2.132,4.238t-2.24,3.95q-1.206,2.026-2.606,4.146t-2.86,4.152q-1.461,2.031-4.349,5.65t-4.572,5.5q-1.683,1.88-3.417,3.633t-4.079,3.993q-2.346,2.242-4.161,3.86t-3.747,3.125q-1.931,1.5-4,2.9t-4.5,2.776a57.55,57.55,0,0,1-5.346,2.657q-2.914,1.276-6.18,2.367t-6.879,1.911q-3.614.82-6.929,1.26t-6.352.575q-3.035.134-5.372.07t-4.007-.2q-1.671-.135-4.09-.511t-5.615-1.2a54.83,54.83,0,0,1-5.57-1.719,41.571,41.571,0,0,1-4.777-2.167,48.769,48.769,0,0,1-4.5-2.689,48.024,48.024,0,0,1-4.184-3.194,57.064,57.064,0,0,1-4.71-4.6,65.337,65.337,0,0,1-4.97-6.063,74.83,74.83,0,0,1-4.386-6.8q-2.035-3.564-3.538-6.894t-2.532-6.219q-1.029-2.89-1.845-5.94t-1.367-6.26q-.552-3.209-.793-6.4a62.117,62.117,0,0,1-.155-6.38,62.874,62.874,0,0,1,.588-6.844q.5-3.658,1.191-6.545t1.783-6.166q1.095-3.278,2.072-5.564t3.018-6.1q2.041-3.811,3.452-5.948t3.1-4.308q1.69-2.171,3.314-3.974t3.132-3.242q1.507-1.439,2.875-2.59t3.276-2.521q1.907-1.369,4.079-2.656t4.019-2.173q1.846-.888,4.173-1.755a51.262,51.262,0,0,1,5.174-1.6,50.262,50.262,0,0,1,5.6-1.113,49.041,49.041,0,0,1,5.437-.452,45.642,45.642,0,0,1,5.266.163,43.047,43.047,0,0,1,10.315,2.206,41.083,41.083,0,0,1,5.574,2.4,43.953,43.953,0,0,1,4.936,2.92,39.682,39.682,0,0,1,4.2,3.4,41.872,41.872,0,0,1,4,4.243,41.29,41.29,0,0,1,3.133,4.306,39.872,39.872,0,0,1,2.207,4.029,43.251,43.251,0,0,1,1.837,4.651,39.734,39.734,0,0,1,1.268,4.479q.379,1.841.533,3.226t.207,2.94a28.681,28.681,0,0,1-.063,3.12,30.532,30.532,0,0,1-.419,3.235q-.3,1.668-.635,2.855t-.8,2.428a28.055,28.055,0,0,1-1.2,2.688,30.927,30.927,0,0,1-1.968,3.278,35.674,35.674,0,0,1-2.4,3.194,30.329,30.329,0,0,1-2.3,2.426,29.269,29.269,0,0,1-2.518,2.1,34.829,34.829,0,0,1-3.562,2.275,31.343,31.343,0,0,1-3.978,1.948,29.092,29.092,0,0,1-3.773,1.188,29.423,29.423,0,0,1-4.422.69,25.076,25.076,0,0,1-5.07-.1,23.875,23.875,0,0,1-5.059-1.152,23.927,23.927,0,0,1-8.739-5.87,13.1,13.1,0,0,1-3.021-5.858,15.193,15.193,0,0,1-.567-3.454,14.113,14.113,0,0,1,.264-3.045,12.187,12.187,0,0,1,.829-2.732,10.184,10.184,0,0,1,1.5-2.315,8.241,8.241,0,0,1,1.514-1.509,6.826,6.826,0,0,1,1.274-.633,5.012,5.012,0,0,1,1.532-.325,5.914,5.914,0,0,1,1.523.1,6.045,6.045,0,0,1,1.627.641,9.981,9.981,0,0,1,2.279,1.994,46.089,46.089,0,0,1,4.5,7.085" transform="translate(-210.133 -207.013)" fill="none" stroke="#4c4749" stroke-linecap="round" stroke-linejoin="round" stroke-width="5.1"/>
      <path id="パス_4" data-name="パス 4" d="M227.724,294.26c-.146.123-.221.176-.225.159q.216-.06-.428.147.232.46.194.314a7.937,7.937,0,0,1,.975.848,2.1,2.1,0,0,1,.595,1.026,2.97,2.97,0,0,1-.141,1.419,17.917,17.917,0,0,1-.754,2.014,1.463,1.463,0,0,0,.2.136,2.763,2.763,0,0,1,.284.157,1.66,1.66,0,0,1,.22.238,1.189,1.189,0,0,1,.173.542,5.25,5.25,0,0,1,.051.72,1.775,1.775,0,0,1-.192.733,6.7,6.7,0,0,0-.272.643q-.083.243-.138.41c-.037.112-.063.2-.082.262s-.04.136-.063.216-.027.109-.011.083.017-.016,0,.026-.181.418-.507,1.126a7.59,7.59,0,0,0-.636,2.1h-.011q.107-.079-.293.692a13.515,13.515,0,0,1-.741,1.276,4.783,4.783,0,0,0-.465.816c-.083.206-.152.364-.205.476s-.093.187-.116.226-.034.058-.033.057,0,0,.007-.012,0-.007,0,0,0,.008,0,.005-.023.046-.079.151-.1.2-.147.275-.063.111-.059.094a.1.1,0,0,1,.014-.038l-.338.464h.913c-.041.013-.01,0,.094-.025a10.978,10.978,0,0,0,1.451-1.392c-.021.008-.019.113.007.318a2.011,2.011,0,0,1-.368,1.02,7.057,7.057,0,0,1-.624.97,2.29,2.29,0,0,1-.432.4c-.142.1-.21.144-.2.138l.024-.028a1.1,1.1,0,0,0-.108.1.831.831,0,0,0-.159.193c-.024.048-.03.057-.017.028s-.022.06-.109.268-.212.5-.377.888a7.576,7.576,0,0,0,.843-1.074,21.565,21.565,0,0,1,1.478-1.838,4.124,4.124,0,0,1,1.553-1.1c-.072.035-.1.041-.092.02s-.06.019-.213.12a5.9,5.9,0,0,0-.9,1.025,7.766,7.766,0,0,1-2.235,1.788q-.186.261,1.486-1.377c.058-.007.022.034-.106.124s-.183.545-.164,1.365c.292-.092.4-.174.326-.247q.082.272.408-1.442t.792-3.375a13.189,13.189,0,0,1,.884-2.445,9.878,9.878,0,0,0,.7-1.711q.288-.927.664-2.1a17.24,17.24,0,0,0,.524-1.945,13.564,13.564,0,0,0,.171-2.2q.023-1.43-.021-2.238a3.6,3.6,0,0,1,.258-1.557q.3-.749.512-1.344a5.08,5.08,0,0,0,.235-1.529,9.677,9.677,0,0,1,.272-1.981q.248-1.045,1.01-3.782a1.972,1.972,0,0,0,.013.433c.008-.042.005-.041-.01,0a8.443,8.443,0,0,0,.1,1.066,13.129,13.129,0,0,0,.357,1.879,9.784,9.784,0,0,0,1.185,2.388q.137.115-.22-.883t-.548-1.519a3.517,3.517,0,0,1-.21-.719c-.013-.133-.021-.255-.028-.366s-.008-.213-.009-.3v-.222c0-.059,0-.1,0-.133s0-.028-.01.005-.024-.5-.051-1.59-.046-1.925-.055-2.495-.018-.985-.022-1.246a2.823,2.823,0,0,1,.027-.549,2.544,2.544,0,0,1,.323-.616q.042.075.18,2a19.947,19.947,0,0,0,1.15,4.869h.013q-.18.04-.239-1.085a8.42,8.42,0,0,0-.34-2.034,10.649,10.649,0,0,1-.393-1.747q.269.194-.113,2.8a2.5,2.5,0,0,1,.124-.3c-.083.2-.146.352-.19.449" transform="translate(-211.666 -214.932)" fill="none" stroke="#fff" stroke-linecap="round" stroke-linejoin="round" stroke-width="12.203"/>
      <path id="パス_5" data-name="パス 5" d="M219.056,297.063v-.972q0,.5-.15,2.471t-.26,3.378a5.181,5.181,0,0,1-1.2,2.794q-.572-.141,1.252-3.006a7.3,7.3,0,0,1-.728,2.328q-.5.906-.873,1.609h-.022q-.075-.2-.023.3a3.12,3.12,0,0,0,.41,1.151,1.645,1.645,0,0,1,.279,1.05c-.053.268-.058.4-.018.4s-.1.15-.425.446-.453.394-.386.3a2.838,2.838,0,0,0-1.082.778.984.984,0,0,0-.157.8,3.006,3.006,0,0,1,.074.818c-.014.26-.019.388-.014.381a.3.3,0,0,0,0-.1q0-.088,0,.651c-.062,0-.1-.2-.111-.587a3.993,3.993,0,0,1,.523-1.681,9.938,9.938,0,0,0,.677-1.614,6.431,6.431,0,0,1,.28-.856q.143-.338,1.027-2.949t1.634-5.5q.75-2.886,1.094-4.366a10.545,10.545,0,0,0,.333-2.416,3.748,3.748,0,0,0-.172-1.3,1.427,1.427,0,0,1-.123-.733c.025-.247.042-.382.05-.406s-.016.045-.072.208,1.388-3.23,4.334-10.18a.909.909,0,0,0,.3-.347,7.038,7.038,0,0,1,.363-.6q.244-.374.212-.33a.973.973,0,0,0-.088.217q-.055.174.471-1.109a3.355,3.355,0,0,0,.043.507" transform="translate(-210.718 -214.597)" fill="none" stroke="#fff" stroke-linecap="round" stroke-linejoin="round" stroke-width="25.015"/>
    </g>
    <g id="新しいレイヤー_5" transform="translate(19.061 8.898)">
      <path id="パス_6" data-name="パス 6" d="M123.647,243.154a4.98,4.98,0,0,1-.443,1.829,16.52,16.52,0,0,1-1.953,3.77q-1.4,2.11-2.51,3.809t-2,2.8a18.7,18.7,0,0,1-2.561,2.5q-1.676,1.4-3.024,2.688t-2.9,2.781q-1.55,1.491-2.564,2.4t-3.468,3.1a52.3,52.3,0,0,1-5.636,4.331q-3.182,2.14-4.8,3.073a23.854,23.854,0,0,0-3.267,2.3A32.91,32.91,0,0,1,85.156,281q-1.722,1.093-3.212,1.942a15.131,15.131,0,0,0-3.443,3.005q-1.952,2.157-2.976,3.317a18.824,18.824,0,0,1-1.63,1.684,15.243,15.243,0,0,0-1.729,1.968,26.921,26.921,0,0,1-2.546,2.818,21.684,21.684,0,0,1-2.547,2.163q-1.123.787-1.713,1.234a11.182,11.182,0,0,0-.936.776,2.33,2.33,0,0,0-.4.44,2.4,2.4,0,0,1-.531.481q-.479.37-.724.539a2.159,2.159,0,0,1-.339.207l-.082.034c.007,0,.005,0-.005,0s0,0,.021-.016.03-.02.018-.015-.124.058-.333.16-.31.162-.3.178a1.29,1.29,0,0,0-.23.205H61.5c0-.007.049-.12.148-.339" transform="translate(-24.761 -33.981)" fill="#f0f3ed" stroke="#f0f3ed" stroke-linecap="round" stroke-linejoin="round" stroke-width="0.5"/>
      <path id="パス_7" data-name="パス 7" d="M124.889,251.681a2.962,2.962,0,0,1-.049,1.225,6.035,6.035,0,0,1-1.381,2.394q-1.223,1.5-3.1,3.866t-2.728,3.665a9.33,9.33,0,0,1-2.15,2.293,14.72,14.72,0,0,1-2.462,1.562q-1.166.571-3.384,1.578t-5.576,2.966q-3.358,1.958-5.3,3.011a26.938,26.938,0,0,0-4.117,2.827q-2.173,1.773-3.242,2.8a24.336,24.336,0,0,1-3.78,2.709q-2.712,1.68-4.283,2.474a17.1,17.1,0,0,0-2.972,1.912q-1.4,1.119-2.485,1.868a17.5,17.5,0,0,1-2.483,1.411q-1.4.661-2.285,1.115a5.533,5.533,0,0,0-1.4.972q-.515.519-1.872,1.8t-2.308,2.209a18.8,18.8,0,0,1-2.323,1.887,34.66,34.66,0,0,0-2.892,2.292,32.791,32.791,0,0,0-2.482,2.373,10.792,10.792,0,0,0-1.4,1.812q-.444.771-.781,1.319a3.488,3.488,0,0,0-.4.794,5.5,5.5,0,0,0-.1.92q-.034.673-.032.921t.006.656a9.7,9.7,0,0,1-.062,1.052,2.39,2.39,0,0,0,.205,1.249,13.229,13.229,0,0,1,.526,1.406,5.148,5.148,0,0,1,.272,1.268,5.248,5.248,0,0,0,.058.682.9.9,0,0,0,.062.242c.014.017,0,0-.042-.037a3.215,3.215,0,0,0,.347.633q.409.694.95,1.728a17.416,17.416,0,0,0,1.047,1.768q.5.736.9,1.24t.842,1.026q.449.521.8.865a4.983,4.983,0,0,0,.73.6,2.69,2.69,0,0,1,.732.8,9.054,9.054,0,0,0,.72.978,2.343,2.343,0,0,0,.714.6q.347.17.861.38a2.7,2.7,0,0,1,.772.439q.258.229.469.425t.284.267a1.612,1.612,0,0,0,.289.193,1.673,1.673,0,0,0,.563.174,4.348,4.348,0,0,1,1.26.625q.911.571,1.386.841a5.753,5.753,0,0,0,.92.428q.446.158,1.018.308t1.186.371q.615.221,1.273.508t1.3.56q.646.273,1.287.507t1.145.4q.5.167,1.037.366t1.415.493a8.057,8.057,0,0,0,1.344.359q.462.063,1.321.143t1.405.142c.365.042.648.08.848.117s.36.066.479.092l.352.072c.116.022.227.047.334.073s.153.048.138.065.149.061.493.129a5.639,5.639,0,0,0,1.069.106c.37,0,.672,0,.908,0s.507-.009.816-.021.693-.016,1.151-.013.934.012,1.429.025,1.009.041,1.542.081a10.848,10.848,0,0,1,1.464.2,11.552,11.552,0,0,1,1.47.437,5.565,5.565,0,0,0,1.26.338q.456.046.9.116t1.032.178q.587.106,1.033.195t.9.2l1.094.27q.639.157,1.221.257a6.549,6.549,0,0,0,1.32.076,7.542,7.542,0,0,0,1.264-.133,4.579,4.579,0,0,0,.835-.24,3.233,3.233,0,0,1,1.421-.282q.8.009,1.687-.038t1.585-.134q.7-.086,1.351-.194t1.344-.232q.693-.125,1.645-.247t1.711-.192q.76-.068,1.614-.153t2-.087a9.781,9.781,0,0,1,1.954.164q.805.166,1.286.3a10.64,10.64,0,0,0,1.618.254,16.035,16.035,0,0,1,1.676.239q.539.121.781.169c.161.032.276.052.345.059a.8.8,0,0,0,.1.007s.009-.009.033-.021.082,0,.174.046a1.714,1.714,0,0,0,.773-.087q.634-.151,1.355-.4a5.676,5.676,0,0,1,1.109-.285q.387-.042.7-.1c.213-.038.329-.079.348-.123a8.129,8.129,0,0,1,1.529-.347q1.5-.28,2.323-.4a10.257,10.257,0,0,0,1.821-.454q1-.338,1.737-.566a7.538,7.538,0,0,1,2.281-.181q1.545.047,3.482.043a28.723,28.723,0,0,0,4.158-.338q2.22-.332,3.334-.54a23.474,23.474,0,0,1,2.686-.314q1.573-.106,2.3-.23t1.436-.193q.712-.07,1.411-.089a6.727,6.727,0,0,0,1.576-.262,7.083,7.083,0,0,1,1.895-.239q1.017,0,1.685-.012a3.776,3.776,0,0,0,1.466-.379,6.457,6.457,0,0,1,2.027-.486,20.013,20.013,0,0,0,2.187-.328,9.757,9.757,0,0,0,1.334-.353,6.318,6.318,0,0,1,1.289-.271q.915-.123,1.863-.161a13.655,13.655,0,0,0,1.583-.139,4.389,4.389,0,0,0,.824-.181q.19-.08,1.287-.431t1.677-.511a3.776,3.776,0,0,1,.868-.163,2.286,2.286,0,0,1,.41.021,4.384,4.384,0,0,0,.924-.147,9.468,9.468,0,0,1,1.567-.2q.765-.032,1.506-.114a6.766,6.766,0,0,0,1.221-.232,9.991,9.991,0,0,0,1.459-.659q.98-.51,1.411-.748a2.946,2.946,0,0,1,.975-.323q.544-.086,1.634-.335a25.656,25.656,0,0,0,3.01-.968,29.98,29.98,0,0,0,2.9-1.214q.977-.5,1.531-.766a5.181,5.181,0,0,1,.787-.331c.156-.04.281-.077.375-.109a3.765,3.765,0,0,0,.619-.367,7.307,7.307,0,0,0,.74-.548q.263-.229.642-.537t.676-.528a8.123,8.123,0,0,0,.7-.609q.406-.387.632-.608t.352-.36q.125-.138.158-.182c.021-.029.018-.028-.011.006l.2-.245q.248-.295.517-.612t.656-.842q.385-.524.781-1t.573-.709q.176-.233.462-.594a3.244,3.244,0,0,1,.553-.565c.178-.136.348-.269.507-.4s.3-.251.413-.36.18-.168.195-.178.018-.011.008,0a1.659,1.659,0,0,1,.141-.155,2.449,2.449,0,0,1,.18-.181.364.364,0,0,0,.061-.06l.183-.2a2.035,2.035,0,0,1,.177-.181c.021-.015.011,0-.033.03s0-.01.138-.136.272-.242.409-.352a2.363,2.363,0,0,0,.369-.363c.108-.132.154-.187.135-.163s.006-.014.071-.112.182-.263.349-.5.314-.438.444-.61.266-.373.412-.6.264-.421.358-.57a3.382,3.382,0,0,1,.195-.29l.214-.258c.106-.13.126-.174.061-.135s.021,0,.259-.116.445-.46.622-1.031a4.411,4.411,0,0,0,.245-1.425c-.013-.38-.019-.636-.014-.77a.585.585,0,0,1,.056-.277,2.03,2.03,0,0,0-.119-.755,3.547,3.547,0,0,0-.469-1.128,2.782,2.782,0,0,1-.357-.647,3.877,3.877,0,0,0-.186-.5q-.13-.3-.232-.539a3.28,3.28,0,0,0-.171-.356c-.046-.078-.1-.161-.151-.251a.67.67,0,0,1-.09-.181.833.833,0,0,0-.2-.23,3.037,3.037,0,0,1-.48-.989q-.287-.8-.712-1.834t-.665-1.547a7.514,7.514,0,0,1-.334-.813,3.928,3.928,0,0,0-.21-.529,5.735,5.735,0,0,0-.4-.646,15.27,15.27,0,0,0-1.144-1.363q-.863-.949-1.379-1.6a16.832,16.832,0,0,0-1.41-1.515,23.772,23.772,0,0,0-3.148-2.366q-2.255-1.5-3.5-2.3t-1.852-1.143q-.606-.344-2.311-1.508t-4.581-2.978a50.747,50.747,0,0,0-4.551-2.626,17.864,17.864,0,0,1-3.845-2.735,61,61,0,0,0-5.877-4.458q-3.709-2.537-5.645-3.823t-3.2-2.3q-1.261-1.017-2.035-1.528t-2.4-1.8q-1.623-1.29-2.876-2.423a11.367,11.367,0,0,0-3.2-1.96,24.769,24.769,0,0,0-5.2-1.41q-3.251-.582-4.9-.837t-2.543-.48q-.9-.224-2.756-.816a22.043,22.043,0,0,0-3.674-.842,27.362,27.362,0,0,0-2.77-.276q-.951-.025-3.507.045t-5.117.038a30.3,30.3,0,0,1-3.859-.228,7.542,7.542,0,0,0-2.732.111q-1.435.308-2.218.533a10.707,10.707,0,0,0-1.114.368q-.331.141-.548.228t-.356.153c-.093.044-.163.074-.208.091s-.067.021-.066.011,0-.015-.009-.018-.038.046-.09.147a3.231,3.231,0,0,0-.189.648c.028-.226.048-.367.06-.423,0,.022-.01.1-.029.229s-.038.228-.054.293" transform="translate(-24.286 -34.609)" fill="#fff" stroke="#fff" stroke-linecap="round" stroke-linejoin="round" stroke-width="0.5"/>
      <path id="パス_8" data-name="パス 8" d="M207.789,328.291a7.43,7.43,0,0,0,.3.8,8.3,8.3,0,0,0,.409.811,8.132,8.132,0,0,0,.5.761,13.428,13.428,0,0,0,.89,1.034l.419.586a13.909,13.909,0,0,0,.884,1.076,12.738,12.738,0,0,0,.842,1.1,8.079,8.079,0,0,0,.687.679,13.288,13.288,0,0,0,1.161.866l.254.315q.125.167.431.517l.624.7q.315.355.983,1.084a9.484,9.484,0,0,0,.834.811q.39.328,1.219.935a8.587,8.587,0,0,0,.792.524,13.2,13.2,0,0,0,1.215.59,9.64,9.64,0,0,0,.741.663q.579.485,1.392,1.239a13.5,13.5,0,0,1,1.9,2.412q1.088,1.658,2.28,3.6t1.475,2.391a9.709,9.709,0,0,0,.952,1.2,22.752,22.752,0,0,0,2.211,2.032q1.541,1.286,1.784,1.5a10.953,10.953,0,0,0,1.285.841,17.537,17.537,0,0,0,2.684,1.252,13.132,13.132,0,0,1,2.623,1.293,15.148,15.148,0,0,1,1.963,1.6q.981.937,1.7,1.571a14.418,14.418,0,0,0,2.47,1.594,32.7,32.7,0,0,0,4.2,1.871,8.451,8.451,0,0,1,2.855,1.423,15.055,15.055,0,0,0,1.179,1.261q.77.752,2.136,2.3a16.226,16.226,0,0,0,2.685,2.491,36.71,36.71,0,0,0,3.34,2.072,19.327,19.327,0,0,1,3.2,2.16,8.329,8.329,0,0,0,2.942,1.6,34.613,34.613,0,0,1,4.955,2.245,43,43,0,0,1,5.831,3.652,37.23,37.23,0,0,0,4.412,2.934,10.873,10.873,0,0,0,3.728,1.221,8.749,8.749,0,0,1,3.362,1.108,24.689,24.689,0,0,0,3.311,1.622,13.386,13.386,0,0,0,3.42.96,8.5,8.5,0,0,1,2.908.9q1.384.716,2.259,1.187a7.661,7.661,0,0,0,2.266.723,9.221,9.221,0,0,1,2.531.825q1.139.575,2.692,1.507a6.171,6.171,0,0,0,2.968.977,7.015,7.015,0,0,1,2.783.686,12.5,12.5,0,0,1,1.789.954,3.053,3.053,0,0,0,1.378.436,16.3,16.3,0,0,0,2.315.1,8.169,8.169,0,0,1,1.353.021c0,.028,0,.039,0,.035a1.683,1.683,0,0,1,.249.07,4.69,4.69,0,0,1,.481.18c.156.069.3.138.441.211s.278.142.42.21a2.22,2.22,0,0,0,.7.147,9.085,9.085,0,0,0,1.528-.052,14.546,14.546,0,0,1,2.977.149q1.936.245,2.822.448a2.849,2.849,0,0,0,1.57-.031,21.768,21.768,0,0,1,2.237-.561,11.459,11.459,0,0,1,2.7-.29q1.15.036,1.863.088a4.823,4.823,0,0,0,1.817-.328q1.1-.377,2.477-.8a3.7,3.7,0,0,1,1.586-.3.935.935,0,0,0,.708-.071,3.242,3.242,0,0,0,.659-.3q.164-.118.472-.3a5.423,5.423,0,0,1,.948-.409q.639-.224,1.038-.349a2.007,2.007,0,0,0,.7-.378q.3-.252.711-.674a7.566,7.566,0,0,1,.88-.772q.468-.35,1.383-.959t2.487-1.718q1.572-1.108,3.48-2.608t3.98-2.82a16.67,16.67,0,0,0,3.483-2.892q1.411-1.572,2.524-2.975t3.141-3.8q2.027-2.4,3.806-4.927t2.911-4.312q1.132-1.785,3.583-5.522a81.417,81.417,0,0,0,4.428-7.613q1.978-3.875,2.986-6.033a28.233,28.233,0,0,0,1.716-4.894q.707-2.738,2.4-8.354.21-.7.408-1.375t.38-1.317q.182-.643.351-1.258t.322-1.2q.154-.586.294-1.14t.266-1.082q.126-.527.237-1.024t.209-.964q.1-.468.194-.9c.064-.29.129-.569.193-.838s.128-.526.191-.774.143-.54.238-.878.2-.69.328-1.055.247-.688.368-.967.243-.563.364-.85.241-.58.361-.877.236-.6.35-.9.224-.618.331-.935.206-.641.3-.974.186-.674.269-1.023.157-.707.224-1.073.13-.741.186-1.122.105-.748.146-1.1.078-.681.113-.994.072-.609.109-.886.083-.6.139-.956a11.622,11.622,0,0,1,.282-1.257q.2-.717.388-1.257t.327-.941q.135-.4.267-.843t.244-.933q.114-.489.193-1.027t.131-1.051q.052-.511.075-.89c.015-.253.027-.517.035-.8s.012-.568.013-.871,0-.618-.009-.946-.015-.667-.027-1.02-.026-.716-.041-1.093-.03-.757-.046-1.139-.028-.769-.04-1.158-.024-.78-.034-1.174-.018-.791-.025-1.191-.013-.8-.018-1.209-.007-.814-.008-1.225,0-.825,0-1.242,0-.836.009-1.259q.052-5.068.173-7.029t.61-5.205q.488-3.244,1.184-9.6t1.57-12.718a81.075,81.075,0,0,0,.892-8.783q.017-2.42.443-6.464.213-2.022.411-3.832t.381-3.412q.184-1.6.24-3.046t.07-2.491q.012-1.045,0-2.173t-.009-2.488q0-1.361.031-2.954t.094-3.415q.066-1.822.2-3.867t.29-3.649q.158-1.605.307-2.777t.28-2q.13-.827.276-1.552a13.98,13.98,0,0,1,.588-1.931q.442-1.207.824-2.7t.707-2.65q.327-1.162.57-2.081t.486-1.985q.243-1.068.468-2.189t.44-2.295q.216-1.174.425-2.4t.43-2.5q.22-1.273.433-2.326t.537-2.3a9.8,9.8,0,0,1,.728-2.024q.406-.778.825-1.794t.866-2.263q.446-1.247.715-2.048a11.827,11.827,0,0,0,.378-1.337,5.429,5.429,0,0,1,.433-1.216q.324-.679.842-1.709a15.71,15.71,0,0,1,1.449-2.276q.93-1.246,1.6-2.128t1.39-1.817a13.243,13.243,0,0,0,1.2-1.844,11.366,11.366,0,0,0,.858-2.239,16.167,16.167,0,0,1,1.727-4.077q.47-.781,1.116-1.691T432,146.574q.512-.674.891-1.111a7.534,7.534,0,0,0,1.269-2.166q.513-1.29,1.12-2.52t1.489-2.83a28.652,28.652,0,0,1,1.578-2.587,6.82,6.82,0,0,1,1.44-1.545,12.146,12.146,0,0,0,1.612-1.507q.868-.947,1.63-1.692t1.717-1.6a12.509,12.509,0,0,1,1.736-1.338,4.673,4.673,0,0,1,1.671-.634,8.375,8.375,0,0,0,1.569-.414q.677-.26,1.183-.425a4.383,4.383,0,0,1,1.419-.139q.914.024,2.689.134a12.694,12.694,0,0,1,2.771.41,6.591,6.591,0,0,1,.948.312c-.033.007-.034.019,0,.035s.03,0,0-.037a1.475,1.475,0,0,1,.111.157,1.557,1.557,0,0,1,.223.614,5.447,5.447,0,0,1,.036,1.138,4.516,4.516,0,0,1-.092.9,3.1,3.1,0,0,0-.088.7q-.032.536-.027.471c0-.044-.005.043-.027.261a1.911,1.911,0,0,0,.042.642c.05.21.1.423.152.64a1.362,1.362,0,0,1,.037.54,1.12,1.12,0,0,0,.063.536,4.872,4.872,0,0,1,.157,1.012,4.359,4.359,0,0,1-.209,1.576,5.514,5.514,0,0,1-.383,1.061,3.234,3.234,0,0,0-.23,1.025,6.125,6.125,0,0,1-.743,2.022,5.251,5.251,0,0,1-1.112,1.551,2.187,2.187,0,0,0-.493.448,4.809,4.809,0,0,1-.62.693,9.1,9.1,0,0,0-1.176,1.539,24.122,24.122,0,0,0-1.329,2.56,9.939,9.939,0,0,1-1.574,2.535q-.816.891-1.381,1.634t-1.028,1.4a7.9,7.9,0,0,0-.908,1.964q-.444,1.309-.779,2.434t-.718,2.5q-.382,1.373-.565,2.055a2.237,2.237,0,0,0-.14.68c.028,0,.02.088-.022.267s-.077.335-.1.466-.053.308-.083.527-.06.465-.089.74a7.516,7.516,0,0,1-.295,1.237q-.251.827-.5,1.654a14.757,14.757,0,0,0-.43,2.279q-.184,1.451-.166,1.352c.012-.065,0-.042-.033.069s-.072.224-.118.339-.092.26-.141.434a6.454,6.454,0,0,1-.359.863q-.285.6-.607,1.51t-.672,2.136a10.2,10.2,0,0,1-.5,1.5q-.146.267-.35.669a6.35,6.35,0,0,1-.642.966,17.491,17.491,0,0,1-1.218,1.369,8.077,8.077,0,0,0-1.334,1.846,4.659,4.659,0,0,0-.553,1.264,1.355,1.355,0,0,1-.224.611q-.224.389-.409.649t-.368.5c-.122.163-.251.346-.387.545s-.322.476-.557.829-.528.766-.878,1.239a7.018,7.018,0,0,0-.945,2.19,5.753,5.753,0,0,0-.262,2.441,3.616,3.616,0,0,1,.038,1.408,4.408,4.408,0,0,0-.113.451,2.573,2.573,0,0,1-.1.358q-.109.354-.291.822t-.41.947q-.228.478-.4.817t-.322.657c-.1.212-.188.413-.269.6a2.849,2.849,0,0,0-.175.823q-.052.539-.2,1.518t-.255,1.661a18.317,18.317,0,0,0-.08,2.6q.015.961.026,1.771t.025,1.8a6.13,6.13,0,0,1-.054,1.238,2.953,2.953,0,0,0-.087.579,4.12,4.12,0,0,1-.178.871,6.927,6.927,0,0,1-.657,1.41,4.411,4.411,0,0,0-.554,2.009q-.058,1.143-.13,2.845a3.913,3.913,0,0,1-.484,2.164,3.986,3.986,0,0,0-.7,1.669,5.373,5.373,0,0,0-.147,2.059,3.166,3.166,0,0,1-.2,1.7,14.646,14.646,0,0,0-.553,1.662q-.216.809-.406,1.861a10.149,10.149,0,0,0-.171,2.03,10.427,10.427,0,0,0,.373,2.34,4.758,4.758,0,0,1,.108,2.336q-.245.974-.381,1.819t-.256,1.881q-.119,1.037-.252,2.31t-.322,2.779q-.189,1.5-.3,2.693a12.911,12.911,0,0,0-.058,2.071,16.343,16.343,0,0,1-.03,2.151q-.09,1.269-.347,2.925t-.4,3.22q-.143,1.564-.133,3.043t-.084,2.6a11.422,11.422,0,0,1-.43,2.269,8.2,8.2,0,0,0-.367,1.835q-.031.69-.027,1.409t.036,1.7a14.369,14.369,0,0,1-.024,1.662,4.374,4.374,0,0,1-.288,1.26,10.586,10.586,0,0,1-.494,1.066q-.263.489-.816,1.488a6.158,6.158,0,0,0-.711,1.9,12.18,12.18,0,0,0-.156,2.094q0,1.191-.036,2.424t-.119,2.9q-.079,1.668-.133,3.107t-.08,2.645a40.7,40.7,0,0,0,.155,4.648q.208,2.234.423,5.529a28.181,28.181,0,0,1-.125,5.7,14.54,14.54,0,0,0-.1,4.058,7.054,7.054,0,0,1-.159,3.025,19.245,19.245,0,0,1-.977,2.628,4.7,4.7,0,0,0-.507,2.248q.067.993.043,1.895a4.328,4.328,0,0,1-.143.961,7.047,7.047,0,0,1-.38,1.08q-.251.569-.527,1.19t-.582,1.291q-.3.671-.434,1.064a.943.943,0,0,0-.065.565.556.556,0,0,1-.025.4,5.393,5.393,0,0,0-.173.54,2.271,2.271,0,0,1-.406.733,9.424,9.424,0,0,0-.623.931q-.3.508-.663,1.243t-.637,1.35q-.273.616-.444,1.051t-.329.893q-.159.458-.3.912t-.285.9q-.138.448-.277.887t-.287.868q-.149.43-.272.77t-.272.716q-.149.375-.222.606a2.918,2.918,0,0,0-.062.826,4.129,4.129,0,0,1-.1,1.051,4.955,4.955,0,0,1-.354.959q-.243.505-.456,1.035t-.381.928q-.167.4-.348.849t-.352.864q-.172.414-.4.99t-.458,1.217q-.232.641-.48,1.206a10.948,10.948,0,0,1-.526,1.05q-.279.486-.565,1.046t-.581,1.2q-.293.635-.518,1.234t-.389,1.16q-.163.561-.272,1.05t-.165.9a6.156,6.156,0,0,1-.211.935q-.154.521-.344.992t-.347.844q-.157.374-.342.807t-.4.925q-.216.493-.46,1.045-.979,2.21-1.407,3.167a19.484,19.484,0,0,1-1.655,2.749,14.26,14.26,0,0,0-1.742,3.256q-.512,1.465-1.4,3.918a32.7,32.7,0,0,1-1.986,4.492,21.953,21.953,0,0,1-1.47,2.49q-.366.45-.914,1.084t-1.12,1.32a8.575,8.575,0,0,1-1.294,1.255q-.722.568-1.6,1.233a7.915,7.915,0,0,0-1.226,1.081q-.35.417-.887,1.074a12.1,12.1,0,0,0-.776,1.027q-.237.371-.382.635a4.709,4.709,0,0,0-.314.8,5.019,5.019,0,0,1-.57,1.167,5.291,5.291,0,0,1-.8,1.01,9.084,9.084,0,0,0-.791.858q-.393.48-1.07,1.379t-1.193,1.648a7.689,7.689,0,0,1-1.478,1.542q-.966.793-2.41,2.172a6.34,6.34,0,0,0-1.671,2.1,4.958,4.958,0,0,1-1.09,1.688,7.047,7.047,0,0,1-1.986,1.555,5.478,5.478,0,0,0-1.663,1.237,20.356,20.356,0,0,1-1.926,1.876,13.77,13.77,0,0,1-2.974,2.025q-1.589.8-3.311,1.57a9.21,9.21,0,0,0-2.524,1.536,11.712,11.712,0,0,1-2.531,1.672,12.934,12.934,0,0,1-3.883,1.277,14.106,14.106,0,0,0-2.036.4c.079.021.073.046-.017.075s-.242.079-.454.147-.458.144-.74.227a9.533,9.533,0,0,1-1.1.237,5.222,5.222,0,0,1-1.161.081q-.481-.031-1.3-.034a6.348,6.348,0,0,0-2.066.437q-1.243.439-2.935,1.129a9.511,9.511,0,0,1-3.263.745q-1.572.055-4.348.294-1.387.119-2.736.248t-2.656.265q-1.309.137-2.159.246t-1.437.23q-.588.122-.981.188t-.909.172a7.92,7.92,0,0,1-1.448.117q-.931.011-1.829,0t-2.07-.046q-1.172-.034-1.989-.053t-1.273-.023q-.457,0-1.253-.029t-1.931-.088q-1.138-.06-2.435-.174t-2.765-.306a25.437,25.437,0,0,0-2.547-.224,6.938,6.938,0,0,0-1.771.132q-.69.163-1.431.342t-1.535.38a15.079,15.079,0,0,1-1.524.306,14.915,14.915,0,0,1-1.733.131,13.888,13.888,0,0,0-2.161.243,15.891,15.891,0,0,0-1.729.4,4.619,4.619,0,0,1-1.5.15,19.383,19.383,0,0,0-2.174.074,21.277,21.277,0,0,0-2.281.3q-1.032.2-1.718.323t-1.305.224q-.619.1-.993.2a11.509,11.509,0,0,0-1.25.458q-.878.36-1.617.632t-1.638.564q-.9.291-1.809.669t-1.834.843q-.923.465-1.795.973t-1.687,1.068a18.526,18.526,0,0,1-1.645,1.01,17.291,17.291,0,0,1-1.67.8q-.419.172-.928.373t-.956.372l-.768.293-.663.25-.707.264-.75.278q-.387.143-.75.263t-.7.221q-.342.1-.659.177t-.761.161a6.947,6.947,0,0,1-.944.109,4.642,4.642,0,0,1-.909-.035l-.741-.11-.714-.109c-.255-.038-.48-.08-.677-.124s-.263-.055-.194-.03-.069.029-.411.017-.574-.016-.7-.012-.218.011-.282.016a1.837,1.837,0,0,1-.314-.013c-.146-.013-.3-.029-.479-.048s-.388-.033-.642-.046-.554-.02-.9-.021a11.2,11.2,0,0,0-1.182.068,10.925,10.925,0,0,0-1.2.188l-.9.2q-.364.082-.73.14c-.244.039-.479.068-.707.085a6.441,6.441,0,0,1-.812,0,3.461,3.461,0,0,1-.87-.155,4.172,4.172,0,0,1-.722-.3,4.7,4.7,0,0,1-.7-.478,7.946,7.946,0,0,1-.69-.625q-.316-.323-.542-.557l-.47-.482q-.243-.249-.477-.466t-.574-.493a6.284,6.284,0,0,0-.753-.525,6.6,6.6,0,0,0-.783-.409,7.479,7.479,0,0,0-.845-.3,3.638,3.638,0,0,1-.924-.427,2.125,2.125,0,0,1-.7-.706c-.165-.28-.289-.492-.372-.636a.789.789,0,0,1-.117-.253,1,1,0,0,0-.2-.288l-.274-.341a2.534,2.534,0,0,0-.28-.271,1.963,1.963,0,0,0-.437-.294q-.23-.111-.468-.235t-.56-.294a1.953,1.953,0,0,1-.563-.448,2.43,2.43,0,0,1-.4-.659q-.158-.383-.253-.579a.619.619,0,0,0-.122-.206l-.221-.074-.546-.182-.595-.2c-.161-.053-.3-.1-.431-.136s-.18-.054-.159-.046.023.005,0-.006-.135-.064-.345-.162a1.516,1.516,0,0,1-.588-.534,2.92,2.92,0,0,0-.518-.589,2.545,2.545,0,0,0-.556-.341,4.126,4.126,0,0,0-1.193-.353q-.575-.071-.465.01c.074.054.038.065-.107.034l-.381-.079c-.108-.022-.25-.054-.424-.092a4.461,4.461,0,0,1-.786-.3q-.524-.24-1.3-.552a3.364,3.364,0,0,0-.629-.24c.1.047.064.047-.1,0a2.616,2.616,0,0,0-.694-.076q-.454,0-1.229-.049a2.336,2.336,0,0,1-1.052-.229,5.6,5.6,0,0,1-.626-.49c-.231-.2-.314-.289-.249-.254s0-.049-.189-.253a1.341,1.341,0,0,0-.749-.393,9.763,9.763,0,0,1-1.175-.323,1.788,1.788,0,0,1-.869-.47c-.105-.157-.155-.229-.147-.213s-.011-.005-.054-.059-.166-.189-.368-.406a1.358,1.358,0,0,0-.9-.385l-1.754-.182a6.633,6.633,0,0,1-1.18-.168c-.013-.03-.064-.061-.153-.1s-.2-.079-.324-.131a2.023,2.023,0,0,1-.487-.332,2.081,2.081,0,0,0-1.208-.274q-.911-.021-2.5-.071a13.212,13.212,0,0,0-1.4-.024c.128.017.162.029.1.036l-.065.006a.659.659,0,0,0-.109,0c-.089,0-.21.011-.361.021a4.145,4.145,0,0,0-.729.152,9.456,9.456,0,0,0-1.358.534q-.855.4-.938.584t-1.052.432q-.969.244-2.408.7a5.354,5.354,0,0,0-2.164,1.175q-.722.714-.73.736a.9.9,0,0,1-.13.141,1.805,1.805,0,0,1-.441.273q-.319.154-.8.348a6.847,6.847,0,0,0-1.254.739q-.387.272-.921.724t-1.214,1.086q-.681.634-1.57,1.326t-1.988,1.444a8.194,8.194,0,0,1-2.024,1.058,4.084,4.084,0,0,1-2.056.09,3.671,3.671,0,0,0-1.728-.02q-.6.194-1.777.547a4.006,4.006,0,0,1-1.24.285c-.04-.046-.07-.055-.088-.028s-.184.014-.5-.041a3.9,3.9,0,0,1-.684-.166,1.407,1.407,0,0,1-.375-.216c-.11-.089-.319-.238-.629-.446a2.625,2.625,0,0,0-1.043-.41,2.09,2.09,0,0,1-1.034-.493q-.454-.394-.393-.3c.041.063.029.067-.036.009s-.176-.147-.332-.266-.347-.255-.573-.409-.423-.294-.589-.421-.4-.312-.712-.555-.695-.524-1.161-.843a4.494,4.494,0,0,0-1.053-.587,2.529,2.529,0,0,1-.954-.9,6.023,6.023,0,0,1-.781-1.243q-.181-.452-.188-.381c-.005.047-.011.071-.015.071s-.008-.006-.009-.016-.059-.1-.173-.279a5.831,5.831,0,0,0-.349-.484l-.48-.6a2.1,2.1,0,0,0-.285-.334q.017.042-.067-.1a5.556,5.556,0,0,0-.43-.549q-.346-.409-.957-1.053a5.619,5.619,0,0,0-1.577-1.129q-.966-.486-2.214-1.23a24.214,24.214,0,0,1-2.38-1.619,4.412,4.412,0,0,0-1.951-.983,8.038,8.038,0,0,0-1.7-.041q-.876.07-1.689.163t-1.863.273q-1.051.181-2.156.341t-2.262.321q-1.156.162-2.308.345t-2.3.356a13.2,13.2,0,0,0-2.053.465,10.752,10.752,0,0,0-1.913.848q-1.006.556-1.983,1.079a13.446,13.446,0,0,1-1.8.82,16.773,16.773,0,0,1-1.835.53q-1.006.233-1.938.454t-1.784.436a16.863,16.863,0,0,0-1.76.555q-.907.339-1.869.8a12.737,12.737,0,0,1-1.858.733,11.366,11.366,0,0,1-2.14.391,3.648,3.648,0,0,0-2,.733q-.752.612-1.626,1.237a13.213,13.213,0,0,1-1.207.8,6.365,6.365,0,0,1-1.022.391c-.46.143-.682.188-.669.133s-.256-.077-.808-.069-1.041.034-1.465.076a4.962,4.962,0,0,0-1.216.272q-.578.209-1.171.386a6.32,6.32,0,0,1-1.818.146q-1.223-.032-1.8-.038t-.965.005q-.39.012-1.346,0t-2.716.057q-1.761.07-3.156.075t-1.984.049c-.392.03-.709.042-.95.036s-.341-.008-.3-.005-.047,0-.265-.007a2.734,2.734,0,0,1-1.723-.648,15.511,15.511,0,0,1-1.677-1.427,5.782,5.782,0,0,1-1.388-1.834,2.568,2.568,0,0,0-.712-1.1,8.2,8.2,0,0,0-.941-.529,1.38,1.38,0,0,1-.761-.859,8.106,8.106,0,0,1-.251-1.553q-.083-.988-.181-1.949t-.241-2.229a15.293,15.293,0,0,1-.1-2.258,6.835,6.835,0,0,1,.253-1.708q.216-.717.48-1.663t.574-2.123q.31-1.176.435-1.977a4.455,4.455,0,0,0,.063-1.224,4.327,4.327,0,0,1,0-1.019,10.785,10.785,0,0,1,.231-1.365q.175-.768.367-1.808t.4-2.351q.209-1.312.411-2.518t.4-2.309q.194-1.1.366-2.174t.285-1.851q.113-.781.209-1.414t.213-1.382q.117-.748.255-1.61t.3-1.838q.159-.975.285-1.848t.219-1.644q.093-.771.153-1.439t.1-1.517a14.6,14.6,0,0,1,.214-1.828,11.341,11.341,0,0,1,.466-1.808q.292-.828.578-1.73t.5-1.6q.213-.7.447-1.485t.481-1.671q.247-.882.507-1.857t.531-2.043q.271-1.068.55-2.231t.538-2.171q.259-1.006.5-1.858t.453-1.546q.217-.7.514-1.5a17.023,17.023,0,0,0,.561-1.927,18.166,18.166,0,0,0,.385-2.286q.122-1.167.324-2.354t.515-2.383a20.311,20.311,0,0,1,.734-2.275,14.208,14.208,0,0,1,.98-2.03,15.5,15.5,0,0,0,.944-1.876,10.776,10.776,0,0,0,.586-1.83,17.277,17.277,0,0,1,.574-1.973q.374-1.068.915-2.3t.911-2.039q.371-.805.677-1.37t.253-.38l.115-.4a6.913,6.913,0,0,1,.413-1.083,1.965,1.965,0,0,1,.3-.521q.055-.021.788-.13t1.779-.272q1.047-.164,1.9-.306t1.86-.316q1.008-.176,2.172-.382t2.156-.385l1.694-.306,1.444-.262,1.525-.276,1.607-.291,1.689-.305,1.771-.322,1.853-.335,1.934-.351,2.017-.364,2.1-.381,2.181-.394,2.263-.41,2.345-.423,2.427-.44,2.508-.454,2.591-.468,2.591-.469,2.508-.453,2.425-.439,2.343-.424,2.262-.409,2.178-.394,2.1-.379,2.014-.364,1.932-.349,1.849-.335,1.766-.32,1.685-.3,1.6-.29,1.52-.275,1.437-.26,1.683-.3,2.134-.387,2.133-.387,1.8-.327,1.8-.327,1.632-.3q.65-.119.641-.119h-.071a12.184,12.184,0,0,0-1.606.054q-.7.078-1.063.137a2.022,2.022,0,0,1-.68,0c-.214-.037-.257-.038-.133-.005s-.071-.042-.584-.225a6.348,6.348,0,0,1,3.493,1.126,14.925,14.925,0,0,0,1.64,1.271,4.222,4.222,0,0,1,.95.774,2.709,2.709,0,0,1,.448.642c.071.167.169.37.293.607s.277.549.46.939a5.624,5.624,0,0,1,.416,1.294q.143.71.243,1.494c.067.523.13.78.189.771s.063-.019.007-.031.022.043.234.163.426.242.643.364.52.295.908.522a14.111,14.111,0,0,1,1.475,1.04,4.457,4.457,0,0,1,1.27,1.442,10.409,10.409,0,0,0,1,1.57,13.739,13.739,0,0,0,1.823,1.882q1.2,1.055,1.431,1.26a12.045,12.045,0,0,1,.869.931" transform="translate(-27.574 -21.488)" fill="#fff" stroke="#fff" stroke-linecap="round" stroke-linejoin="round" stroke-width="0.5"/>
      <path id="パス_9" data-name="パス 9" d="M70.072,156.971q-.084.131.056-.046a6.27,6.27,0,0,1,.51-.536,3.254,3.254,0,0,1,.387-.353c.011,0,.01,0,0-.021s-.018.013-.014.092.111.018.321-.184.526-.524.95-.966.785-.836,1.087-1.184a12.162,12.162,0,0,0,.853-1.105q.4-.584.934-1.377a7.88,7.88,0,0,1,1.526-1.616,8.457,8.457,0,0,1,2.046-1.277q1.051-.453,1.916-.777a10.564,10.564,0,0,1,1.6-.473q.738-.149,1.412-.353a4.18,4.18,0,0,0,1.466-.9q.792-.69,1.834-1.645t1.65-1.542a6.629,6.629,0,0,0,.99-1.185,3.4,3.4,0,0,1,.922-.975,7.623,7.623,0,0,1,1.368-.729,10.562,10.562,0,0,1,1.684-.557A10.738,10.738,0,0,1,95.307,139q.883-.063,1.773-.2t1.789-.347q.449-.106.908-.24t.928-.3q.47-.165.95-.357t.97-.415a9.826,9.826,0,0,1,1.024-.4q.535-.177,1.114-.308t1.2-.219q.623-.087,1.292-.133t1.265-.091q.6-.046,1.122-.09t.979-.09l.837-.084a7.441,7.441,0,0,0,1.428-.3,5.717,5.717,0,0,0,1.222-.553,6.509,6.509,0,0,1,1.242-.576,8.244,8.244,0,0,1,1.489-.357,10.438,10.438,0,0,1,1.5-.123,6.529,6.529,0,0,1,1.259.107,4.117,4.117,0,0,0,1.152.057q.582-.052,1.02-.122t.931-.171q.49-.1.941-.191t1.064-.224q.614-.134,1.268-.347a3.982,3.982,0,0,1,1.3-.206,3.7,3.7,0,0,1,1.276.246q.632.239,1.124.389t1.016.264a2.107,2.107,0,0,0,.872.039,3.1,3.1,0,0,1,.644-.074,2.09,2.09,0,0,0,.582-.081,4.886,4.886,0,0,1,.7-.134q.419-.054,1.068-.11a6.2,6.2,0,0,1,1.333.034,7.7,7.7,0,0,1,1.4.323,7.274,7.274,0,0,0,1.394.318q.674.082,1.169.105t1.036.016q.54-.008,1.1.013t1.135.068q.578.047,1.172.123t1.208.18q2.453.415,4.124.749a10.035,10.035,0,0,1,3.128,1.189,14.625,14.625,0,0,0,2.287,1.148,11.2,11.2,0,0,0,2.381.465,13.089,13.089,0,0,1,3.1.741q1.545.571,2.4.928a2.655,2.655,0,0,1,1.055.643,1.65,1.65,0,0,0,.713.5q.508.216,1,.4t1.267.428q.77.244,1.115.356t.892.289q.548.176,1.332.433t1.282.418l.76.244a1.308,1.308,0,0,0,.627.02,5.917,5.917,0,0,1,2.089.743,24.486,24.486,0,0,1,2.6,1.366,6.4,6.4,0,0,1,1.311,1.042,6.925,6.925,0,0,0,.651.661c.145.119.212.163.2.132s-.034-.02-.069.033.348.247,1.147.579a17.3,17.3,0,0,0,2.955.878q1.757.381,2.82.691t1.968.576a20.785,20.785,0,0,0,2.282.5q1.379.236,2.444.508t1.645.4a8.114,8.114,0,0,0,1.088.176,3.4,3.4,0,0,0,.745.007,1.646,1.646,0,0,1,.575.035,5.3,5.3,0,0,1,.585.155l.318.107.351.112-.456-.147-.614-.2a4.441,4.441,0,0,0-1.181-.421q-1.241-.374-2.447-.754a4.992,4.992,0,0,1-2.364-1.954q-1.156-1.574-2.493-3.6a18.063,18.063,0,0,1-2.005-3.932q-.669-1.907-1.372-3.5a11.124,11.124,0,0,1-.893-3.253q-.189-1.66-.251-2.575a12.389,12.389,0,0,1,.209-2.613q.272-1.7.463-3.084a13.139,13.139,0,0,1,.51-2.345q.319-.958.717-2.17t.875-2.332a14.434,14.434,0,0,0,.594-1.554q.117-.434.479-1.574a11.049,11.049,0,0,1,.821-1.976q.46-.836,1.406-2.927a20.429,20.429,0,0,1,1.964-3.5q1.018-1.411,2.5-3.283t2.189-2.875a19.017,19.017,0,0,1,1.652-2.005q.939-1,1.5-1.669a16.068,16.068,0,0,0,1.189-1.637q.623-.967,2.5-3.542t2.885-3.8q1.008-1.222,2.341-2.879a13.2,13.2,0,0,1,2.2-2.289q.864-.631,2.739-2.12a19.421,19.421,0,0,0,1.571-1.373,7.148,7.148,0,0,0,.967-1.144,6.55,6.55,0,0,1,.9-1.073,13.425,13.425,0,0,1,1.358-1.158q.795-.6,1.4-1.1t1.012-.917a2.353,2.353,0,0,1,.881-.578,2.05,2.05,0,0,1,1-.087,9.839,9.839,0,0,0,1.123.111q.592.025,1.241.005a9.535,9.535,0,0,1,1.432.078,11.238,11.238,0,0,1,1.69.352q.906.257,1.6.531t1.185.509a5.13,5.13,0,0,0,1.026.363,5.3,5.3,0,0,0,1.108.138q.576.012,1.249-.012t1.453-.1q.792-.077,1.712-.207t1.961-.249q1.041-.119,1.9-.256t1.5-.257q.642-.12,1.473-.21t1.835-.17a18.606,18.606,0,0,0,2.038-.276,11.871,11.871,0,0,0,2.107-.616q1.073-.42,1.893-.806t1.67-.819a7.98,7.98,0,0,0,1.6-1.086,5.945,5.945,0,0,0,1.173-1.334q.422-.682.7-1.059t.363-.51c.056-.089.1-.157.138-.2s.121-.173.256-.378.269-.413.4-.625.291-.439.47-.679.365-.479.56-.716.342-.412.442-.526.172-.194.217-.241l.213-.228q.147-.155.625-.682t.9-1.007a13.6,13.6,0,0,0,.878-1.144,11.09,11.09,0,0,0,.791-1.313,13.428,13.428,0,0,0,.565-1.262q.235-.611.4-1.074t.338-.912a5.306,5.306,0,0,0,.262-.984q.091-.534.2-1.041a2.859,2.859,0,0,0,0-.821q-.054-.571-.106-1.063t-.119-1.1q-.068-.6-.1-1.161t-.047-1.327q-.011-.77.056-1.652t.172-1.575q.1-.691.295-1.464t.316-1.456q.125-.683.281-1.559a4,4,0,0,0-.04-1.676q-.2-.8-.4-1.774t-.389-1.989a6.305,6.305,0,0,0-.5-1.665,11.781,11.781,0,0,0-.866-1.44,8.432,8.432,0,0,1-.8-1.373q-.257-.586-.4-.909t-.352-.861q-.208-.538-.419-1.013t-.507-1.063a9.57,9.57,0,0,0-.663-1.121q-.366-.532-.817-1.1t-.826-.976q-.375-.41-.816-.859l-.863-.881q-.422-.431-1-1.061t-1.227-1.377q-.645-.746-1.272-1.375a11.344,11.344,0,0,0-1.265-1.106,14.167,14.167,0,0,0-1.441-.934,11.063,11.063,0,0,0-1.479-.718q-.678-.261-1.5-.5t-1.6-.426q-.784-.181-1.511-.338t-1.383-.3q-.657-.147-1.519-.357t-1.813-.414a16.9,16.9,0,0,0-1.7-.285q-.749-.082-1.266-.118t-.965-.036a6.342,6.342,0,0,0-1.083.113,12.941,12.941,0,0,1-1.411.163q-.779.05-1.354.074t-1.21.033a4.332,4.332,0,0,0-1.443.314q-.808.3-1.458.595t-1.416.643q-.765.353-1.457.629t-1.309.489q-.616.213-1.156.38t-1.231.357q-.691.191-1.541.381t-1.627.328a6.336,6.336,0,0,0-1.511.459,7.281,7.281,0,0,0-1.422.846q-.689.52-1.166.945a6.46,6.46,0,0,0-.743.758q-.265.332-.682.874t-.983,1.292q-.567.75-1.253,1.637t-1.5,1.911a15.723,15.723,0,0,0-2.5,4.55,57.929,57.929,0,0,0-1.767,6.464,42.985,42.985,0,0,1-1.618,5.83,10.154,10.154,0,0,0-.77,3.451A26.468,26.468,0,0,0,204.048,52a21.371,21.371,0,0,1,.356,4.431,6.034,6.034,0,0,0,.856,3.3q.958,1.744,1.59,2.784a3.843,3.843,0,0,1,.645,1.882,10.257,10.257,0,0,1-.371,2.413,5.536,5.536,0,0,1-.339.932q-.243.539-.535,1.053t-.524.894q-.232.38-.5.8t-.574.869q-.305.453-.647.942t-.672.971q-.331.481-.649.955t-.627.937q-.308.464-.607.918t-.588.9l-.571.877q-.283.432-.559.851t-.55.823q-.273.4-.557.79t-.578.752q-.295.366-.6.712t-.785.834q-.48.488-1.135,1.084t-1.292,1.168q-.636.572-1.163,1.1t-.95,1.016q-.425.484-.751.921t-.635.833q-.31.4-.544.719t-.5.7q-.269.378-.518.711t-.6.757q-.35.422-.716.826t-.793.828q-.427.425-.913.866l-1,.908q-.516.46-.967.884t-.818.822a9.52,9.52,0,0,0-.645.772,6.1,6.1,0,0,0-.547.909q-.268.536-.566,1.146t-.585,1.108q-.287.5-.582,1t-.515.88q-.22.379-.468.8t-.476.819q-.228.4-.423.765t-.381.7q-.186.331-.451.763t-.574,1.061q-.31.628-.623,1.276t-.567,1.135a5.753,5.753,0,0,0-.381.875,1.873,1.873,0,0,1-.453.724,3.885,3.885,0,0,1-.852.641q-.524.3-1.148.706a6.213,6.213,0,0,0-1.21,1.038,5.13,5.13,0,0,0-.892,1.3,9.427,9.427,0,0,0-.477,1.219q-.169.556-.252.974a4.905,4.905,0,0,0-.1.682,3.179,3.179,0,0,1-.2.786,9.241,9.241,0,0,1-.391.953,8.029,8.029,0,0,1-.527.917,6,6,0,0,1-.693.873,6.116,6.116,0,0,1-.785.688,6.719,6.719,0,0,1-.85.531,7.515,7.515,0,0,1-.889.395q-.452.166-.856.3t-.926.291q-.524.159-.971.292t-.875.272q-.429.139-.835.284t-.858.28q-.452.135-.944.251a7.137,7.137,0,0,1-.833.154,2.494,2.494,0,0,1-.624,0q-.284-.042-.955-.218t-1.1-.245a2.754,2.754,0,0,1-.853-.3q-.427-.229-.783-.455t-.783-.516q-.427-.291-.867-.565t-.9-.512a9.393,9.393,0,0,0-.934-.422,7.237,7.237,0,0,0-.978-.3,7.358,7.358,0,0,0-.95-.156q-.448-.042-1.028-.046t-1.068-.023h-.875c-.255,0-.471,0-.65-.009s-.4-.024-.65-.055-.546-.078-.875-.139-.711-.13-1.146-.2-.919-.162-1.454-.272-1.026-.214-1.476-.312-.858-.172-1.228-.229-.683-.107-.942-.155l-.608-.111a3.794,3.794,0,0,0-.919.049l-1.863.236a7.592,7.592,0,0,1-1.158,0q-.575-.044-1-.118t-.9-.194q-.474-.119-.994-.283t-1.086-.358q-.567-.194-1.178-.388t-1.271-.364a12.789,12.789,0,0,0-1.281-.173,6.441,6.441,0,0,0-1.2.008,9.731,9.731,0,0,0-1.127.18q-.545.119-1.051.279t-.974.327q-.468.167-1.109.4t-1.34.44q-.7.208-1.413.407t-1.445.379q-.73.181-1.477.347t-1.508.331q-.762.165-1.427.3t-1.231.252q-.567.118-1.038.227t-.844.214q-.374.1-.839.217t-1.022.234q-.556.122-1.2.246t-1.382.253l-1.38.242-1.2.211q-1.1.2-1.842.353a12.526,12.526,0,0,1-1.667.225q-.927.068-2.046.044t-2.007-.006q-.89.017-1.878.114t-1.891.256a18.61,18.61,0,0,1-1.951.23,9.616,9.616,0,0,1-2-.063,9.26,9.26,0,0,1-1.836-.449q-.881-.315-1.239-.417a4.411,4.411,0,0,1-.668-.247q-.311-.146-.512-.882a4.66,4.66,0,0,1-.165-1.464q.037-.728.047-1.873t-.007-1.612a4.7,4.7,0,0,0-.081-.762,13,13,0,0,0-.452-1.337,7.974,7.974,0,0,0-.857-1.721,6.542,6.542,0,0,0-1.116-1.241q-.648-.561-1.511-1.263a7.673,7.673,0,0,1-1.442-1.52,9.227,9.227,0,0,1-.941-1.658,17.691,17.691,0,0,1-.7-1.98q-.337-1.142-.621-2.5t-.532-2.921q-.247-1.566-.553-2.9t-.662-2.431a17.165,17.165,0,0,0-.77-1.978,12.955,12.955,0,0,0-1.111-1.88q-.7-1-1.035-1.6a5.926,5.926,0,0,1-.55-1.41q-.214-.812-.421-2.038a14.892,14.892,0,0,0-.518-2.173,9.126,9.126,0,0,0-.937-1.951,3.767,3.767,0,0,1,0-3.042q.623-2.038,1.15-3.675t.9-2.884a5.711,5.711,0,0,1,1.1-2.1,12.523,12.523,0,0,0,1.576-2.611,19.377,19.377,0,0,1,2.351-3.639q1.505-1.886,2.976-3.56t2.67-3.213a23.042,23.042,0,0,0,2.1-3.19q.894-1.651,1.305-2.573a7.384,7.384,0,0,0,.526-2.389,24.884,24.884,0,0,1,.449-3.077q.333-1.609.652-2.741t.735-2.32q.415-1.189.735-2.09t.652-1.821a13.2,13.2,0,0,0,.565-2.471,26.466,26.466,0,0,0,.282-2.812,6.013,6.013,0,0,0-.888-3q-.939-1.734-1.354-2.552l-.756-1.489A6.6,6.6,0,0,0,83.1,24.063q-.982-.941-1.8-1.86a15.874,15.874,0,0,0-2.295-2.032q-1.479-1.113-2.231-1.738t-2.356-1.844a15.1,15.1,0,0,1-2.516-2.323q-.912-1.105-1.6-1.846a5.336,5.336,0,0,0-1.458-1.136,10,10,0,0,0-1.851-.7q-1.079-.3-1.925-.512t-1.783-.343A3.544,3.544,0,0,1,61.9,9.3a2.178,2.178,0,0,0-1.2-.3,12.911,12.911,0,0,0-1.923.176q-1.18.179-2.083.357t-1.846.446a11.737,11.737,0,0,1-2.282.373q-1.341.1-2.407.155t-2.307.088q-1.242.037-2.231,0a17.871,17.871,0,0,1-2.083-.2,5.832,5.832,0,0,0-2.08.039,4.345,4.345,0,0,0-1.8.836,13.316,13.316,0,0,0-1.8,1.755q-.983,1.125-1.79,2.008t-1.742,1.846q-.935.962-2.217,2.065T30.008,20.9q-.83.846-1.63,1.8t-1.426,1.754q-.626.8-1.08,1.432a13.987,13.987,0,0,0-1.077,1.953q-.626,1.316-1.384,3.328t-1.27,3.62q-.512,1.607-.862,2.779t-.558,2.164a19.186,19.186,0,0,0-.315,2.21,15.865,15.865,0,0,0,.139,3.2q.247,1.986.423,3.956t.18,3.069a10.81,10.81,0,0,0,.64,3.045q.634,1.946,1.328,3.887a15.605,15.605,0,0,0,1.609,3.333,8.125,8.125,0,0,0,1.5,1.846q.586.453,1.168.99t1.527,1.344a13.589,13.589,0,0,0,1.754,1.3,16.936,16.936,0,0,0,1.8.939q.993.448,1.877.915T36.4,70.962a8.18,8.18,0,0,1,2.125,1.989,9.739,9.739,0,0,0,2.54,2.263,11.32,11.32,0,0,0,2.617,1.318,9.96,9.96,0,0,1,2.449,1.23,17.452,17.452,0,0,1,2.483,1.933,18.445,18.445,0,0,0,2.03,1.689,9.343,9.343,0,0,0,1.609.95,3.7,3.7,0,0,1,1.394,1.3A10.209,10.209,0,0,1,54.8,85.659a19.631,19.631,0,0,1,.783,2.317,21.287,21.287,0,0,0,.876,2.541q.513,1.226.927,2.136t.888,1.92q.473,1.012.867,1.925T60,98.632q.465,1.221.842,2.372t.691,2.13q.311.978.7,2.166t.962,2.633a22.874,22.874,0,0,1,.859,2.564q.291,1.118.515,2.378.429,2.531.711,3.882a20.934,20.934,0,0,0,.526,2.1q.244.752.59,1.577a12.006,12.006,0,0,1,.55,1.609q.2.784.383,1.8t.385,1.855q.206.839.44,1.5t.579,1.448q.345.789.793,1.707t.784,1.763q.335.843.557,1.612t.362,1.363q.141.594.247,1.226t.205,1.5a10.686,10.686,0,0,1,.055,1.773,6.308,6.308,0,0,1-.26,1.581q-.215.677-.393,1.243t-.324,1.157q-.146.588-.3,1.4t-.28,1.42q-.127.615-.294,1.241t-.307,1.07q-.14.444-.312,1.114a12.68,12.68,0,0,0-.286,1.747q-.115,1.076-.356,2.428t-.612,2.976q.069.173.509-.11a16.033,16.033,0,0,0,1.317-1q.875-.714,1.863-1.508t2.069-1.676q-.423.547-.867,1.085T72,154.831q-.468.532-.951,1.067Z" transform="translate(-20.373 -8.998)" fill="#fff" stroke="#fff" stroke-linecap="round" stroke-linejoin="round" stroke-width="0.5"/>
    </g>
    <g id="新しいレイヤー_3" transform="translate(8.513 131.098)">
      <path id="パス_10" data-name="パス 10" d="M117.12,259.588l-1.81,1.888q-1.308,1.15-2.257,1.964t-1.548,1.281q-.6.466-1.227.91t-1.282.863q-.655.419-1.165.729t-1.056.607q-.547.3-1.31.657t-1.486.652q-.724.292-1.628.6t-1.691.523q-.784.218-1.881.481t-2.767.643q-2.271.493-4.186.974t-3.248.893q-1.332.411-2.7.924t-3.315,1.4a33.836,33.836,0,0,0-3.575,1.889q-1.63,1-2.92,1.888t-2.625,1.9q-1.336,1.01-2.092,1.62t-1.517,1.282q-.76.674-1.478,1.371t-1.425,1.487q-.707.789-1.531,1.859t-2.155,2.967q-1.329,1.9-1.911,2.634A18.7,18.7,0,0,1,60,295.984a18.469,18.469,0,0,1-1.5,1.381q-.752.614-1.156.9t-.916.607q-.512.323-1.169.7t-1.784,1q-1.128.624-1.555.889t-.963.667q-.536.4-.8.64t-.515.478l-.484.442L47.6,300.3l-.207-.667-.107-.818q-.035-.941-.061-1.671t-.048-1.557q-.022-.827.113-3.378t.469-5.67q.335-3.118.445-4.255t.181-2.23q.072-1.093.21-3.085t.5-4.333q.365-2.341.583-3.658t.654-4.316q.435-3,.642-4.674t.255-2.909a12.647,12.647,0,0,0-.267-2.86,8.267,8.267,0,0,0-.574-2.074,5.109,5.109,0,0,0-1.209-1.2,11.825,11.825,0,0,0-1.471-1.032q-.523-.287-1.809-.863t-1.855-.881a15.785,15.785,0,0,1-1.54-.99q-.972-.686-2.436-1.952t-2.059-1.862q-.595-.6-1.921-2.126t-2.059-2.44q-.733-.911-1.632-2.039T30.958,235q-.543-.642-1.263-1.414t-2.2-2.3q-1.478-1.524-2.136-2.326a28.121,28.121,0,0,1-1.925-2.893q-1.269-2.092-2.114-3.521t-1.145-1.885q-.3-.457-.844-1.309t-1.069-1.725q-.524-.872-1.159-2.005t-1.135-2.089q-.5-.954-1.257-2.454t-1.054-2.106q-.3-.607-.726-1.432T11.9,205.687q-.6-1.033-.628-1.1t-.959-1.868a23.642,23.642,0,0,1-1.262-2.734,7.762,7.762,0,0,1-.415-1.757,11.615,11.615,0,0,1-.066-1.563,9.108,9.108,0,0,1,.239-1.7,7.387,7.387,0,0,1,.264-1.019q.046-.058.346-.65a7.96,7.96,0,0,1,.716-1.151,7.008,7.008,0,0,1,1.249-.723,7.594,7.594,0,0,1,1.051-.317q.6-.138,2.052-.3t2.23-.278q.774-.111,1.455-.236t2.337-.538q1.657-.414,2.86-.712t2.316-.51q1.113-.213,2.594-.371t2.79-.27q1.31-.111,3.419-.283t2.793-.268q.685-.1,2.485-.538t2.5-.652q.695-.21,2.413-.766t3.088-.907a21.208,21.208,0,0,1,2.157-.463,20.353,20.353,0,0,1,2.194-.148,22.9,22.9,0,0,1,3.062.145q1.655.181,2.617.318t1.032.137q.069,0,.652.12t1.13.239q.546.119,1.378.323a6.659,6.659,0,0,0,1.5.213,8.454,8.454,0,0,0,1.414-.113,7.347,7.347,0,0,0,1.364-.347,18.381,18.381,0,0,0,1.99-.96q1.375-.733,2.289-1.284t1.968-1.2q1.053-.645,2.1-1.154t2.178-.945q1.133-.437,2.909-.991t2.485-.794q.709-.241,1.781-.656t2.274-.939q1.2-.524,2.7-1.161t2.986-1.241q1.489-.606,2.3-.869t1.941-.565q1.134-.3,2.343-.564t2.483-.492q1.274-.229,2.4-.4t2.154-.312q1.028-.143,2.345-.366t2.886-.57q1.569-.347,2.536-.614t1.509-.438q.541-.172,1.7-.508t2.882-.861q1.726-.524,3.3-.979a25.386,25.386,0,0,1,3.188-.7q1.615-.248,4.325-.532t3.237-.34q.527-.058,3.294-.218t4.156-.154q1.387.007,2.54.072t2.327.186q1.174.119,2.683.269t4.827.578q3.319.429,4.832.765t4.061,1.168q2.549.832,4.149,1.388t3.013,1.152q1.414.6,2.274,1.068t2.642,1.435q1.781.963,2.491,1.341t1.7.916q.992.537,2.224,1.107t1.743.762q.511.192,1.305.423a20.56,20.56,0,0,0,2.425.482q1.629.252,2.479.3t1.634.053q.784,0,2.917-.1t3.173-.112q1.038-.015,2.757.029t3.173.151q1.455.107,3.985.348t3.727.391q1.2.153,3.925.557t3.554.524q.827.119,2.449.218t8.184.077q6.562-.023,8.079.008t3.489.107q1.972.076,3.3.111t2.9.046q1.565.012,3.3.11a17.2,17.2,0,0,1,2.467.263,8.243,8.243,0,0,1,1.265.379,8.387,8.387,0,0,1,1.166.594,7.041,7.041,0,0,1,1.178.887,8.284,8.284,0,0,1,.971,1.074,5.977,5.977,0,0,1,.672,1.091,5.522,5.522,0,0,1,.376,1.12,9.4,9.4,0,0,1,.169,1.628q.035,1.03.023,1.1t-.3,2.651q-.291,2.582-.522,3.93t-.359,2.089q-.127.741-.753,3.607t-.976,4.031q-.35,1.164-.6,1.787t-.524,1.174q-.275.551-.938,1.809t-1.749,3.113q-1.084,1.855-2.357,3.868t-1.873,2.767q-1.03.977-1.282,1.231t-.984,1.1l-1.331,1.719L240,227.3l-1.147,1.511-.857.983q-2.266,2.274-3.563,3.554l-1.163,1.16-1.521,1.451-1.716,1.621q-.474.492-1.943,2.225l-.492.609q-.977.955-1.806,1.626t-2.457,1.853q-1.629,1.182-2.491,1.684t-1.922,1.034q-1.059.531-1.5.714t-2.178.992a10.428,10.428,0,0,0-2.089,1.145,2.936,2.936,0,0,0-.606.851l-.146.943a26.361,26.361,0,0,0,.541,3.7q.249.844.486,1.472t.875,1.988q.636,1.36,1.285,2.781t.992,2.3q.344.878.695,1.949t.826,2.612q.476,1.542.828,2.759t.688,2.564q.336,1.347.509,2.368a21.333,21.333,0,0,1,.111,2.3q-.019.872-.073,1.327t-.223,1.266q-.167.809-.475,2.106t-.548,2.259q-.24.962-.492,1.923t-.376,1.681q-.125.72-.18,1.39t-.063,1.2q-.007.533,0,1.181a3.561,3.561,0,0,1-.057.85,1.618,1.618,0,0,1-.28.488l-.374.088a18.2,18.2,0,0,1-3-.814q-.989-.4-1.4-.627t-.944-.569q-.532-.344-1.634-1.2t-2.1-1.669q-1-.817-1.816-1.429t-1.779-1.3q-.965-.687-1.625-1.144t-1.193-.794q-.533-.336-1.9-1.09T197.379,282l-1.845-.823q-.89-.4-2.035-.921t-1.945-.9q-.8-.374-1.478-.7t-1.339-.65q-.662-.327-1.453-.67t-1.931-.812q-1.14-.47-1.958-.783t-1.554-.542q-.738-.229-1.53-.428t-1.63-.361q-.839-.163-1.754-.289t-1.815-.2q-.9-.071-1.623-.1t-1.62-.03q-.9-.005-2.208,0t-2.094,0q-.783,0-1.035-.017-.505-.028-1.332-.051t-2.576.006q-1.749.028-2.96,0t-2.213-.127a21.9,21.9,0,0,1-2.287-.364,24.433,24.433,0,0,1-3.508-1.118q-1.112-.425-2-.816t-1.895-.922q-1-.532-2.1-1.143t-1.73-1.008q-.631-.4-1.226-.8t-1.363-.949q-.768-.543-1.639-1.211t-1.849-1.452q-.978-.785-2-1.7t-2.1-1.953q-1.069-1.037-1.793-1.779t-1.1-1.209q-.381-.465-.952-1.208t-1.305-1.771q-.734-1.03-1.444-1.988t-1.4-1.862a6.093,6.093,0,0,0-1.373-1.226,1.511,1.511,0,0,0-1.126-.16l-3.279,6.073-1.769,3.069Q117.461,259.151,117.12,259.588Z" transform="translate(-8.564 -147.746)" fill="#4c4749" stroke="#4c4749" stroke-linecap="round" stroke-linejoin="round" stroke-width="0.5"/>
      <path id="パス_11" data-name="パス 11" d="M275.651,225.608l.272.058q.343-.393.308-.394c-.024,0-.029.009-.017.029a4.482,4.482,0,0,0,.469-.764q.449-.795,1.654-2.646a2.165,2.165,0,0,1-.635,1.132q-.646.776-1.293,1.464t-1.036,1.088" transform="translate(-37.031 -153.912)" fill="#4c4749" stroke="#4c4749" stroke-linecap="round" stroke-linejoin="round" stroke-width="0.5"/>
      <path id="パス_12" data-name="パス 12" d="M221.918,358.1q-.091.2-.68,1.175t-1.377,2.264q-.789,1.29-1.307,2.09t-.6.882q-.082.082-1.377,2.043t-2.592,4.037q-1.3,2.076-1.968,3.131t-1.61,2.482q-.939,1.427-1.805,2.931t-1.251,2.307q-.386.8-.892,2.05t-1.075,3.112q-.567,1.864-.95,3.223a34.755,34.755,0,0,0-.758,3.69,24.5,24.5,0,0,0-.332,4.418,19.612,19.612,0,0,0,.3,3.348,9.946,9.946,0,0,0,.957,2.606,12.919,12.919,0,0,0,1.53,2.336,19.39,19.39,0,0,0,2.26,2.21,17.82,17.82,0,0,0,2.638,1.913,20.854,20.854,0,0,0,2.319,1.155q1.111.464,1.932.766a23.43,23.43,0,0,0,3.056.739,29.869,29.869,0,0,0,3.38.516q1.146.079,2.441.1t3.529-.164a35.173,35.173,0,0,0,3.962-.529q1.727-.344,4.416-1.157t4.971-1.67q2.282-.857,3.3-1.309t1.53-.713l1.2-.617q.69-.355,1.975-1.037a24.364,24.364,0,0,0,2.3-1.37q1.01-.69,2.087-1.471t1.626-1.273q.551-.492,1.059-1.02t.523-.539.652-.784q.638-.776.956-1.182t.5-.673q.18-.267.437-.7t.586-1.011q.328-.58.419-.762t.319-.725q.228-.543.333-.745c.071-.135.138-.277.205-.427s.274-.723.624-1.719" transform="translate(-29.346 -168.445)" fill="#4c4749" stroke="#4c4749" stroke-linecap="round" stroke-linejoin="round" stroke-width="0.5"/>
      <path id="パス_13" data-name="パス 13" d="M100.812,375.3q.027.4.35,3.38a48.875,48.875,0,0,0,.769,5.024q.445,2.047.757,3.089t1.12,3.424q.809,2.382,2.224,7.3t2.252,8.122q.835,3.207,1.217,5t.6,3.151q.222,1.355.339,3.01a27.044,27.044,0,0,1-.1,4.131,22.989,22.989,0,0,1-.638,3.98,20.264,20.264,0,0,1-.962,2.735q-.543,1.23-.971,2.09t-.56,1.139q-.133.277-.766,1.336t-1.112,1.768q-.478.709-1.571,2.732t-1.683,3.136q-.588,1.114-1.252,2.378t-1.287,2.287a22.505,22.505,0,0,1-1.77,2.432q-1.148,1.41-1.352,1.606a6.115,6.115,0,0,1-.506.428,5,5,0,0,1-.585.391,3.925,3.925,0,0,1-.641.288,3.63,3.63,0,0,1-.648.17,4.552,4.552,0,0,1-.539.052,4.189,4.189,0,0,1-.7-.06c-.3-.046-.484-.069-.539-.068a9.477,9.477,0,0,1-1.214-.664,9.282,9.282,0,0,1-1.594-1.106q-.461-.441-.857-.864t-.626-.685a6.846,6.846,0,0,1-.585-.839,12.249,12.249,0,0,1-.635-1.163,18.753,18.753,0,0,1-.7-1.8,20.573,20.573,0,0,1-.6-2.008q-.183-.792-.234-1.193t-.133-1.252q-.083-.851-.1-1.611t.008-1.348q.023-.588.071-2t.134-2.542q.087-1.132.129-1.787t.174-1.785q.132-1.13.247-2.176T86,422.779q.149-1.108.229-1.638t.138-.949q.058-.419.214-1.782t.548-3.723q.393-2.36.538-3.113t.342-1.57q.2-.817.317-1.348t.3-1.56q.177-1.029.431-2.313t.676-4.006" transform="translate(-16.716 -170.28)" fill="#4c4749" stroke="#4c4749" stroke-linecap="round" stroke-linejoin="round" stroke-width="0.5"/>
      <path id="パス_14" data-name="パス 14" d="M462.3,273.785q-.127.141-1.079,1.136t-1.333,1.425q-.381.43-.96,1.165t-1.484,1.929q-.9,1.194-1.451,1.967t-.845,1.233l-.7,1.089q-.407.63-1.034,1.731t-.9,1.665q-.279.564-.53,1.083a17.253,17.253,0,0,0-.65,1.672q-.4,1.154-.649,2.019t-.535,1.794q-.285.929-.564,2.022t-.469,2.084q-.192.993-.327,1.788t-.326,2.267q-.192,1.471-.285,2.564t-.106,1.561q-.012.468.024,1.02a12.573,12.573,0,0,0,.176,1.344q.141.792.349,1.833t.669,2.629q.46,1.588.812,2.55t.667,1.687q.314.725,1.042,2.248t1.064,2.187q.335.665.584,1.105t.5.834q.256.394.4.6c.095.138.2.3.323.481a9.767,9.767,0,0,0,.808.958q.628.685.743.791a3.858,3.858,0,0,0,.467.325,3.1,3.1,0,0,0,.512.279,2.111,2.111,0,0,0,.412.092,1.075,1.075,0,0,0,.28-.012.548.548,0,0,0,.149-.076,1.627,1.627,0,0,0,.2-.173c.079-.079.132-.134.157-.165s.135-.23.33-.6a11.975,11.975,0,0,0,.675-1.685q.383-1.135.561-1.762t.371-1.415q.194-.789.272-1.133t.208-.841q.13-.5.228-.852t.352-1.323q.253-.969.373-1.453t.369-2.047q.251-1.564.364-2.734t.152-1.7q.039-.535.1-1.3t.114-1.834q.054-1.071.077-1.761t.04-1.185q.019-.494.036-1.074" transform="translate(-55.455 -159.449)" fill="#4c4749" stroke="#4c4749" stroke-linecap="round" stroke-linejoin="round" stroke-width="0.5"/>
      <path id="パス_15" data-name="パス 15" d="M466.471,158.553q.059.189.488,1.763a27.372,27.372,0,0,1,.7,4.375q.267,2.8.345,4.391t.113,2.176q.034.586-.02,2.613t-.107,3.27q-.054,1.243-.149,2.2t-.106,1.952a31.525,31.525,0,0,1-.295,3.22q-.284,2.226-.464,3.624a26.967,26.967,0,0,1-.536,2.887,18.363,18.363,0,0,1-.738,2.444q-.381.957-.7,1.57a14.466,14.466,0,0,1-.841,1.391q-.523.778-.628.938t-.188.271a2.7,2.7,0,0,0-.182.295q-.1.184-.9,1.207a20.34,20.34,0,0,1-1.349,1.593q-.552.569-.813.821a5.345,5.345,0,0,1-.953.65,7.887,7.887,0,0,1-1.116.557q-.423.157-.773.3t-.461.192c-.074.033-.277.116-.607.25a9.234,9.234,0,0,1-.981.336,7.377,7.377,0,0,1-.915.2,5.462,5.462,0,0,1-1.092.023l-.343-.1q-.43-.192-.609-.3c-.12-.069-.284-.179-.492-.328" transform="translate(-55.85 -147.154)" fill="#4c4749" stroke="#4c4749" stroke-linecap="round" stroke-linejoin="round" stroke-width="0.5"/>
      <path id="パス_16" data-name="パス 16" d="M434.638,353.891q.13.072,1.891,1.795a25.493,25.493,0,0,1,3.006,3.479,16.269,16.269,0,0,1,1.776,3.04,14.451,14.451,0,0,1,.72,2.081,8.731,8.731,0,0,1,.227,1.585,10.339,10.339,0,0,1-.365,3.389,11.056,11.056,0,0,1-.6,1.794,9.967,9.967,0,0,1-.671,1.267q-.342.535-.595.869t-1.14,1.372a13.3,13.3,0,0,1-1.714,1.711,16.155,16.155,0,0,1-2.182,1.436A20.211,20.211,0,0,1,432,379.073a10.3,10.3,0,0,1-2.4.66,6.028,6.028,0,0,1-1.035.023,3.315,3.315,0,0,1-.56-.123,2.463,2.463,0,0,1-.507-.216,2.883,2.883,0,0,1-.352-.232,1.667,1.667,0,0,1-.3-.379,2.641,2.641,0,0,1-.256-.481q-.076-.2-.1-.273t-.075-.523a5.846,5.846,0,0,1-.037-.934q.019-.481.086-1.176t.139-1.185q.074-.492.278-1.779t.379-2.35q.174-1.063.93-3.9t1.1-3.854q.342-1.017.64-1.84t.482-1.3q.184-.476.3-.859t.211-.659q.094-.275.178-.492t.289-.658q.206-.442.384-.771l.206-.466.453-.745" transform="translate(-53.142 -167.996)" fill="#4c4749" stroke="#4c4749" stroke-linecap="round" stroke-linejoin="round" stroke-width="0.5"/>
      <path id="パス_17" data-name="パス 17" d="M282.39,146.816a3.422,3.422,0,0,1,.707-.56q.572-.382.712-.463" transform="translate(-37.78 -145.793)" fill="#ffefd5" stroke="#ffefd5" stroke-linecap="round" stroke-linejoin="round" stroke-width="0.5"/>
    </g>
    <g id="ペン" transform="translate(8.081 111.825)">
      <path id="パス_18" data-name="パス 18" d="M57.528,263.787q-.217,1.386-.449,2.947t-.48,3.3q-.247,1.737-.511,3.649t-.543,4q-.28,2.089-.531,4.011t-.473,3.678q-.221,1.755-.423,3.667t-.383,3.982q-.181,2.07-.289,3.467t-.141,2.121q-.034.725-.041,1.736t.011,2.308q.018,1.3.136,2.622t.336,2.677q.217,1.353.574,2.775t.852,2.913A25.743,25.743,0,0,0,56.26,316.4a23.092,23.092,0,0,0,1.626,2.848,32.059,32.059,0,0,0,2.436,3.222,31.375,31.375,0,0,0,2.476,2.637q1.073.992,1.857,1.6a18.849,18.849,0,0,0,1.935,1.286q1.151.681,2.661,1.43t2.786,1.311q1.277.559,2.334.944t2.592.816q1.537.431,3.508.951t3.716.934q1.746.414,3.3.69t3.037.448q1.486.172,2.574.286t2.269.228l2.255.217,2.513.241q1.442.138,2.975.224t2.92.183q1.387.1,2.64.191t3.063.132l3.292.069q1.481.031,3.231.071l3.294.075q1.544.034,2.887.054t2.492.022q1.148,0,2.583-.028t3.117-.1q1.682-.071,3.135-.179t2.569-.212q1.116-.1,1.9-.209l2.01-.273,2.271-.308q1.041-.139,2.3-.3t2.39-.308q1.127-.143,2.615-.326l2.909-.356q1.419-.173,2.948-.375t3.177-.423q1.648-.224,3.2-.485t2.7-.46l2.425-.421q1.273-.222,2.5-.451t3.005-.582q1.777-.352,3.945-.868t3.96-.96q1.792-.445,3.836-1.035t3.055-.918q1.012-.328,3.051-1.126l3.518-1.377q1.478-.58,2.627-1.044t2.463-1.007q1.313-.543,2.516-1.07t2.3-1.04q1.093-.512,2.264-1.126t2.42-1.332q1.249-.717,2.336-1.444t2.012-1.461a22.535,22.535,0,0,0,1.974-1.8q1.051-1.063,2.228-2.449t1.888-2.368a9.348,9.348,0,0,0,1.074-1.847q.363-.866.884-2.332a20.1,20.1,0,0,0,.8-2.873q.273-1.407.463-3.236t.212-3.549q.023-1.718-.115-3.321t-.4-3.3q-.259-1.692-.623-3.459T222.7,282.3q-.293-1.3-.643-2.578t-.479-1.761q-.127-.484-.429-1.34t-.766-2.218q-.466-1.361-.82-2.471t-.723-2.42q-.368-1.309-.613-2.113t-.43-1.4q-.186-.6-.753-1.952a37.884,37.884,0,0,1-1.254-3.647" transform="translate(-12.902 -138.747)" fill="none" stroke="#4c4749" stroke-linecap="round" stroke-linejoin="round" stroke-width="5.1"/>
      <path id="パス_19" data-name="パス 19" d="M101.193,263.632l.075,2.215q0,.784.773,13.213l.282,2.214" transform="translate(-18.015 -139.092)" fill="none" stroke="#c84557" stroke-linecap="round" stroke-linejoin="round" stroke-width="4.345" opacity="0"/>
      <path id="パス_20" data-name="パス 20" d="M169.967,257.407q.176.454,2.418,4.525t7.59,14.853" transform="translate(-25.353 -138.428)" fill="none" stroke="#c84557" stroke-linecap="round" stroke-linejoin="round" stroke-width="5.1" opacity="0"/>
      <path id="パス_21" data-name="パス 21" d="M120.629,310.252c-.024.066-.049.147-.075.24s-.057.2-.094.315-.074.227-.11.331-.068.206-.094.306-.048.206-.068.32-.036.236-.048.365-.021.256-.024.378,0,.239,0,.351.013.232.024.358.029.26.048.4a3.034,3.034,0,0,0,.085.4,3.565,3.565,0,0,0,.473.979c.113.163.222.309.325.44s.22.272.349.425a5.489,5.489,0,0,0,.4.423,4.216,4.216,0,0,0,.407.348,3.093,3.093,0,0,0,.51.3,6.76,6.76,0,0,0,1.576.513,9.068,9.068,0,0,0,.976.133,9.324,9.324,0,0,0,.986.032,6.922,6.922,0,0,0,.9-.079q.425-.066.8-.158a6.66,6.66,0,0,0,.7-.209q.324-.118.669-.277t.712-.368q.366-.21.7-.431t.639-.457q.3-.236.633-.55a9.92,9.92,0,0,0,.681-.723q.351-.409.66-.846t.569-.889q.259-.452.477-.911t.39-.909q.173-.449.331-.931t.279-.976q.121-.494.22-.845a5.679,5.679,0,0,1,.2-.589,2.478,2.478,0,0,1,.194-.39,1.212,1.212,0,0,1,.195-.244c.021,0,.063.055.125.157a3.647,3.647,0,0,1,.237.527q.143.374.264.791t.239.827q.119.41.237.727t.212.523c.062.138.147.31.255.515s.245.439.41.7a8.2,8.2,0,0,0,.539.75q.289.36.519.607c.153.165.314.333.487.5s.34.332.506.481.327.292.483.427.309.262.457.384.294.238.435.349.28.219.416.322.3.226.5.369.422.291.673.445.491.288.719.4a6.013,6.013,0,0,0,.652.288q.31.114.653.207c.23.063.47.121.723.172s.5.1.732.133.463.065.681.086.447.029.689.029.5-.013.766-.036.529-.055.78-.1a6.944,6.944,0,0,0,.728-.167,4.22,4.22,0,0,0,.622-.229q.271-.129.456-.231c.124-.069.249-.144.376-.223s.247-.159.358-.235.239-.167.385-.274a3.917,3.917,0,0,0,.406-.347,3.41,3.41,0,0,0,.348-.4c.106-.141.2-.266.275-.376s.16-.227.246-.351.166-.249.239-.373.138-.249.2-.373.109-.247.155-.369.084-.244.116-.364.061-.239.084-.359.043-.239.059-.358.028-.238.036-.355.014-.232.017-.348,0-.231-.007-.349-.019-.235-.034-.354-.034-.238-.057-.356-.049-.237-.078-.357l-.347-.69" transform="translate(-20.034 -143.701)" fill="none" stroke="#4c4749" stroke-linecap="round" stroke-linejoin="round" stroke-width="5.1"/>
      <path id="パス_22" data-name="パス 22" d="M173.922,299.536q.406.056,1.547.279t2.977.616q1.834.394,3.337.729t2.842.641q1.339.307,3.071.621t4.284.748" transform="translate(-25.775 -142.923)" fill="none" stroke="#4c4749" stroke-linecap="round" stroke-linejoin="round" stroke-width="5.1"/>
      <path id="パス_23" data-name="パス 23" d="M172.25,309.4q.545.151,2.11.6t3.471,1.012l3.4.993,3.186.932L188,313.994l4,1.166" transform="translate(-25.597 -143.976)" fill="none" stroke="#4c4749" stroke-linecap="round" stroke-linejoin="round" stroke-width="5.1"/>
      <path id="パス_24" data-name="パス 24" d="M84.165,304.766l1.359-.267q.091-.035,1.19-.248t2.664-.511q1.565-.3,2.846-.548t2.787-.555q1.507-.3,3.236-.666t3.685-.784l1.589-.147" transform="translate(-16.199 -143.084)" fill="none" stroke="#4c4749" stroke-linecap="round" stroke-linejoin="round" stroke-width="5.1"/>
      <path id="パス_25" data-name="パス 25" d="M87.623,315.625a22.341,22.341,0,0,0,2.617-1.161q2.156-1.047,4.049-1.792t3.113-1.091q1.222-.347,6.145-2.113l1.508-.533" transform="translate(-16.568 -143.926)" fill="none" stroke="#4c4749" stroke-linecap="round" stroke-linejoin="round" stroke-width="5.1"/>
      <path id="パス_26" data-name="パス 26" d="M136.588,296.555q-.135-.126-.343-.335c-.138-.138-.3-.306-.494-.5s-.373-.376-.547-.538a6.887,6.887,0,0,0-.532-.446q-.271-.2-.488-.344c-.146-.093-.3-.188-.473-.284s-.316-.18-.439-.25-.24-.139-.354-.208a.367.367,0,0,1-.192-.212.352.352,0,0,1,0-.172.241.241,0,0,1,.113-.122.973.973,0,0,1,.425-.054,3.372,3.372,0,0,1,.83.138q.5.135.858.224t.764.172a6.892,6.892,0,0,0,.8.118,7.036,7.036,0,0,0,.858.021,7.662,7.662,0,0,0,.825-.067q.368-.052.8-.147l.661-.143.249-.053c.015,0,.189-.022.524-.055a3.109,3.109,0,0,1,.7-.016,1.508,1.508,0,0,1,.264.06.286.286,0,0,1,.1.065.244.244,0,0,1,.053.121.462.462,0,0,1-.079.265.86.86,0,0,1-.473.322q-.375.141-.714.28c-.226.093-.448.192-.669.3s-.423.2-.606.3-.382.194-.6.309-.452.253-.707.413a8.106,8.106,0,0,0-.8.582" transform="translate(-21.379 -142.235)" fill="none" stroke="#ffa3a2" stroke-linecap="round" stroke-linejoin="round" stroke-width="5.1"/>
      <path id="パス_27" data-name="パス 27" d="M173.919,257.44q-.036.823-.041.761a3.615,3.615,0,0,1-.07,1.164,3.541,3.541,0,0,0,.289,1.8q.421,1.164.674,1.845a2.418,2.418,0,0,1,.222.775,1.2,1.2,0,0,1-.063.162q-.032.066.209,2.189c.264,0,.372,0,.322.023a.584.584,0,0,1,.315.222,1.337,1.337,0,0,1,.255.4c.05.131.2.233.448.3a2.235,2.235,0,0,0,.75.083l.32-.021c-.039,0-.038.01.005.023l.066.021.08-.012q.078-.011.386.284t.317.383a.158.158,0,0,0,.061.123q.052.036.573.277c.348.162.526.213.537.155a.791.791,0,0,1,.281.085c.031,0,.067.044.107.13H180v.085h.052v.653" transform="translate(-25.76 -138.432)" fill="none" stroke="#fff" stroke-linecap="round" stroke-linejoin="round" stroke-width="23.526" opacity="0"/>
      <path id="パス_28" data-name="パス 28" d="M101.175,259.3c-.088.4-.119.573-.093.52a7.189,7.189,0,0,1-.207,2.412q-.36,2.432-.574,3.726t-.447,2.231q-.234.938-.4,1.6a4.065,4.065,0,0,0-.154,1.052c.007.263.013.4.016.425s0,.016,0-.014-.008.189-.027.66a7.815,7.815,0,0,0,.067,1.379,7.973,7.973,0,0,0,.207,1.064,3.525,3.525,0,0,1,.138.7,2.588,2.588,0,0,0,.039.353,3.324,3.324,0,0,1,.046.4,6.272,6.272,0,0,0,.089.661q.059.3.156.639c.065.224.105.364.121.423s.031.115.046.17.017.057.009.006a2.64,2.64,0,0,1,.055.273,11.119,11.119,0,0,0,.33,1.146q-.008.261.028-1.322" transform="translate(-17.812 -138.63)" fill="none" stroke="#fff" stroke-linecap="round" stroke-linejoin="round" stroke-width="20.039" opacity="0"/>
      <path id="パス_29" data-name="パス 29" d="M104.4,248.573q-.012.181.18,4.423t.318,6.951q.127,2.708.189,3.927t.143,2.556q.082,1.336.349,5.223" transform="translate(-18.357 -137.486)" fill="none" stroke="#ffee60" stroke-linecap="round" stroke-linejoin="round" stroke-width="4.345"/>
      <path id="パス_30" data-name="パス 30" d="M173.579,248.026q-.229,11.825-.422,14.835t-.311,4.568" transform="translate(-25.66 -137.427)" fill="none" stroke="#ffee60" stroke-linecap="round" stroke-linejoin="round" stroke-width="5.1"/>
      <path id="パス_31" data-name="パス 31" d="M107.565,325.136q-.418.847-1.486,3.716t-1.995,5.525q-.927,2.654-2.072,6.051t-1.88,5.639q-.734,2.242-1.291,3.956t-1.178,3.648q-.623,1.934-1.191,3.781t-1.08,3.612q-.514,1.763-.965,3.319t-1.036,3.577q-.585,2.022-1.093,3.9t-1.08,4.421q-.571,2.538-1.027,4.571t-1,4.408q-.541,2.376-1.023,4.5t-.892,3.994q-.411,1.869-.748,3.506t-.721,3.739q-.384,2.1-.659,4.231t-.344,4.4a23.9,23.9,0,0,0,.389,4.863,18.139,18.139,0,0,0,1.339,4.5,11.881,11.881,0,0,0,4.081,4.96,12.788,12.788,0,0,0,2.912,1.31,19.313,19.313,0,0,0,3.635.879,29.6,29.6,0,0,0,3.847.228q2.14,0,3.655-.074t2.814-.26q1.3-.185,2.315-.392t3.981-.987q2.968-.779,5.157-1.5t4.584-1.619q2.395-.9,4.125-1.575t3.324-1.346q1.593-.673,3.982-1.612t5.695-1.93a44.147,44.147,0,0,1,6.093-1.408,29.64,29.64,0,0,1,6.217-.2,16.157,16.157,0,0,1,5.957,1.418,19.943,19.943,0,0,1,4.159,2.553q1.631,1.349,2.842,2.563t2.606,2.65q1.395,1.435,2.689,2.528a17.976,17.976,0,0,0,3.139,2.077,12.815,12.815,0,0,0,4.221,1.333,15.578,15.578,0,0,0,5.405-.286,23.335,23.335,0,0,0,5.584-1.891,51.458,51.458,0,0,0,4.821-2.7q2.267-1.438,3.959-2.447a34.5,34.5,0,0,1,3.041-1.636q1.349-.628,2.919-1.176a20.911,20.911,0,0,1,3.1-.833,21.567,21.567,0,0,1,3.78-.29,18.656,18.656,0,0,1,4.983.749,24.978,24.978,0,0,1,5.221,2.094,40.5,40.5,0,0,1,4.627,2.9q2.143,1.558,4.407,3.395T235,430.178a39.865,39.865,0,0,0,4.582,3.232,35.849,35.849,0,0,0,4.456,2.278,27.717,27.717,0,0,0,4.952,1.017,24.9,24.9,0,0,0,6.071-.1,32.035,32.035,0,0,0,6.125-1.362q2.784-.934,4.733-1.724t3.995-1.718q2.049-.927,4.04-1.822t3.934-1.728q1.944-.832,3.785-1.52t3.569-1.271a55.844,55.844,0,0,1,6.608-1.583q2.967-.5,5.034-.676t4.212-.244q2.145-.066,3.96-.062t4.029.063q2.214.06,4.532.158t4.987.219q2.654.083,5.193.1t4.961-.031q2.421-.052,4.863-.225t4.906-.453q2.464-.28,4.706-.672t4.267-.874q2.022-.489,4.237-1.216t4.617-1.692q2.4-.965,4.8-2.168t4.787-2.642a47.457,47.457,0,0,0,4.877-3.395q2.486-1.955,5.066-4.428t4.969-5.136q2.389-2.661,4.588-5.513,4.4-5.7,7.4-10.338t6.043-10.149q3.044-5.514,5.7-11.157t4.894-11.452q2.239-5.81,4.11-11.661t3.492-12.637q1.621-6.786,2.639-12.737t1.966-13.329q.949-7.379,1.633-15.472t1.239-16.842q.555-8.75,1.169-16.752t1.316-15.245q.7-7.242,1.527-13.568t1.815-11.72q4.327-19.592,6.869-28.1t7.11-19.69a173.235,173.235,0,0,1,7.235-16.047q2.668-4.865,5.254-9.43t2.891-5.18a7.7,7.7,0,0,0,.54-1.93q.236-1.315.3-1.836a6.541,6.541,0,0,0-1-2.5,5.192,5.192,0,0,0-3.032-2.62,8.167,8.167,0,0,0-4.178-.2,17.2,17.2,0,0,0-5.434,2.456,32.243,32.243,0,0,0-6.53,5.629,61.839,61.839,0,0,0-6.582,8.809,111.749,111.749,0,0,0-6.116,11.1q-2.839,5.9-5.16,11.642-2.252,6.393-4.285,13.111t-3.7,13.778q-1.664,7.06-2.875,13.918t-2.01,13.508q-.8,6.652-1.454,14.107t-1.184,15.705q-.529,8.249-1,15.411t-1.3,16.246q-.824,9.082-2.65,20.792t-1.963,12.4q-.138.693-2.9,11.792t-6.081,20.666q-3.322,9.569-8.208,20.551a128.27,128.27,0,0,1-10.279,15.971,69.115,69.115,0,0,1-10.168,10.9A32.538,32.538,0,0,1,351.6,399.01a49.747,49.747,0,0,1-12.312,2.31,63.6,63.6,0,0,1-12.12-.324,103.579,103.579,0,0,1-12.73-2.573,150.443,150.443,0,0,1-17.627-6.1q-10.56-4.262-11.837-4.884t-5.232-2.614q-3.956-1.994-10.038-5.445T260.569,374q-3.052-1.923-4.329-2.734t-3.1-2.022q-1.821-1.211-3.715-2.56t-6.517-4.76q-4.623-3.413-8.461-6.49t-4.039-3.236q-.2-.157-4.433-3.966t-7.7-7.151q-3.475-3.34-4.944-4.833t-3.052-3.3q-1.582-1.808-2.758-3.213t-2.633-3.44q-1.458-2.035-2.6-3.546t-1.841-2.346q-.7-.835-1.047-1.341t-.654-.869a16.717,16.717,0,0,0-1.3-1.282q-.993-.918-1.252-1.15t-.717-.57q-.46-.338-2.016-1.521" transform="translate(-16.266 -124.218)" fill="none" stroke="#4c4749" stroke-linecap="round" stroke-linejoin="round" stroke-width="5.1"/>
      <path id="パス_32" data-name="パス 32" d="M69.021,187.993l-2.384-.342-.684-.058-1.255-.1q-.795-.064-1.96-.154T60,187.148q-.786-.05-1.548-.088t-1.5-.067q-.737-.028-1.432-.046t-1.674-.032q-.979-.013-2.132,0t-2.146.037q-.9.025-1.709.055l-1.545.054-1.384.052-1.512.057q-.86.032-1.845.09t-1.188.09q-.2.032-.163.048c.029.011,0,.021-.072.03s-.252.028-.525.055l-1.054.11q-.642.068-1.408.174t-1.754.261q-.989.155-2.14.416t-2,.448q-.851.188-1.4.315t-1.1.243q-.543.117-1.045.23l-1.2.273q-.7.159-1.529.312t-1.7.372q-.873.218-1.82.481t-1.991.582q-1.044.319-2.206.623t-2.323.62q-1.162.315-2.29.669t-2.238.724q-1.109.371-2.151.838l-.187.633a9.8,9.8,0,0,0,.275,1.141l.525,1.92q.258.947.573,2.206t.665,2.5q.349,1.245.749,2.49t.851,2.472q.451,1.226.967,2.429t.977,2.189q.463.985.8,1.677t.7,1.414q.366.724.764,1.472t.829,1.524q.431.776.894,1.577t.962,1.629q.5.828,1,1.636t1,1.593q.5.785,1,1.545t1.243,1.862q.745,1.1,1.725,2.456t1.941,2.585q.962,1.233,1.852,2.313t1.7,2q.814.923,1.543,1.715t1.372,1.45q.643.658,1.4,1.354T36,244.394q.862.734,1.846,1.5t2.088,1.553q1.105.791,2.1,1.467t1.894,1.239q.894.563,1.83,1.117t1.917,1.1q.98.547,2.139,1.159t2.5,1.292" transform="translate(-8.081 -130.907)" fill="none" stroke="#4c4749" stroke-linecap="round" stroke-linejoin="round" stroke-width="5.1"/>
      <path id="パス_33" data-name="パス 33" d="M211.474,180.7c.042-.024.241-.11.6-.259a9.979,9.979,0,0,1,1.466-.444q.929-.221,1.975-.364t2.25-.336q1.2-.193,2.3-.411t2.117-.326q1.021-.107,2.179-.137t2.444.008q1.285.039,2.673.126t2.861.222q1.474.135,3,.288t3.085.322q1.561.17,2.993.335t2.727.317q1.3.153,2.71.3t2.946.271l2.96.239q1.43.114,2.751.222t2.583.205l2.454.19q1.194.094,2.347.194t2.263.2q1.109.1,2.135.213t1.971.222q.946.114,2.02.272t2.255.363q1.182.2,2,.4a11.961,11.961,0,0,1,1.535.473,4.384,4.384,0,0,1,1.22.694,2.86,2.86,0,0,1,.765.959,2.938,2.938,0,0,1,.128,1.605q-.138,1.06-.247,2.047t-.256,2.26q-.147,1.274-.31,2.507t-.333,2.423q-.17,1.189-.412,2.36t-.551,2.323q-.31,1.154-.691,2.364t-.828,2.475q-.448,1.265-.9,2.415t-.891,2.177q-.443,1.026-.954,2.138t-1.091,2.3q-.58,1.189-1.2,2.332t-1.26,2.248q-.642,1.105-1.469,2.415t-1.836,2.792q-1.009,1.483-2.014,2.779t-1.979,2.453q-.974,1.158-2.008,2.237t-2.122,2.091q-1.088,1.012-2.239,2.007t-2.347,1.985q-1.2.99-2.268,1.863t-2.039,1.612q-.969.74-2.038,1.54t-1.957,1.427q-.89.626-1.52,1.049t-1.3.849q-.674.425-1.4.852t-1.5.85q-.776.425-1.605.842t-1.706.837q-.875.419-1.781.86t-1.833.922" transform="translate(-29.782 -130)" fill="none" stroke="#4c4749" stroke-linecap="round" stroke-linejoin="round" stroke-width="5.1"/>
      <path id="パス_34" data-name="パス 34" d="M77.085,185.171q.346-.332,1.557-1.511a27.777,27.777,0,0,1,2.374-2.075q1.163-.9,2.681-1.876t2.907-1.762q1.388-.783,3.244-1.721t3.8-1.81q1.945-.871,3.714-1.5t3.005-1.014q1.237-.382,2.543-.744t2.459-.666q1.154-.306,2.683-.7t3.134-.818q1.6-.423,2.955-.769t2.464-.618q1.111-.273,2.173-.513t2.075-.444q1.013-.205,2.163-.415t2.432-.423q1.285-.213,2.414-.395t2.226-.347l1.964-.294,1.872-.277q1-.147,1.725-.255t1.371-.207q.653-.1,1.813-.255t2.9-.339q1.738-.184,3.282-.261t2.9-.076q1.357,0,2.365.029t1.667.071q.658.044,1.563.143t2.072.234q1.166.135,2.227.27t2.5.35a20.347,20.347,0,0,1,2.179.418q.741.2,1.606.463t2.134.629q1.269.368,2.352.678t2.4.707q1.321.4,2.164.688t2.06.706q1.215.415,2.141.751t2.391,1.008q1.466.671,2.636,1.215t1.821.823q.653.28,1.59.743t1.832.881q.894.417,2.005.939t1.768.853q.657.331,1.846,1.055.756.543,1.189.863a21.262,21.262,0,0,0,2.1,1.2" transform="translate(-15.443 -128.364)" fill="none" stroke="#4c4749" stroke-linecap="round" stroke-linejoin="round" stroke-width="5.1"/>
      <path id="パス_35" data-name="パス 35" d="M229.421,294.931q-.139-.141-.085,1.037a8.81,8.81,0,0,1-.133,2.122q-.188.943-.283,1.265c-.063.214-.128.433-.192.657s-.105.383-.124.477a2.36,2.36,0,0,0-.037.3,2.057,2.057,0,0,0-.006.211c0,.032,0,.082,0,.151s0,.163,0,.286,0,.128.008.016.009-.076.006.105-.007.393-.013.633a5.258,5.258,0,0,1-.1.825q-.086.465-.163.963t-.179,3.511a.161.161,0,0,0,.058.01q-.139-.119.445-1.53a21.078,21.078,0,0,1,1.263-2.575,16.366,16.366,0,0,0,1.354-3.42q.225-.5-.483,2.862h.128" transform="translate(-31.558 -142.43)" fill="none" stroke="#fff" stroke-linecap="round" stroke-linejoin="round" stroke-width="12.19" opacity="0"/>
      <path id="パス_36" data-name="パス 36" d="M232.312,304.434H231.9q-.056-.205.019.113a1.585,1.585,0,0,1-.066.8,1.772,1.772,0,0,1-.423.766,4.974,4.974,0,0,0-.407.45,3.109,3.109,0,0,1-.233.277c-.071.074-.154.168-.246.281a4.388,4.388,0,0,1-.431.437.992.992,0,0,1-.644.28q-.076.011.079-.858a7.173,7.173,0,0,1,.371-1.4,3.427,3.427,0,0,1,.394-.761,1.174,1.174,0,0,1,.414-.346,3.875,3.875,0,0,1,.414-.175c.119-.041.16-.061.124-.06s.183-.015.657-.049q.406-.344-2.117,3.47-.465.117,1.22-3.02" transform="translate(-31.699 -143.416)" fill="none" stroke="#fff" stroke-linecap="round" stroke-linejoin="round" stroke-width="12.366" opacity="0"/>
    </g>
    <g id="新しいレイヤー_2" transform="translate(17.537 8.063)">
      <path id="パス_53" data-name="パス 53" d="M70.069,177.248q.538-.911,1.074-1.725T72.2,174q.518-.713,1-1.326t1.159-1.383q.672-.77,1.415-1.49t1.362-1.235q.618-.517,1.078-.864t.973-.7q.512-.351,1.016-.679t1-.641l.9-.578q.411-.264.911-.59t1.185-.781q.686-.456,1.093-.755t.632-.47q.225-.17.733-.5t1.318-.824q.808-.5,1.487-.9t1.5-.88q.816-.473,1.613-.923t1.659-.914q.861-.465,1.632-.867t1.469-.716q.7-.312,1.471-.642t1.615-.667q.843-.338,1.544-.593t1.188-.436l.994-.37.964-.356q.457-.169,1.063-.39l1.163-.423,1.128-.407q.572-.206,1.067-.389t1.119-.425q.624-.241,1.432-.529t1.439-.524q.632-.237,1.19-.408t1.009-.3q.452-.133.983-.28t1.059-.281q.529-.133,1.054-.249t1.05-.217q.523-.1,1.044-.184t1.006-.153q.485-.068,1.16-.149t1.312-.145q.638-.066,1.315-.123t1.3-.106q.627-.047,1.494-.1t1.822-.089q.958-.034,1.875-.032t1.8.039q.878.039,1.684.087t1.539.118q.733.07,1.489.147t1.534.165q.778.088,1.545.2t1.518.243q.752.131,1.62.3t1.853.368q.985.2,1.9.4t1.751.389q.837.192,1.543.36l1.2.289,1.021.247q.524.127,1,.247t1.1.286q.628.166,1.206.324t1.176.323l1.151.322,1.319.373q.765.217,1.6.472l1.474.451q.642.2,1.311.412t1.518.474q.848.26,1.7.539l1.726.566q.874.287,1.507.5t1.318.445l1.429.49q.745.256,1.553.535l1.576.548q.766.268,1.489.525t1.391.5q.669.245,1.591.6t1.787.7q.864.35,1.558.642t1.511.646q.817.355,1.54.658t1.656.684q.934.379,2.179.935t2.523,1.16q1.277.6,2.162,1.042t1.788.909q.9.472,1.812.981t1.809,1.051" transform="translate(-24.151 -22.888)" fill="none" stroke="#4c4749" stroke-linecap="round" stroke-linejoin="round" stroke-width="5.1"/>
      <path id="パス_54" data-name="パス 54" d="M196.577,153.122q-2.742-3.9-3.965-5.564t-2.091-2.808q-.87-1.142-1.474-1.928t-1.607-2.111a40.091,40.091,0,0,1-2.313-3.511,25.757,25.757,0,0,1-1.5-2.7,8.683,8.683,0,0,1-.289-.909,6.458,6.458,0,0,1-.146-.952,9.761,9.761,0,0,1,.033-1.549,17.032,17.032,0,0,1,.835-3.308,40.841,40.841,0,0,1,2.911-6.3q1.079-1.993,1.923-3.493t1.452-2.51q.61-1.01,1.57-2.566t1.771-2.86l1.787-2.875q.978-1.57,1.779-2.844t1.736-2.74q.935-1.466,1.743-2.612t1.724-2.342q.915-1.2,1.886-2.391t2.3-2.783q1.328-1.587,2.357-2.8t2.131-2.491q1.1-1.275,2.226-2.543t2.873-2.99q1.747-1.721,2.367-2.2a15.745,15.745,0,0,1,1.958-1.2,15.953,15.953,0,0,1,2.139-1.006,5.692,5.692,0,0,1,1.225-.323,10.608,10.608,0,0,1,1.386.008q.961.049,2.6.149t2.893.19q1.25.088,2.538.226t2.962.214a32.817,32.817,0,0,0,3.362-.017,29.177,29.177,0,0,0,3.313-.376,26.3,26.3,0,0,0,5.651-1.605,26.27,26.27,0,0,0,2.511-1.176,32.535,32.535,0,0,0,3.157-2.02,31.209,31.209,0,0,0,3.159-2.488,29.324,29.324,0,0,0,2.213-2.27,26.76,26.76,0,0,0,2.258-3.106,33.333,33.333,0,0,0,1.912-3.318,33.78,33.78,0,0,0,1.512-3.934,38.453,38.453,0,0,0,1.17-4.142q.324-1.58.5-3.135a32.671,32.671,0,0,0,.174-3.51,34.206,34.206,0,0,0-.247-4.07,36.038,36.038,0,0,0-.606-3.68q-.355-1.567-.79-2.884a30.829,30.829,0,0,0-1.238-3.077,31.147,31.147,0,0,0-1.488-2.914q-.685-1.153-1.474-2.238a30.481,30.481,0,0,0-2.093-2.52,32.31,32.31,0,0,0-2.571-2.546,33.372,33.372,0,0,0-2.792-2.185,33.717,33.717,0,0,0-3.123-1.955,32.859,32.859,0,0,0-3.274-1.577,31.609,31.609,0,0,0-3.132-1.128q-1.453-.431-2.671-.666t-2.553-.37q-1.336-.135-2.938-.149t-2.93.1q-1.328.115-2.518.326t-2.525.572q-1.336.362-2.841.925t-2.914,1.258q-1.41.694-2.64,1.447t-1.953,1.268q-.722.515-1.405,1.068T214.244,22.7a37.007,37.007,0,0,0-2.511,2.719q-.969,1.185-1.779,2.395t-1.218,1.914q-.407.7-.879,1.629t-.963,2.055Q206.4,34.542,205.9,36a32.479,32.479,0,0,0-.938,3.432,29.166,29.166,0,0,0-.6,3.778,29.517,29.517,0,0,0-.108,3.442,32.13,32.13,0,0,0,.282,3.353q.234,1.715.5,2.915t.527,2.529q.264,1.328.64,3.179t.567,3.025a13.143,13.143,0,0,1,.2,1.923,9.069,9.069,0,0,1-.219,1.847,13.1,13.1,0,0,1-.442,1.7,11.336,11.336,0,0,1-.8,1.627q-.582,1.027-1.664,2.682t-2.069,2.955q-.986,1.3-2.257,2.723T197.826,79q-.425.469-1.084,1.207l-1.7,1.9q-1.038,1.165-2,2.265t-2.271,2.648q-1.312,1.549-3,3.71t-3.286,4.424q-1.6,2.263-2.722,4.017t-2.032,3.212q-.909,1.458-1.977,3.2-2.136,3.491-3.429,5.491t-2.751,3.991a39.233,39.233,0,0,1-3.271,3.887,29.622,29.622,0,0,1-2.293,2.26q-.481.363-1.033.7t-1.491.788a9.352,9.352,0,0,1-1.42.343,20.811,20.811,0,0,1-2.868.015q-2.234-.08-3.077-.208t-2.832-.535q-1.989-.407-6.562-1.506t-6.5-1.479q-1.922-.381-4.289-.71t-4-.453q-1.636-.125-3.144-.16t-3.052.012q-1.542.047-3.173.187t-3.779.455q-2.148.316-4.146.741t-3.923.95q-1.926.524-3.735,1.114t-3.468,1.191q-1.658.6-3.389,1.267t-5.153,1.717a25.823,25.823,0,0,1-4.924,1.16,14.606,14.606,0,0,1-2.61-.013l-1.654-.754a16.331,16.331,0,0,1-2.119-1.831,16.144,16.144,0,0,1-1.752-2.165,27.764,27.764,0,0,1-1.776-3.13q-.966-1.936-2.75-6.669t-2.861-7.72q-1.076-2.987-2.287-6.236T69.589,90.8a62.586,62.586,0,0,1-1.929-6.444,25.141,25.141,0,0,1-.568-4.2,24.4,24.4,0,0,1-.039-2.491,12.1,12.1,0,0,1,.248-1.38,9.894,9.894,0,0,1,.492-1.595,12.5,12.5,0,0,1,.817-1.594,17.76,17.76,0,0,1,1.345-1.914q.822-1.038,1.82-2.073T74.37,66.54Q75.966,65,77.15,63.8T79.4,61.342q1.064-1.252,1.788-2.264t1.472-2.313a28.122,28.122,0,0,0,1.386-2.757,27.64,27.64,0,0,0,1.049-2.762,26.48,26.48,0,0,0,.716-2.873q.306-1.566.466-3.291t.154-3.422q-.008-1.7-.092-2.732t-.23-2.069q-.146-1.036-.334-1.978t-.454-1.952q-.264-1.01-.575-1.958t-.889-2.363q-.578-1.415-1.166-2.583t-1.076-2q-.49-.833-1.145-1.807t-1.727-2.3q-1.071-1.329-2.114-2.4T74.449,15.47a32.46,32.46,0,0,0-2.576-1.976,31.552,31.552,0,0,0-2.993-1.844,30.577,30.577,0,0,0-3.15-1.486q-1.6-.643-2.647-.954T60.91,8.663q-1.125-.238-2.078-.368t-2.581-.213a38.39,38.39,0,0,0-4.776.185,41.637,41.637,0,0,0-5.362.756q-2.212.489-2.768.665t-1.592.612q-1.037.436-2.725,1.224t-2.9,1.435q-1.209.648-2.314,1.381t-1.754,1.249q-.648.514-1.938,1.743a28.918,28.918,0,0,0-2.049,2.122A38.465,38.465,0,0,0,25.6,23.038a46.719,46.719,0,0,0-2.67,4.663q-.953,1.972-1.523,3.435t-.986,2.8q-.415,1.333-.737,2.7T19.1,39.71q-.265,1.717-.334,2.6t-.092,1.754q-.023.874.068,2.581t.277,3.014q.186,1.308.448,2.411t.732,2.468a28.708,28.708,0,0,0,1.133,2.783q.662,1.419,1.3,2.491a29.023,29.023,0,0,0,1.824,2.634,27.4,27.4,0,0,0,2.177,2.571,33.848,33.848,0,0,0,3.289,2.776,40.231,40.231,0,0,0,3.822,2.668q1.521.9,2.808,1.54t2.555,1.26q1.269.617,2.96,1.413t3.11,1.516q1.419.719,2.556,1.374a32.781,32.781,0,0,1,2.687,2.266q1.144,1.089,1.587,1.6t1.89,2.679a34.58,34.58,0,0,1,2.3,3.9q.85,1.738,1.552,3.541t1.337,3.791q.635,1.989,1,3.278t.992,3.639q.624,2.35,1.115,4.152t1.056,3.838q1.14,4.061,2.034,6.917t1.382,4.293q.489,1.436,1.2,3.445t1.664,4.864q.956,2.857,1.528,5.193t.682,3.11q.109.773.165,1.6t.054,1.269c0,.3-.019.61-.049.936s-.09.746-.18,1.258-.188.978-.3,1.4-.352,1.156-.732,2.214-.818,2.173-1.316,3.345-1.033,2.411-1.608,3.715-1.033,2.35-1.374,3.139-.588,1.37-.739,1.746-.557,1.461-1.222,3.259" transform="translate(-18.667 -8.063)" fill="none" stroke="#4c4749" stroke-linecap="round" stroke-linejoin="round" stroke-width="5.1"/>
      <path id="パス_55" data-name="パス 55" d="M47.493,64.519l.052-.006.049,0a.911.911,0,0,1,.091,0q.046,0,.092.007t.134.027l.28.009.013,0,.088-.013.1-.013q.032-.005.117-.011l.146-.011a1.305,1.305,0,0,1,.145,0l.017,0h0q.065-.012.164-.021l.113,0,.036,0,.07-.021q.076-.021.124-.029a1.34,1.34,0,0,1,.147-.013l.1-.008.024,0,.025-.005q.076-.019.163-.034.038-.008.129-.018l.135-.023.1-.011.133-.026.04-.008-.005,0,.724-.138.681-.13q.329-.064.622-.127t.674-.157q.381-.095.74-.206t.7-.244q.338-.131.773-.344t.859-.456q.423-.243.74-.443t.65-.44q.333-.239.6-.47t.473-.425q.207-.192.444-.422t.418-.415q.182-.186.31-.328t.293-.348q.165-.205.369-.475t.39-.538q.187-.269.355-.538t.319-.53q.151-.261.284-.514.265-.507.582-1.162t.566-1.221q.248-.565.506-1.273t.417-1.292q.162-.584.31-1.38t.22-1.524q.071-.727.113-1.652t0-1.852q-.046-.927-.182-1.856a16.315,16.315,0,0,0-.4-1.89,19.32,19.32,0,0,0-.646-1.953,18.707,18.707,0,0,0-.838-1.859,14.644,14.644,0,0,0-.967-1.605q-.515-.739-1.073-1.391a15.62,15.62,0,0,0-1.153-1.216,16.171,16.171,0,0,0-2.26-1.828,14.447,14.447,0,0,0-1.907-1.069,19.08,19.08,0,0,0-2.237-.8,21.632,21.632,0,0,0-3.515-.675,20.789,20.789,0,0,0-4.206-.09,18.753,18.753,0,0,0-3.842.695,17.842,17.842,0,0,0-3,1.158,12.063,12.063,0,0,0-2.445,1.691,17.381,17.381,0,0,0-1.907,1.9,18.019,18.019,0,0,0-1.313,1.808,19.447,19.447,0,0,0-1.071,1.9,15.542,15.542,0,0,0-.761,1.831q-.3.9-.508,1.7t-.385,1.819a23.405,23.405,0,0,0-.237,3.042q-.036,1-.015,1.835t.136,1.83a13.922,13.922,0,0,0,.362,1.937,14.874,14.874,0,0,0,.606,1.827q.18.44.406.944t.5,1.068q.274.564.523,1.035t.585,1.046a7,7,0,0,0,.7,1,8.072,8.072,0,0,0,.835.836q.475.414.856.719t.827.641q.446.334.813.6t.8.558a5.6,5.6,0,0,0,.859.481q.425.188,1,.383.287.1.581.186t.594.163q.3.075.665.157t.79.169q.426.088.865.162t.888.132q.448.058.846.1t.742.076q.344.03.706.054t.727.036q.367.013.665.021Z" transform="translate(-19.829 -10.289)" fill="#4c4749" stroke="#4c4749" stroke-linecap="round" stroke-linejoin="round" stroke-width="0.5"/>
      <path id="パス_56" data-name="パス 56" d="M252.533,62.456q.226-.031.786-.137t1.205-.278a9.649,9.649,0,0,0,1.042-.332q.4-.158.683-.292t.595-.3q.308-.162.637-.351t.677-.4q.35-.214.717-.45t.754-.493q.385-.258.735-.5t.666-.476q.316-.232.6-.454t.538-.432q.5-.424.792-.714t.49-.516c.133-.152.269-.315.406-.49q.409-.525.7-.919t.349-.491q.055-.1.155-.306t.264-.56a13.887,13.887,0,0,0,.646-1.748,14.471,14.471,0,0,0,.455-1.863q.134-.816.191-1.4t.081-1.2q.025-.616-.013-1.333t-.14-1.534a15,15,0,0,0-.309-1.7q-.212-.892-.535-1.862t-.66-1.749a12.1,12.1,0,0,0-.691-1.378,13.139,13.139,0,0,0-.883-1.285q-.528-.686-1.227-1.459t-1.316-1.352a14.278,14.278,0,0,0-1.423-1.157,14.927,14.927,0,0,0-1.788-1.093,15.573,15.573,0,0,0-1.905-.851,13.4,13.4,0,0,0-1.855-.531,14.739,14.739,0,0,0-1.818-.267q-.888-.072-2.042-.088a13.225,13.225,0,0,0-5.647.781,15.109,15.109,0,0,0-2.531,1.064,16.049,16.049,0,0,0-1.938,1.217q-.824.613-1.731,1.438a17.892,17.892,0,0,0-1.611,1.655,12.779,12.779,0,0,0-1.208,1.662q-.5.837-.826,1.478a8.547,8.547,0,0,0-.531,1.3,13.421,13.421,0,0,0-.394,1.934q-.1.64-.134,1.3t-.017,1.347q.02.686.11,1.394t.247,1.438a10.515,10.515,0,0,0,.4,1.405q.247.675.451,1.172t.451,1.041q.245.544.506,1.054.13.256.3.563c.112.2.238.425.376.664s.294.485.466.739.364.515.572.783.414.525.616.768.4.474.6.692.391.423.582.616.379.375.564.544.379.341.582.516.418.354.642.535.443.353.657.516.422.316.625.457.4.273.578.393.39.25.629.394.49.289.759.436.5.266.694.359.4.184.6.275.421.181.641.27.444.175.675.261l.363.06.225.034.276.04.121.013.264.031.166.02.239.027.089.006.148.012c.142.011.247.02.318.028l.306.03c.067.007.138.017.211.029l.345.034.188.019c.136.013.245.026.326.041l.089.015.172.008.1,0q.2-.038.3-.052t.142-.015c.089-.006.166-.01.23-.011h.008c.122-.025.215-.041.277-.049s.106-.013.133-.014l.071,0,.244-.017.036,0,.038,0,.144-.012Z" transform="translate(-41.59 -10.373)" fill="#4c4749" stroke="#4c4749" stroke-linecap="round" stroke-linejoin="round" stroke-width="0.5"/>
    </g>
  </g>
</svg>
