<svg xmlns="http://www.w3.org/2000/svg" width="130.025" height="225.001" viewBox="0 0 130.025 225.001">
  <path id="パス_70" data-name="パス 70" d="M205.2,58.239c4.451-.709,9.488-.644,13.471,1.663,15.738,9.131,8.346,34.439-9.957,32.987-10.736-.855-16.523-8.1-16.4-18.555a16.258,16.258,0,0,1,12.886-16.1Zm-18.743,82.28-20.4,22.257-14.906,16.171c-4.463,3.895-12.722,1.991-12.071-5.629.322-3.819,4.041-7.995,6.179-11.128l16.206-23.428,14.2-20.5c3.339-4.727,5.47-8.832,10.2-12.487,9.1-7.023,27.317-8.756,38.071-5.23a34.548,34.548,0,0,1,17.718,13.032c2.87,4.27,4.744,9.459,7.028,14.057L264.806,161.6c2.319,4.727,7.573,12.991,1.289,16.98-6.531,4.147-10.262-2.3-13.1-7.023l-12.645-21.085-9.377-15.814L229.8,165.119l-.586,9.957-.609,11.714v7.028l-.562,5.857v4.686l-.586,8.786,3.854,38.071L232.9,265.86c.246,1.991,1.06,7.714.808,9.371-.82,5.429-4.5,7.866-9.758,7.591-5.336-.281-7.058-3.637-8.592-8.176l-7.421-24.6-11.351-38.071c-2.9-9.664-6.074-19.281-7.62-29.285a107.641,107.641,0,0,1-1.33-16.4l-.586-9.957C187.042,151.062,187.393,145.72,186.462,140.519ZM197.59,228.96h1.171l6.443,21.085c.949,2.876,2.765,7.62,1.968,10.543-.773,2.841-4.41,9.688-6.677,11.462a9.275,9.275,0,0,1-13.7-3.262c-2.144-4.463.182-9.242,1.763-13.471Z" transform="translate(-139.048 -57.842)" fill="#c78ea9"/>
</svg>
