<svg xmlns="http://www.w3.org/2000/svg" width="225" height="196.641" viewBox="0 0 225 196.641">
  <path id="パス_75" data-name="パス 75" d="M200.312,69.3c8.729-1.119,16.99,2.378,21.17,10.424,5.949,11.443-.69,27.052-13.8,29.263-6.505,1.092-13.881-.509-18.638-5.266-8.528-8.535-7.255-23.9,2.559-30.944A20.31,20.31,0,0,1,200.312,69.3ZM109.2,107.19l26.128-10.317L149.4,91.782l9.647,24.118,4.857,11.134,8.274,5.152,16.079,8.5c1.99-3.725,10.33-13.419,13.533-17.418,7.255-9.058,11.885-14.209,23.984-14.069,6.887.08,11.577,3.249,13.539,10.049l1.976,16.079,4.1,35.507,1.916,16.748c.261,3.3,1.012,5.326,0,8.709-2.392,8.6-8.736,10.706-16.842,10.719H192.272l-6.3,32.157c-.77,3.859-3.068,16.641-4.455,19.4-2.78,5.554-11.081,6.465-15.221,1.963-2.472-2.68-2.2-5.259-2.164-8.636l1.9-18.088,3.176-29.477c.717-5.366.348-12.528,4.442-16.527,3.591-3.51,9.808-4.884,14.6-5.849l23.448-4.422-2.01-26.8c-3.055,2.64-9.734,8.381-13.4,9.513-4.77,1.467-8.046-.536-12.059-2.814l-12.729-6.86c-1.434-.737-4.6-2.539-6.029-2.72-1.97-.248-5.46,1.447-7.369,2.211l-16.079,6.7h28.137v14.069H130.638v93.791h-75.7V156.766h73.023l-13.667-34.837Zm37.517-9.379L115.229,109.87l6.3,16.748,11.121,28.137,26.8-10.719c-6.1-4.951-8.669-10.491-.67-15.409ZM223.09,222.42H200.982c-2.07-.013-4.067.08-5.842-1.266-2.921-2.3-2.834-7.389,0-9.781,2.144-1.862,5.172-1.675,7.852-1.682h34.167a18.613,18.613,0,0,0,6.7-.744c9.1-3.162,10.94-13.211,12.977-21.364l7.021-27.467,2.2-8.709c1.159-4.636,2.177-10.86,8.622-9.888,3.745.569,5.507,3.631,5.232,7.209l-5.822,24.118-4.522,17.418c-3.3,13.191-5.795,25.538-20.346,30.757-5.333,1.916-10.5,1.4-16.079,1.4v32.827l20.1,3.886c1.929.4,5.514.824,6.257,2.961a2.73,2.73,0,0,1-2.278,3.6c-1.367.268-8.207-.945-10.009-1.239l-20.1-2.68L206.341,264.9c-2.258.362-11.483,2.546-9.607-2.807.529-1.521,2.191-2,3.577-2.378l10.719-2.318c3.792-.8,8.26-1.976,12.059-2.15Z" transform="translate(-54.935 -69.095)" fill="#c78ea9"/>
</svg>
