<svg xmlns="http://www.w3.org/2000/svg" width="96.657" height="119.59" viewBox="0 0 96.657 119.59">
  <g id="新しいレイヤー_9" transform="translate(3.659 0.25)">
    <path id="STROKE_eeb8d128-1383-4276-a9ef-81f759839119" d="M453.778,80.442q-.095.131-.157.226l-.074.085a4.93,4.93,0,0,0-.319.414q-.272.373-.443.622l-.34.494q-.169.245-.548.858t-.6.942q-.22.33-.353.516t-.385.512q-.252.327-.452.589t-.8,1.105q-.6.843-1.127,1.759t-.791,1.45q-.261.533-.379.782t-.516,1.268q-.4,1.02-.632,1.7t-.342,1.039q-.109.355-.227.734t-.2.663q-.082.284-.119.433t-.112.457a6.665,6.665,0,0,0-.129.752q-.054.444-.058.539t.006.248a4.44,4.44,0,0,0,.059.443l.366.972q.357.951,1.015,2.386t.853,1.78q.2.345.8,1.249t1.135,1.676q.534.772.885,1.228t.918,1.111a18.881,18.881,0,0,0,1.462,1.478q.893.823,1.526,1.327t.98.747q.348.244.6.4t.462.27q.206.113,1.014.5t2.03,1.088q1.222.7,1.822,1.089t1.408,1q.809.611,1.216.955t.836.714q.429.369,1,.821t.961.715a7.383,7.383,0,0,0,1.072.567q.68.3,1.264.515t.926.322a9.475,9.475,0,0,0,1.157.252l1.349.232q.533.091.762.146t.653.15q.425.1.863.169t.816.127q.377.053.635.077l.43.042a5.918,5.918,0,0,0,.645,0q.473-.012.657-.03a4.079,4.079,0,0,0,.491-.086q.308-.069.761-.2t.672-.187l.36-.091q.141-.035.422-.073t.571-.062q.29-.024.43-.027t.468-.016q.328-.013.743-.054a5.583,5.583,0,0,0,.566-.074c.1-.022.185-.042.253-.059s.159-.044.273-.083a2.553,2.553,0,0,0,.279-.11c.072-.035.114-.054.124-.057s.113-.089.309-.256a4.831,4.831,0,0,0,.427-.4l.561-.626q.427-.476.606-.658t.862-.858q.684-.676,1.191-1.191t.9-.911q.394-.4.579-.593t.741-.832q.557-.634.944-1.048t.96-1.006q.573-.593.983-1.03t.689-.751q.279-.314.849-.926t.968-1.042q.4-.43.593-.628t.6-.573q.4-.376.966-.94a11.061,11.061,0,0,0,.874-.963,6.09,6.09,0,0,0,.432-.606,6.65,6.65,0,0,0,.3-.609l.039-.106.038-.13.027-.121q0-.032.07-1.073a12.36,12.36,0,0,0,.015-1.69q-.051-.648-.106-.972t-.145-.7q-.09-.379-.16-.646t-.307-.953q-.237-.686-.48-1.219a8.629,8.629,0,0,0-.725-1.241q-.482-.708-.761-1.07t-.418-.551q-.14-.19-.513-.638t-.886-.971q-.513-.523-1.006-1.057t-.754-.834q-.261-.3-.406-.462t-.874-.949q-.729-.787-1.131-1.2t-.612-.613q-.21-.2-.359-.323t-.374-.291" transform="translate(-413.223 -63.56)" fill="#fff9fc" stroke="#fff" stroke-linecap="round" stroke-linejoin="round" stroke-width="0.5"/>
    <path id="STROKE_39fa8127-2d11-4df8-a90f-87c79998baae" d="M407.121,217.023l-.1-.042a.143.143,0,0,0-.034-.013,2.1,2.1,0,0,0-.377-.068,1.288,1.288,0,0,0-.732.187,1.256,1.256,0,0,0-.2.153,1.283,1.283,0,0,0-.17.19,2.156,2.156,0,0,0-.183.337l-.145.211q-.228.306-.648.893a17.4,17.4,0,0,1-1.5-1.988q-.633-.989-.864-1.424t-.534-1.181q-.3-.747-.465-1.3a13.579,13.579,0,0,1-.313-1.363,12.931,12.931,0,0,1-.19-1.368q-.04-.555-.044-.907t.016-.738q.02-.386.121-1.114t.188-1.1q.086-.376.4-1.341t.518-1.464q.2-.5.494-1.109t.4-.832q.108-.222.274-.537t15.4,11.515q15.23,11.83,15.19,11.854t-.415.339q-.278.2-.846.59t-1.256.812q-.689.419-1.224.695t-1.5.652a15.565,15.565,0,0,1-1.629.552q-.664.175-1.42.3a14.381,14.381,0,0,1-1.639.158q-.883.038-1.383.012t-1.73-.217q-1.23-.192-2.355-.485l.094-.148.192-.263.131-.193.134-.191q.262-.353.266-.363l.021-.04q.206-.341.211-.357l.022-.066a2.1,2.1,0,0,0,.113-.557,1.283,1.283,0,0,0-.471-1,1.077,1.077,0,0,0-.253-.165q-.087-.04-.177-.073a.444.444,0,0,0-.129-.035,2.581,2.581,0,0,0-.308-.03.11.11,0,0,0-.029,0,2.153,2.153,0,0,0-.335.065,1.611,1.611,0,0,0-.256.112,2.315,2.315,0,0,0-.265.169,1.3,1.3,0,0,0-.282.308,1.267,1.267,0,0,0-.1.184,2.068,2.068,0,0,0-.1.3l-.03.043-.139.19-.16.226-.157.214-.195.272-.181.249-.176.241-.021.023q-.7-.285-1.351-.6t-1.536-.806q-.885-.489-1.036-.589.3-.436.385-.588l.054-.093q.32-.449.374-.545l.083-.116.015-.019.132-.138q.3-.293.311-.308l.054-.084c.044-.062.086-.126.124-.191a.319.319,0,0,0,.041-.084,2.1,2.1,0,0,0,.1-.515,1.288,1.288,0,0,0-1.007-1.269q-.172-.039-.183-.038a2.2,2.2,0,0,0-.375,0,1.292,1.292,0,0,0-.47.159,1.275,1.275,0,0,0-.2.144,1.257,1.257,0,0,0-.172.18,2.112,2.112,0,0,0-.191.322l-.172.208-.15.2q-.144.18-.443.643l-.134.206q-.031.038-.339.482-.044-.029-.734-.56t-1.3-1.052q-.607-.521-1.092-.976l.169-.536q.434-.606.683-.962a6.566,6.566,0,0,0,.386-.572q.047-.08.089-.164a.5.5,0,0,0,.06-.159q.033-.131.042-.2c.006-.045.011-.112.014-.2a.017.017,0,0,0,0-.006,2.116,2.116,0,0,0-.1-.461,1.277,1.277,0,0,0-.153-.275,1.291,1.291,0,0,0-.215-.23,1.054,1.054,0,0,0-.2-.138" transform="translate(-382.713 -147.119)" fill="#ce86a8" stroke="#ce86a8" stroke-linecap="round" stroke-linejoin="round" stroke-width="0.5"/>
    <path id="STROKE_125bba86-8f11-4a4d-a79f-bf58d860e676" d="M516.37,68.221l.522.221.294.124.263.111.359.153q1.051-1.157,2.166-2.547t1.9-2.558q.786-1.167,1.092-1.718t.521-.99q.215-.44.394-.881t.326-.86a11.444,11.444,0,0,0,.317-1.123,13.2,13.2,0,0,0,.25-1.3,9.715,9.715,0,0,0,.083-1.276,10.574,10.574,0,0,0-.075-1.309,10.451,10.451,0,0,0-.174-1.053q-.1-.422-.176-.692t-.478-1.226a14.63,14.63,0,0,0-.912-1.82,19.7,19.7,0,0,0-1.44-2.045,34.185,34.185,0,0,0-2.458-2.739q-1.53-1.558-3.013-2.88t-2.222-1.958q-.74-.636-1.138-.983l-1.052-.914-1.435-1.247-1.7-1.478q-.92-.8-1.954-1.715t-2.022-1.775q-.988-.859-1.671-1.413t-.97-.774q-.286-.219-1.345-.934T499,27.579q-.564-.323-1.4-.725t-1.393-.611q-.556-.209-.873-.308t-.625-.169q-.308-.071-.929-.151a11.059,11.059,0,0,0-1.382-.082q-.761,0-1.141.039t-.648.083q-.269.042-1.091.264a13.807,13.807,0,0,0-1.947.722,17.344,17.344,0,0,0-2.357,1.3q-1.232.8-1.848,1.284t-.9.729q-.288.242-.966.875t-1.662,1.687q-.984,1.054-1.473,1.623t-.962,1.143q-.472.573-.829,1.024t-1.028,1.352q-.671.9-1.514,2.152t-1.3,1.986q-.454.735-.773,1.3l1.048.671.487.313.4.255.351.225c.112.072.18.116.206.134l1.3.729.569.318.445.249.38.212.441.248,1.416.776.6.33.462.254.388.213.492.27,1.536.707.641.3.494.228.421.194q.2.091.433.206l1.581.767L486.7,51l.5.245.428.209q.2.1.415.217,1.12.613,1.476.812l.619.345.48.267.414.231q.2.11.289.169,1.116.636,1.469.839l.616.355.486.28q.222.128.578.339l1.412.892.595.377.469.3q.215.136.571.366l1,.685.48.33.411.283q.2.134.271.2.42.3.635.457l1.164.783.521.351.42.283.52.35,1.206.731.538.327.433.262.381.231.187.114,1.206.694.541.311.433.249.38.219q.182.1.276.165.787.451,1.066.613l.5.291.414.241.469.273,1.1.572.514.268.424.221.46.24.95.4.468.2.393.167.352.15q.169.072.3.132" transform="translate(-432.11 -25.533)" fill="#ce86a8" stroke="#ce86a8" stroke-linecap="round" stroke-linejoin="round" stroke-width="0.5"/>
    <path id="STROKE_ce3031c4-a6d7-48f4-8eef-8ae3a8bed2fd" d="M463.046,157.606l.143.078q-.88.814-2.3,2.069t-2.869,2.506q-1.447,1.25-1.72,1.488t-2.043,1.843q-1.77,1.6-2.382,2.174t-1.2,1.124l-.966.917-.728.69q-.346.328-1.076,1.026t-1.669,1.614q-.939.916-1,.98l-1.911-1.481-1.913-1.48-1.915-1.48-1.916-1.479-1.917-1.479-1.917-1.478-1.918-1.478-1.919-1.477L428,160.808l-1.919-1.475-1.919-1.474-1.919-1.473-1.919-1.472-1.918-1.469-1.917-1.466-1.915-1.463q.267-.392.46-.7t.315-.52q.123-.207.382-.671l.525-.937q.265-.472.355-.638t.235-.43q.145-.264.35-.661t.413-.8l.5-.957q.288-.557.494-.993t.52-1.084q.315-.648.762-1.56t.52-1.072q.073-.161.241-.5t.309-.614q.142-.276.456-.87t.914-1.722q.6-1.129,1.958-3.641,1.053.863,1.713,1.393,1.031.79,1.686,1.277.633.462.687.487,1.193.79,2,1.314l.548.328,2.05,1.314q.463.3.468.3l2.44,1.675,1.945,1.5q.438.338.465.351l1.971,1.583a4.786,4.786,0,0,0,.658.466q1.763,1.271,2.245,1.605a5.978,5.978,0,0,0,.752.462q1.921,1.236,2.43,1.55a6.368,6.368,0,0,0,.739.411q2.038,1.246,2.56,1.554a6.767,6.767,0,0,0,.717.387q1.446.9,1.905,1.18a5.3,5.3,0,0,0,.537.3q.721.425.85.477,1.5.843,1.965,1.1t.959.537q.491.28.955.527,1.06.648,1.673,1l.591.36.942.589.453.283.365.228.309.192.272.17.249.156.236.147q.116.072.284.169" transform="translate(-392.373 -99.366)" fill="#ce86a8" stroke="#ce86a8" stroke-linecap="round" stroke-linejoin="round" stroke-width="0.5"/>
    <g id="グループ_44" data-name="グループ 44" transform="matrix(-0.833, -0.554, 0.554, -0.833, 62.837, 58.322)">
      <g id="LABEL_334da890-21e5-422f-8d51-7891551c37eb" transform="translate(0 0)">
        <g id="グループ_43" data-name="グループ 43" transform="translate(0 0)">
          <text id="salt" transform="translate(0 16)" fill="#ce86a8" font-size="14" font-family="YuseiMagic-Regular, Yusei Magic"><tspan x="0" y="0">salt</tspan></text>
        </g>
      </g>
    </g>
    <path id="STROKE_9e9edd59-347b-48f3-9cad-9a128f0a6c2d" d="M392.162,292.745q-.213.4-.3.518t-.39.672q-.306.553-.844,1.483T389.74,297" transform="translate(-375.176 -210.587)" fill="none" stroke="#ce86a8" stroke-linecap="round" stroke-linejoin="round" stroke-width="6.6"/>
    <path id="STROKE_90f44c0b-4f02-495c-bd74-d814649a8d8d" d="M413.6,311.46q-.109.523-.328,1.767t-.683,3.968" transform="translate(-390.999 -223.548)" fill="none" stroke="#ce86a8" stroke-linecap="round" stroke-linejoin="round" stroke-width="6.6"/>
    <path id="STROKE_6035f94d-91f7-4775-b17b-f812a130ed59" d="M443.228,316.54q-.057.547-.193,2.37T442.7,323.8" transform="translate(-411.852 -227.066)" fill="none" stroke="#ce86a8" stroke-linecap="round" stroke-linejoin="round" stroke-width="6.6"/>
    <path id="STROKE_7d3861c3-ca6b-4a12-8710-21286e2dc0e6" d="M359.866,335.029q-.083.261-.7,2.134t-.892,2.771q-.277.9-.763,2.584" transform="translate(-352.857 -239.871)" fill="none" stroke="#ce86a8" stroke-linecap="round" stroke-linejoin="round" stroke-width="6.6"/>
    <path id="STROKE_d21d088f-8706-4f2d-a24d-e0e15a8dbba1" d="M387.556,362.179q.008.358,0,1.7t0,2.419q.007,1.073.1,3.621" transform="translate(-373.664 -258.673)" fill="none" stroke="#ce86a8" stroke-linecap="round" stroke-linejoin="round" stroke-width="6.6"/>
    <path id="STROKE_04cc0f2a-ebb6-4d3f-9039-228a388b485c" d="M422.98,371.058q.055.428.907,5.164l.088.539" transform="translate(-398.196 -264.822)" fill="none" stroke="#ce86a8" stroke-linecap="round" stroke-linejoin="round" stroke-width="6.6"/>
    <path id="STROKE_1822d917-c4b1-4419-bcdf-d6ff541c7ed4" d="M462.192,365.138q.183.621.842,3.094t.8,2.985" transform="translate(-425.352 -260.722)" fill="none" stroke="#ce86a8" stroke-linecap="round" stroke-linejoin="round" stroke-width="6.6"/>
    <path id="STROKE_7dba776e-5cff-439c-bedf-fee875c33956" d="M343.2,382.788q-.066.26-.476,3.1l-.143.961q-.036.271-.207,1.778" transform="translate(-342.372 -272.946)" fill="none" stroke="#ce86a8" stroke-linecap="round" stroke-linejoin="round" stroke-width="6.6"/>
    <path id="STROKE_bda49961-fd9e-4d00-8674-5d3565cc11b4" d="M491.066,372.113q.1.473.9,3.381t.952,3.475" transform="translate(-445.348 -265.553)" fill="none" stroke="#ce86a8" stroke-linecap="round" stroke-linejoin="round" stroke-width="6.6"/>
  </g>
</svg>
